<?xml version="1.0" encoding="UTF-8" standalone="no"?>
<svg viewBox="0 0 1315 437" version="1.1" xmlns="http://www.w3.org/2000/svg" xmlns:xlink="http://www.w3.org/1999/xlink" id="recipes_to_list">
    <title>Convert selected recipes to a shopping list image</title>
    <g id="Logo-applications" stroke="none" stroke-width="1" fill="none" fill-rule="evenodd">
        <g id="Stock-in-cube" transform="translate(-309.000000, -1006.000000)">
            <g id="Group-9" transform="translate(309.000000, 1006.000000)">
                <g id="Spaghetti,-Sauce-and-balls">
                    <g>
                        <path d="M174,186.805911 C270.097546,186.805911 348,146.923752 348,94.65 C348,42.3762484 270.097546,0 174,0 C77.9024535,0 0,42.3762484 0,94.65 C0,146.923752 77.9024535,186.805911 174,186.805911 Z" id="Oval-5" fill="#FCF7F2"></path>
                        <g id="Noodles" transform="translate(37.800000, 10.500000)">
                            <path d="M38.1282192,35.7936108 C55.3828899,23.2157187 90.9932467,12.5775383 134.884339,7.51767719 C149.497238,5.83307012 171.961194,-1.17973184 185.733888,0.482878602 C198.196884,1.98738514 206.654081,14.1879298 216.86098,20.6562837 C227.525278,27.4145017 239.812683,28.5663619 246.882522,35.7936108 C290.656541,80.5422614 269.183778,120.133129 216.86098,142.528787 C164.538182,164.924445 46.5915067,148.987535 25.5452979,128.223533 C4.49908903,107.45953 4.49908903,60.3077601 38.1282192,35.7936108 Z" id="Rectangle-10" fill="#FACE5C"></path>
                            <path d="M96.3356629,132.296993 C93.496859,128.923231 89.3890361,125.958162 87.5578048,125.703831 C83.37674,125.123145 79.4986084,125.378839 73.3494346,126.381652 C72.7310973,126.482491 72.2975811,126.555047 71.0889016,126.758861 C66.0304146,127.611851 63.6487532,127.941123 60.6262291,128.100246 C56.5882601,128.312828 52.8487579,128.012505 49.0804398,127.070178 C47.4867112,126.671641 45.6958856,125.685235 43.6659236,124.206303 C42.6979935,123.501116 41.6898034,122.692555 40.6412968,121.791144 C38.7350238,120.152303 35.2092408,116.765169 35.3651853,116.886441 C31.1630948,113.618641 27.9994618,112.051652 23.2276464,110.923048 L24.125288,107.127756 C29.4597498,108.389434 33.1286237,110.206675 37.7593291,113.807793 C37.7985105,113.838263 41.4213854,117.318671 43.1837557,118.833797 C44.1578595,119.671243 45.0863045,120.415849 45.9624289,121.054151 C47.6214544,122.262836 49.0259967,123.036473 50.0265634,123.286681 C53.3963189,124.129342 56.7517588,124.39882 60.4211942,124.205639 C63.2476105,124.05684 65.5261034,123.741832 70.4404172,122.913154 C71.6563995,122.708108 72.0938915,122.634886 72.7217116,122.532501 C79.2250226,121.471935 83.4377294,121.194181 88.094306,121.840909 C91.0870816,122.25656 95.918831,125.744167 99.3198009,129.786033 C101.180495,131.997365 102.503445,134.240525 103.082179,136.356034 C103.812544,139.025817 103.342865,141.478063 101.484266,143.312996 C100.628608,144.157758 99.4359322,144.271408 96.8187585,144.217193 C95.1875348,144.183402 93.0820812,144.043359 90.6201656,143.818893 C87.1883124,143.505993 82.499434,142.952711 81.5445108,142.797321 C77.6156828,142.380758 72.4658165,141.812934 65.834547,141.054276 C64.5626021,140.908757 63.2429951,140.52286 61.6904972,139.899908 C61.0413491,139.639432 60.4168305,139.366571 59.4848626,138.943874 C57.2307008,137.921493 56.8001311,137.735279 55.9602395,137.455561 C54.8261043,137.077848 46.1892528,136.271409 39.8498419,136.133144 C35.8359677,136.045599 32.5569267,136.181981 30.400432,136.561924 C29.8294041,136.66253 29.3595527,136.777887 29.0078651,136.893118 C30.4347624,138.630823 33.8870381,140.254126 38.8799961,141.632235 C41.7493441,142.424205 50.1668754,144.194585 49.4113748,144.013888 C57.5957446,145.971387 67.4017426,146.999257 78.8306887,147.284002 C87.5273617,147.500673 95.92005,147.309486 107.857744,146.770798 C108.614294,146.736659 109.329956,146.501832 110.803576,145.85195 C112.296682,145.192373 112.925562,144.944429 113.776291,144.723944 C114.638973,144.50036 121.543302,142.950409 123.714862,142.366193 C127.938615,141.229873 131.101382,139.963471 133.208721,138.449263 C132.720531,138.34711 132.260073,138.271647 132.003332,138.249301 C129.007373,137.988544 127.239515,138.147598 125.283651,138.742008 C124.872293,138.867025 120.609332,140.419737 118.678794,140.987648 L117.578157,137.246178 C119.356192,136.723129 123.59723,135.178402 124.14961,135.010527 C126.601372,134.265408 128.866926,134.061577 132.341495,134.36399 C133.070154,134.427409 134.462808,134.690989 135.485086,135.002961 C136.277199,135.244693 136.907956,135.517442 137.405209,135.895478 C138.520949,136.743717 138.91455,138.226405 137.871193,139.450977 C135.31741,142.448311 131.012989,144.441442 124.728057,146.132283 C122.456231,146.743474 115.528336,148.298715 114.754736,148.499211 C114.17715,148.648906 113.679267,148.845202 112.550857,149.343705 C110.476147,150.258767 109.423692,150.604103 108.033553,150.666833 C96.0120587,151.209303 87.5420921,151.402251 78.7335529,151.182792 C67.0542748,150.89181 56.9926912,149.83715 48.5041785,147.806908 C49.3646917,148.012721 40.8515392,146.22223 37.8423545,145.391663 C31.1908319,143.555773 26.8154382,141.33559 25.1043885,138.02768 C24.3178824,136.507157 24.781626,134.944346 26.1410146,133.982192 C26.9874396,133.383105 28.1695457,132.994905 29.7237314,132.72108 C32.1879673,132.286918 35.6864321,132.14141 39.9348825,132.234071 C46.6734036,132.381041 55.5563872,133.210462 57.1925523,133.755371 C58.2208141,134.097824 58.6788524,134.295918 61.0957713,135.392118 C61.9793642,135.792874 62.5596536,136.046411 63.1428448,136.280421 C64.3998605,136.784808 65.4103245,137.080302 66.2778393,137.179551 C67.8279588,137.356894 69.2976523,137.523829 70.687527,137.680477 C70.7546118,137.615102 70.8269187,137.554018 70.9042089,137.497905 C71.1990247,137.283869 71.442782,137.201848 71.7164598,137.150453 C72.191,137.103978 72.3921623,137.109694 72.6635189,137.127033 C74.1836104,137.22416 78.8374702,137.805899 83.2531863,138.437166 C85.4175009,138.746575 87.2311197,139.026979 88.3659239,139.230549 C89.068646,139.356609 89.5076265,139.449767 89.7998559,139.548963 C89.8815539,139.576694 89.960666,139.607342 90.0444949,139.646168 C90.1813756,139.709565 90.3091304,139.781533 90.4423872,139.885697 C90.6207411,139.902496 90.7980903,139.918939 90.9742802,139.935003 C93.3530841,140.151891 95.3765505,140.286481 96.8995299,140.318029 C97.7222774,140.335072 98.3782329,140.321175 98.8339036,140.277755 C100.171386,138.674513 99.2651417,135.778518 96.3356629,132.296993 Z M89.0221644,139.526464 C89.0258027,139.526414 89.0283281,139.52635 89.029671,139.526283 C89.0291025,139.526311 89.0285286,139.52634 89.0279491,139.52637 L89.0221644,139.526464 Z" id="Path-7" fill="#FCE36D" fill-rule="nonzero"></path>
                            <path d="M216.17483,131.26583 C214.318103,130.145178 212.061,129.388271 209.453711,129.081722 C203.393576,128.369207 200.350234,128.224241 196.976053,128.724327 C195.063147,129.007837 193.923687,129.309661 193.347917,129.614433 C193.100836,129.74522 193.073853,129.776174 192.885714,130.126718 C192.152836,131.49223 191.507426,132.2195 189.876674,133.082899 C187.762207,134.2024 185.738098,135.345897 183.804588,136.517124 C197.698218,132.441406 202.515856,131.044942 202.882709,130.974156 C202.93844,130.963403 202.93844,130.963403 203.062461,130.947484 C203.154051,130.938253 203.154051,130.938253 203.351234,130.939035 C203.491605,130.946757 203.491605,130.946757 203.742872,130.996549 C204.09467,131.088239 204.09467,131.088239 204.712994,131.580343 C205.029533,131.995668 205.029533,131.995668 205.189418,132.566783 C205.190378,132.583127 205.19131,132.598994 205.192212,132.614409 C207.664624,132.388159 209.637461,132.51481 211.563545,133.137703 C212.021655,133.285855 212.411386,133.530864 212.723041,133.848413 C214.05238,132.892993 215.190498,132.043342 216.17483,131.26583 Z M204.299877,136.63866 C203.726033,136.713851 203.22502,136.788788 202.230312,136.944322 C201.145834,137.113893 200.683823,137.184046 200.138006,137.25727 C200.085872,137.299356 200.010143,137.36654 199.888741,137.478912 C199.261023,138.06052 198.935025,138.313743 198.370644,138.548861 C194.640889,140.102653 190.816623,141.39977 187.525397,142.160207 C182.306783,143.365967 177.053999,144.700441 170.316795,146.509352 C169.720999,147.061805 169.140598,147.62061 168.575609,148.186025 C168.301736,148.460104 167.995823,148.652084 167.657795,148.796016 C167.485812,148.869245 167.353336,148.913796 167.149349,148.973265 C166.613435,149.781125 166.363565,150.47649 166.269471,151.267999 C166.208961,151.777002 166.206127,152.198605 166.238094,153.342566 C166.293747,155.334143 166.250441,156.454847 165.953354,158.050475 C165.720533,159.300932 164.920479,160.007986 163.743578,160.606493 C162.601476,161.187303 161.41388,161.721045 160.183993,162.20892 C160.412089,162.751428 160.649148,163.074158 160.951776,163.306325 C161.723506,163.898374 163.285,164.110772 166.110205,163.729357 C173.189472,162.773626 179.476991,160.576403 185.729154,157.054907 C187.013976,156.331239 188.271704,155.572379 189.54822,154.748586 C188.998822,154.209783 188.730795,153.493297 188.665094,152.707144 C188.616436,152.124913 188.682356,151.519748 188.821796,150.927083 C189.326785,148.780714 190.795302,146.934195 193.073025,145.221773 C194.773596,143.943262 196.8195,142.796058 199.679987,141.420418 C200.490102,141.030824 203.518131,139.62093 204.185583,139.299389 C205.723921,138.558306 206.773011,137.990564 207.527563,137.474277 C208.007489,137.145897 208.470879,136.827685 208.918441,136.519003 C207.64641,136.33927 206.179249,136.392406 204.299877,136.63866 Z M187.643094,160.452971 C180.97415,164.209216 174.218255,166.570116 166.631988,167.594294 C162.876766,168.101265 160.34594,167.757018 158.57791,166.400636 C157.597005,165.648114 156.996418,164.802545 156.506434,163.537371 C155.900195,163.752257 155.117935,164.0272 154.441695,164.260152 C152.082183,165.072959 149.614614,165.881612 147.138129,166.637745 C145.540923,167.125411 143.990485,167.575411 142.502561,167.980136 C135.560789,169.868341 130.622096,170.646941 127.914445,169.873472 C126.997752,169.611609 126.435525,168.960273 126.117759,168.146565 C125.955598,167.731316 125.874566,167.335473 125.812116,166.836368 C125.556321,164.79203 125.526179,163.416051 125.841542,161.965514 C126.794056,157.584351 130.32124,152.998847 134.313927,151.170639 C131.780737,151.245579 128.96654,151.475889 124.218552,151.933239 C118.21209,152.511659 115.456878,152.714288 112.141914,152.738929 C107.72874,152.771734 103.856429,152.367091 100.209527,151.39484 C96.4937908,150.404238 93.4495223,148.273127 90.9557161,145.1566 C88.9478447,142.647349 87.3608511,139.612071 85.9005676,135.81518 C85.7939078,135.569875 85.6902698,135.343661 85.6642422,135.286182 C85.6190582,135.186397 85.5803656,135.099032 85.5434923,135.012844 C85.3160628,134.481248 85.1819816,134.063354 85.1454414,133.58888 C85.0979992,132.972846 85.260298,132.369831 85.6219512,131.905452 L86.110918,129.782307 L87.3865028,129.560477 C89.1279053,129.257641 90.7483054,129.237768 93.347724,129.383644 C93.5508108,129.395041 93.7149513,129.404626 94.0740232,129.425871 C95.1543849,129.489791 95.6256499,129.514414 96.206832,129.532597 C97.7017858,129.579368 98.5511209,129.668474 99.5293239,129.969307 C99.8772942,130.076321 100.183186,130.235936 100.477701,130.441013 C100.655486,130.564809 100.778113,130.664456 101.003,130.857012 C102.995249,131.102531 104.628518,131.098399 108.147052,131.003776 C110.039157,130.952892 110.88373,130.935852 111.947366,130.935852 L111.947366,134.835852 C110.93035,134.835852 110.109042,134.852422 108.251896,134.902366 C104.432589,135.005078 102.721377,135.005078 100.554351,134.829482 C100.054214,134.788955 99.6104026,134.626041 99.1995588,134.374666 C98.9555136,134.225346 98.7838397,134.090873 98.5092536,133.856069 C98.3744466,133.740652 98.3213676,133.696398 98.2850651,133.668192 C97.7642496,133.521618 97.1780289,133.46489 96.0848762,133.43069 C95.4553723,133.410995 94.9603023,133.385128 93.8436797,133.319063 C93.4885245,133.29805 93.3270556,133.288621 93.1292051,133.277518 C91.5022056,133.186213 90.3383569,133.167156 89.3153169,133.245969 L89.216296,133.675928 C89.2377913,133.723398 89.3431254,133.953314 89.3725432,134.018549 C89.4419302,134.172417 89.4939856,134.293919 89.5406344,134.415211 C92.4069032,141.867812 95.8761586,146.203365 101.214164,147.626458 C104.491462,148.500174 108.02507,148.869423 112.112925,148.839037 C115.275222,148.81553 117.951732,148.61869 123.642376,148.070686 C130.514115,147.408767 133.478407,147.202765 137.179881,147.248386 C139.937776,147.282378 142.500641,147.502206 144.928888,147.941042 C155.687084,144.777198 164.585364,142.161241 171.905016,140.010853 C176.585218,136.284047 181.968743,132.856849 188.051814,129.636178 C188.910523,129.181536 189.052902,129.021098 189.449362,128.282407 C190.49914,126.326442 192.033502,125.514259 196.404282,124.866467 C200.226098,124.300038 203.516161,124.456756 209.909113,125.208402 C213.552448,125.636763 216.704679,126.826357 219.230603,128.610505 C220.465414,127.390159 221.323149,126.2754 222.052313,125.042994 C224.193066,121.424771 224.803353,116.939203 224.586101,107.174296 C224.580292,106.913228 224.440078,106.527286 224.133124,105.981736 C223.470369,104.803816 222.87896,103.875943 221.496219,101.791673 C220.785107,100.719782 220.469853,100.239837 220.081035,99.629813 L223.369798,97.5336163 C223.741567,98.1168923 224.048121,98.5835924 224.74608,99.6356579 C226.181479,101.799301 226.807009,102.780708 227.532053,104.069333 C228.125351,105.123807 228.462066,106.050614 228.485136,107.08755 C228.717616,117.536915 228.028615,122.601027 225.408824,127.028903 C224.52152,128.528592 223.524251,129.84252 222.136154,131.234692 C223.737159,133.084296 224.881904,135.2823 225.49682,137.738011 C227.121016,144.224351 224.722877,151.379931 219.040982,156.350888 C215.868979,159.125999 211.834321,160.075501 207.060676,159.61444 C203.685344,159.288434 200.659707,158.451681 195.697759,156.724946 C195.309442,156.589813 194.911818,156.503131 194.128456,156.374215 C191.918491,157.908198 189.823954,159.224613 187.643094,160.452971 Z M160.439329,149.197869 C158.18387,149.815611 156.33675,150.320305 154.722569,150.758953 C155.389722,151.118628 155.90045,151.577238 156.374395,152.245187 C156.40414,152.287109 156.433652,152.329127 156.462932,152.371244 C157.378065,153.687577 158.049148,155.06582 158.576194,156.598897 C158.775269,157.177967 158.949972,157.765741 159.126156,158.430684 C160.110038,158.02892 161.060605,157.595567 161.975722,157.130189 C162.054114,157.090323 162.121092,157.053013 162.175245,157.019941 C162.359111,155.918099 162.383993,155.039565 162.339616,153.451506 C162.302186,152.112075 162.305814,151.572475 162.39674,150.807613 C162.491907,150.007078 162.68415,149.248112 162.994941,148.498092 C162.299794,148.688348 161.471662,148.915126 160.439329,149.197869 Z M153.260744,154.59745 C153.238585,154.565575 153.216246,154.53377 153.193728,154.502034 C152.966924,154.182391 152.457865,153.959288 151.071853,153.621823 C150.996887,153.603591 150.996887,153.603591 150.92079,153.585116 C150.089462,153.383234 149.693256,153.27581 149.207971,153.101128 C148.732406,152.929944 148.251529,152.770921 147.764558,152.6237 C147.695303,152.641944 147.625884,152.660222 147.556275,152.678541 C145.534113,153.210719 144.030455,153.591867 143.020678,153.828677 C142.509959,153.948449 142.118322,154.033087 141.832327,154.084824 C141.65667,154.1166 141.509701,154.138306 141.373178,154.15013 C141.252393,154.16059 141.137184,154.16425 141.006079,154.15603 C140.542916,154.126991 140.167497,154.027911 139.721818,153.587547 C139.708913,153.574796 139.696209,153.561891 139.683707,153.548836 C138.710411,153.835094 137.724009,154.125214 136.724372,154.419234 C133.676045,155.315829 130.421801,159.255669 129.652514,162.794062 C129.45924,163.683045 129.476111,164.669233 129.668537,166.243788 C131.760169,166.445525 135.998251,165.707648 141.478929,164.216869 C142.926194,163.823204 144.438612,163.384239 145.999264,162.907733 C148.428004,162.166178 150.852814,161.371538 153.171474,160.572804 C153.906072,160.319749 154.796914,160.005871 155.438298,159.778089 C154.74731,157.135512 154.331648,156.137844 153.260744,154.59745 Z M201.37024,144.935107 C195.906048,147.562898 193.128492,149.651101 192.618138,151.820271 C192.598937,151.901882 192.583605,151.982169 192.572327,152.057115 C192.750274,152.125291 192.956312,152.185696 193.213002,152.245117 C195.985062,150.253552 199.016442,147.871996 202.702891,144.84389 C203.346831,144.314949 203.960317,143.865129 204.645117,143.406071 C204.661695,143.394957 204.680177,143.382639 204.700338,143.369259 C203.524428,143.921286 201.909797,144.675629 201.37024,144.935107 Z M89.0214917,133.196215 C89.0213288,133.195467 89.0211661,133.19473 89.0210036,133.194004 C89.0210437,133.194183 89.021158,133.194624 89.0213472,133.195317 L89.0214917,133.196215 Z M98.3607681,133.689939 C98.3678087,133.692272 98.3751907,133.694632 98.3829198,133.697009 C98.3803434,133.696216 98.3777661,133.695426 98.3751878,133.694639 L98.3607681,133.689939 Z M207.435612,155.732504 C211.226656,156.098661 214.208358,155.396958 216.473019,153.41566 C221.075366,149.389174 222.974757,143.72176 221.713623,138.685334 C221.256286,136.858926 220.413754,135.218718 219.222401,133.827476 C217.652793,135.098828 215.721149,136.522258 213.279936,138.236443 C213.14742,138.702853 212.977812,139.185927 212.777457,139.69378 C212.390656,140.674233 212.004328,141.495649 211.598921,142.198915 C210.694634,143.7676 209.767683,144.692024 208.28676,145.684971 C208.065771,145.833142 207.088539,146.463321 206.816711,146.645542 C206.230902,147.038243 205.717491,147.414685 205.178351,147.857543 C202.565369,150.003885 200.268215,151.836994 198.150527,153.444403 C202.144757,154.800445 204.718728,155.470095 207.435612,155.732504 Z" id="Path-8" fill="#EDCC7F" fill-rule="nonzero"></path>
                            <path d="M34.5991855,97.277012 C34.6380772,97.0072664 34.6727277,96.7637822 34.703342,96.5454907 C32.5655219,96.4876417 30.3081156,96.5020725 27.770616,96.5790523 C27.4802426,96.5878614 27.2600207,96.5859301 26.77169,96.5754677 C26.6531718,96.5729284 26.5994507,96.571828 26.5346358,96.5706795 C25.7068152,96.5560116 25.3200942,96.6016025 25.0721057,96.7255968 C24.601021,96.9611391 24.1667365,97.3980455 23.4020528,98.3813851 C23.3745743,98.4167209 23.1103942,98.7578911 23.03043,98.8602554 C22.9926359,98.9086367 22.9568709,98.9542014 22.9221103,98.9982291 C20.9884277,101.447424 19.9701989,105.451368 20.4720958,108.816873 C20.9999299,112.356302 22.9933365,114.515955 26.4705761,114.808176 C26.5618525,114.815846 26.6528067,114.823392 26.743476,114.830814 C26.4341224,112.086889 26.5075175,108.974397 26.8202212,105.010919 C26.8930893,104.087327 26.9595632,103.562399 27.1207385,102.946553 C27.3766296,101.9688 27.8187097,101.148926 28.5476478,100.523965 C29.8534915,99.4043896 31.4163376,99.0532137 33.6333686,99.0003676 C33.8780774,98.9945346 34.1166921,98.9908043 34.3530454,98.9893042 C34.4211192,98.5130321 34.5012792,97.9560711 34.5991855,97.277012 Z M26.1439788,118.694476 C20.7380134,118.24017 17.3939747,114.617244 16.614753,109.392117 C15.9563631,104.977237 17.2505745,99.8880574 19.8611327,96.5815338 C20.0308175,96.3649206 20.2912585,96.0285792 20.3233728,95.9872821 C21.4300396,94.5641717 22.176772,93.812931 23.3279726,93.2373307 C24.303344,92.7496451 25.1816983,92.646095 26.6037282,92.6712916 C26.6749356,92.6725533 26.7319297,92.6737208 26.855228,92.6763625 C27.2755293,92.6853674 27.4522296,92.686917 27.6523565,92.6808457 C30.6754593,92.5891342 33.3259718,92.5837308 35.8621103,92.6813932 C36.1298489,92.6877532 36.2012493,92.6900038 36.3167268,92.697244 C36.7034471,92.7214905 37.0314187,92.7776185 37.3851837,92.9253052 C38.163565,93.250257 38.7599479,93.9478946 38.7889103,94.9236067 C38.7981114,95.2335811 38.5377322,97.211312 38.2722249,99.1550179 C39.0830509,99.2184115 40.0098852,99.3012441 41.1200563,99.4057557 C42.9139566,99.5746336 43.707162,99.6434442 44.6895367,99.7068986 L44.4381483,103.598788 C43.4049663,103.532052 42.5864517,103.461046 40.7545261,103.288588 C39.5529111,103.175468 38.5791203,103.089083 37.7422381,103.026067 C37.1908977,107.385374 36.8437573,111.406017 36.755523,115.21267 C38.9124093,115.220523 41.4196971,115.201634 44.5167656,115.164478 C53.5424958,115.056218 57.6032524,115.102421 62.6297512,115.508849 C75.3667842,116.538727 83.9690879,123.354044 85.8170675,135.05521 C86.525635,139.541768 86.0231068,142.524631 83.757715,145.922719 C82.5039505,147.803365 80.5756282,148.852962 78.1630571,149.186615 C76.2957021,149.444866 74.1790626,149.281217 71.688353,148.782086 C70.4661317,148.537156 69.2248409,148.228837 67.6484803,147.79522 C67.1649127,147.662203 65.5935105,147.221014 65.5569625,147.210835 C64.7923735,146.9979 64.2503469,146.853267 63.7674447,146.735808 C55.7017763,144.773951 50.9642689,143.066289 46.3202265,139.89823 C41.3108806,140.060379 37.6444873,137.512655 35.4529355,132.80739 C35.1715535,132.203262 34.9146876,131.565955 34.6814636,130.896334 C34.1108223,130.34655 33.6328714,129.790111 33.1555474,129.133854 C30.269799,125.16633 28.5055521,122.091599 27.5339394,118.803613 C27.076177,118.770334 26.6144332,118.734013 26.1439788,118.694476 Z M33.8278586,102.89697 C33.79411,102.897687 33.7602629,102.898451 33.7263042,102.89926 C32.345944,102.932163 31.5120804,103.119534 31.0861012,103.484751 C30.9355421,103.613834 30.8024403,104.122412 30.7081396,105.317662 C30.3476938,109.886265 30.3151548,112.659771 30.6938646,115.083069 C31.392792,115.11448 32.1076506,115.139673 32.8556987,115.159261 C32.943493,111.297394 33.2854466,107.255044 33.8278586,102.89697 Z M31.7539519,119.028378 C32.0846648,119.880434 32.4896127,120.752604 32.9817419,121.668871 C32.9235485,120.82444 32.8828664,119.954962 32.8589922,119.061132 C32.4832725,119.051608 32.1156102,119.040714 31.7539519,119.028378 Z M64.6891884,142.946298 C65.2227547,143.07608 65.8007409,143.230308 66.60328,143.453812 C66.648585,143.46643 68.2111261,143.905131 68.6828525,144.034891 C70.1782435,144.446236 71.3387151,144.73448 72.4546661,144.958114 C76.7510755,145.819102 79.3821578,145.455229 80.5127189,143.759388 C82.1929489,141.239043 82.5296834,139.240283 81.9648136,135.663601 C80.4190835,125.87624 73.367911,120.289832 62.3154347,119.396162 C57.4487078,119.002653 53.4693374,118.957376 44.657442,119.063071 C41.4612042,119.101416 38.9394508,119.120517 36.7625651,119.112921 C36.8729649,122.852934 37.297994,126.078329 38.0678092,128.68683 C38.7340558,129.243401 39.5883132,129.866276 40.7720495,130.688885 C42.4684517,131.867774 43.2210117,132.423457 44.0972125,133.193472 C45.2448002,134.201986 46.3284256,135.088632 47.4001693,135.880221 C47.4461908,135.853567 47.5119915,135.812618 47.6246404,135.740802 C47.9074802,135.560486 48.046268,135.476885 48.2568485,135.371456 L49.1043851,137.064299 C53.1484512,139.693957 57.4160502,141.177212 64.6891884,142.946298 Z M47.3443538,135.910669 C47.3438952,135.910899 47.343438,135.911129 47.3429819,135.911357 C47.3436204,135.911038 47.3455172,135.910306 47.3486655,135.909265 L47.3443538,135.910669 Z" id="Path-12" fill="#FFF4A1" fill-rule="nonzero"></path>
                            <path d="M17.6698456,88.4865439 C16.5846296,88.3848948 15.8743402,88.3362487 13.6919828,88.2021449 C13.3379448,88.1803896 13.0873948,88.1647592 12.8395062,88.1488346 C10.486918,87.9977022 9.07961657,86.472207 9.10821347,84.2870189 C9.12601001,82.9271244 9.67344876,81.3741173 10.6241735,79.5746939 C11.8268055,77.298489 14.0270333,74.2051979 14.7262879,73.4859405 C17.4811864,70.6522358 20.5210357,67.8590504 23.9952484,64.9277371 C25.0405815,64.0457534 26.0289113,63.507552 27.217754,63.4206157 C29.1091237,63.2823058 30.5987961,63.2901875 33.9206385,63.3942718 C34.0890806,63.3995496 34.0890806,63.3995496 34.2571613,63.4047847 C36.5026606,63.4745154 37.8033018,63.4903716 39.1088486,63.4380943 C39.1782238,63.3772171 39.2856067,63.2833572 39.3277266,63.2478797 C39.4941665,63.1076877 39.6400013,62.9984752 39.8185259,62.8952497 C40.2714323,62.6333727 40.7589091,62.4940245 41.3900937,62.6378394 C42.2479945,62.8333116 42.7533557,63.4567674 42.940034,64.1661056 C44.2452103,69.1255002 43.479045,74.0239424 40.9593555,79.1312869 C39.1059307,82.8881303 36.7214409,86.202216 32.3679814,91.4790697 C32.4531333,91.6214447 32.5356269,91.7661696 32.6154462,91.913254 C33.7235473,92.2889445 34.799065,92.6971977 35.8326301,93.1387957 C41.9767323,95.7639066 46.2124904,99.378331 47.8196714,104.195644 L44.1201315,105.429907 C42.9314227,101.866909 39.5186085,98.9547128 34.3003283,96.7251659 C34.2465746,96.7021992 34.1926795,96.6793264 34.1386448,96.6565473 C34.1657411,96.8389961 34.1902885,97.0236588 34.2122733,97.2105437 C34.6521927,100.950148 34.6470433,105.09512 34.025463,108.732006 C33.4950451,111.835498 32.5447796,114.475969 31.1020903,116.516056 C36.6284178,116.451735 41.5351055,114.793003 44.9407078,111.387401 L47.6984243,114.145117 C42.5344556,119.309086 34.8959687,121.141079 26.6990605,120.180643 C22.5989627,122.040971 17.3312474,121.49472 11.8027868,119.094798 C6.56846105,116.822562 1.5895421,113.03171 -0.923022593,109.442512 C-1.48282946,108.642828 -1.57461388,107.371422 -1.63698344,104.012992 C-1.67192678,102.131389 -1.65918458,99.9568335 -1.60439077,99.6006376 C-0.784520392,94.2709401 2.42072742,90.9616732 7.37380562,89.5387347 C11.0277072,88.4890285 15.3586026,88.4822864 20.596668,89.1858579 C21.7927034,89.3465082 22.9879287,89.5358451 24.1735449,89.7546031 C22.418749,89.1270234 20.2642376,88.7295531 17.6698456,88.4865439 Z M37.4618305,77.4057959 C39.2061668,73.8700722 39.9377396,70.5759607 39.5736074,67.3214831 C38.0399096,67.3942684 36.6402989,67.3806695 34.1361109,67.3029057 C33.9671231,67.2976423 33.9671231,67.2976423 33.7984987,67.2923587 C30.6123033,67.1925247 29.2130293,67.1851213 27.5021892,67.3102297 C27.3259713,67.3231159 26.982034,67.5104092 26.5102181,67.9084965 C23.1282097,70.762014 20.1809157,73.4701543 17.5226136,76.2044994 C17.0924531,76.6469649 15.1074709,79.4376433 14.0724596,81.3965946 C13.4200402,82.6314197 13.0517754,83.6467576 13.0114631,84.2504718 C13.3330688,84.2725023 13.580451,84.2879351 13.931183,84.3094873 C16.1584127,84.4463485 16.8910426,84.4965246 18.0335554,84.6035405 C22.384088,85.0110424 25.5670344,85.7857601 28.20765,87.3672429 C28.7706922,87.7044527 29.2972067,88.0746932 29.786289,88.4785247 C33.6845511,83.7258285 35.8380349,80.6971872 37.4618305,77.4057959 Z M41.8631847,66.2117099 C41.8631678,66.2117226 41.8629234,66.2119182 41.8624587,66.2122936 C41.8623024,66.2123697 41.8627454,66.2120389 41.8631847,66.2117099 Z M20.0774865,93.0511458 C15.3283706,92.4132495 11.4715958,92.4192535 8.45065552,93.2871203 C4.89572754,94.308393 2.82703782,96.4442174 2.25026789,100.193602 C2.26289674,100.111506 2.2626782,100.120219 2.26310652,100.108943 C2.2608835,100.166951 2.25855243,100.251423 2.25635965,100.356279 C2.25149114,100.589084 2.24767756,100.90215 2.24560331,101.256137 C2.24067462,102.097258 2.24580901,103.050203 2.26234421,103.940578 C2.28221008,105.0103 2.3173246,105.938002 2.36767023,106.635394 C2.39248783,106.97917 2.42040638,107.256797 2.44913304,107.452347 C4.58614785,110.347938 8.87326737,113.571467 13.3557737,115.517337 C14.4774087,116.004242 15.5734026,116.398103 16.6322051,116.696359 C16.2410678,115.821542 16.0747592,114.78782 16.0970044,113.636675 C16.127358,112.06594 16.5082105,110.24811 17.1682055,108.226437 C18.1230532,105.301582 19.7313378,101.876153 20.7811856,100.161138 C22.0539283,98.0820042 22.8136802,96.9887356 25.2807467,93.9518312 C23.5719538,93.5859002 21.8259845,93.2860023 20.0774865,93.0511458 Z M30.3389818,97.6661897 C30.2280709,96.7233739 30.044243,95.8715554 29.7830013,95.102265 C29.6746542,95.0696535 29.5659988,95.0373437 29.4570455,95.0053354 C26.1874677,98.9861737 25.4350117,100.028617 24.1074455,102.197309 C23.2122313,103.659718 21.733284,106.809675 20.8756443,109.436767 C19.9846334,112.16608 19.8069045,114.16049 20.1512871,115.018074 C20.5095137,114.975008 20.8303905,114.991199 21.225044,115.104127 C22.8244301,115.561783 24.4152867,115.910363 25.9804607,116.1469 C29.9779769,113.60755 31.301517,105.848373 30.3389818,97.6661897 Z M39.0581028,63.482926 C39.0573817,63.4835563 39.0566635,63.4841839 39.055948,63.4848089 C39.0565357,63.4842956 39.057298,63.4836295 39.0581028,63.482926 Z M2.26316739,100.107344 C2.26314844,100.107835 2.26312948,100.108329 2.26311052,100.108824 C2.26312521,100.108451 2.26314512,100.107921 2.26316739,100.107344 Z" id="Path-13" fill="#FCE36D" fill-rule="nonzero"></path>
                            <path d="M81.4042696,136.376315 L77.704448,137.609733 C77.2459288,136.234337 76.9314913,134.95728 76.3936155,132.474518 C76.3711669,132.370898 76.3451958,132.250864 76.2968709,132.027497 C76.2578769,131.847323 76.2287713,131.713088 76.2001545,131.581557 C76.1269782,131.245216 76.0650034,130.963591 76.0047994,130.694718 C74.6412217,124.60494 73.152043,121.699281 69.926362,120.138388 C63.9935824,117.267542 57.9545855,114.71105 51.850948,112.491626 C46.2231764,110.445237 40.9362397,108.834904 31.6255775,106.216328 C30.6288518,105.936004 29.6013699,105.656324 28.3155989,105.313303 C27.8341083,105.184849 25.6469196,104.605053 25.0572509,104.447465 C16.275252,102.100477 11.8414966,100.438626 7.79022084,97.4397185 C2.57141479,93.576561 -0.466892091,88.0182076 -1.38504712,79.9822342 C-1.85633877,75.8573456 -1.29093172,71.0857836 0.121846287,67.1617679 C0.391868549,66.4117763 0.7187774,65.959317 1.43308121,65.1454665 C1.79677299,64.7311453 1.92297892,64.5708521 2.00772098,64.4183342 C2.41732221,63.6811384 2.72394539,63.0347651 3.36737627,61.5978787 C4.35039401,59.4025858 4.82938399,58.4378978 5.59302052,57.2732791 C8.79786609,52.3855836 12.3472418,47.5443708 16.2387499,42.7224172 C17.8720551,40.6985946 19.0033799,39.6363441 20.6729267,38.9744161 C21.8289319,38.5160928 22.6867439,38.5160928 24.4912428,38.7326995 C25.1526247,38.8120899 25.4293085,38.8371427 25.7263531,38.8371427 L25.7263531,42.7371427 C25.2206697,42.7371427 24.8438691,42.7030246 24.0264349,42.6049022 C22.8733014,42.4664835 22.4467486,42.4664835 22.1103162,42.5998693 C21.2620527,42.9361818 20.5016934,43.6501165 19.2736883,45.1717331 C15.4604859,49.8966584 11.9867289,54.6347303 8.85443497,59.4117776 C8.24242992,60.3451438 7.82521994,61.1854066 6.94500397,63.1511209 C6.23801204,64.7299503 5.89859579,65.4454526 5.4168402,66.3125111 C5.15228974,66.7886462 4.91028916,67.0960093 4.39076914,67.6878514 C3.96886424,68.1685498 3.84044774,68.3462851 3.79126775,68.4828834 C2.58075616,71.8451006 2.08684907,76.0132628 2.48974347,79.5395177 C3.28873486,86.5325346 5.78854647,91.1057515 10.1105902,94.3050915 C13.6400766,96.9177508 17.7454196,98.4565074 26.0641863,100.679696 C26.6490267,100.835994 28.835111,101.415497 29.3208907,101.545095 C30.6221521,101.892249 31.6653912,102.176218 32.6814674,102.461984 C42.0802393,105.10534 47.439717,106.737769 53.1837036,108.826416 C59.4128021,111.091461 65.5738949,113.699639 71.6251198,116.627801 C74.1877229,117.867833 76.0534107,119.829852 77.4040506,122.465196 C78.4266269,124.460429 79.0848698,126.601599 79.8105617,129.84256 C79.8726998,130.120071 79.9362851,130.409014 80.011004,130.752445 C80.0399771,130.885614 80.0693539,131.0211 80.108622,131.20254 C80.15704,131.426337 80.182875,131.545742 80.2051935,131.648762 C80.71372,133.996051 81.0046142,135.177489 81.4042696,136.376315 Z" id="Path-15" fill="#FFF4A1" fill-rule="nonzero"></path>
                            <path d="M34.1332628,46.1443556 L36.7711585,49.0168992 C34.685291,50.9323796 32.79119,52.2452941 28.921384,54.6462482 C28.7589691,54.7469981 28.7589691,54.7469981 28.5969184,54.8474984 C23.8540786,57.7890756 21.8199495,59.2734581 19.6995943,61.6428417 C16.9936197,64.6666237 15.7591565,69.9720507 15.631982,76.5314389 C15.5545656,80.5244085 15.3430001,84.0862886 14.9743393,88.4573053 C14.9218736,89.0793633 14.6092887,92.635679 14.535516,93.5509271 C14.3985218,95.2505218 14.3252957,96.4963722 14.3063616,97.5788117 C14.2649595,99.9457163 14.497598,101.475792 15.0512068,102.555073 C16.1721346,104.740365 19.271237,105.962416 26.9017119,106.861232 L26.4454737,110.734454 C17.5988301,109.692382 13.5000534,108.076136 11.5810897,104.335042 C10.6758802,102.570301 10.3553314,100.462035 10.4069581,97.510603 C10.4275975,96.3306726 10.5051169,95.011777 10.6481238,93.2375875 C10.7232647,92.3053643 11.0367519,88.7387835 11.0881372,88.1295347 C11.4502972,83.8355956 11.6571572,80.3529356 11.7327148,76.4558392 C11.8766163,69.0337093 13.2907536,62.9560861 16.793385,59.0420827 C19.2399977,56.3081237 21.4909162,54.6655416 26.5413407,51.5331961 C26.7034756,51.4326435 26.7034756,51.4326435 26.8652836,51.3322701 C30.5353604,49.0552344 32.2813832,47.8449618 34.1332628,46.1443556 Z" id="Path-16" fill="#FFF4A1" fill-rule="nonzero"></path>
                        </g>
                        <path d="M75.4741538,63.3792494 C82.7412583,56.5284124 144.220589,29.3947382 170.390531,28.6255431 C178.854733,28.3767606 173.069444,20.4519006 185.955234,20.4519006 C227.220727,20.4519006 277.907787,40.4752896 277.907787,89.4 C277.907787,103.91461 260.054833,107.073909 247.344506,114.667099 C207.732496,138.33144 176.712186,143.364893 160.879283,141.3 C144.687891,139.188354 155.760069,125.116994 147.788134,124.318953 C128.82665,122.420789 128.82665,136.044745 107.622951,127.512187 C86.3454059,118.949913 115.193451,116.776715 110.782883,114.667099 C98.381816,108.73555 80.7875337,106.502939 78.6340862,105.971734 C70.003327,103.842728 84.5590935,96.9489959 84.236121,92.5956738 C83.9131484,88.2423516 68.2070493,70.2300865 75.4741538,63.3792494 Z" id="Rectangle-9" fill="#A03209"></path>
                        <path d="M214.205917,66.7519408 C222.67489,66.7519408 190.084607,36.3107651 202.970397,36.3107651 C244.23589,36.3107651 277.907787,40.4752896 277.907787,89.4 C277.907787,103.91461 260.054833,107.073909 247.344506,114.667099 C207.732496,138.33144 176.712186,143.364893 160.879283,141.3 C144.687891,139.188354 155.760069,125.116994 147.788134,124.318953 C128.82665,122.420789 164.492484,66.7519408 214.205917,66.7519408 Z" id="Rectangle-9-Copy" fill="#530707"></path>
                        <g id="Balls" transform="translate(90.300000, 14.100000)">
                            <path d="M125.11713,3 C134.532724,3 140.391057,3 142.69213,3 C148.648434,3 158.401252,7.65264825 155.742751,13.7135655 C160.806246,10.793624 165.152887,18.6625835 168.782674,37.3204438 C168.782674,50.1833211 163.906029,58.4431732 154.15274,62.1 C139.522805,67.5852402 117.371666,64.7912133 106.492126,57.2088108 C95.6125847,49.6264083 98.2141825,33.6144073 99,23.6617723 C99.7858175,13.7091374 118.284611,3 125.11713,3 Z" id="Rectangle-8" fill="#CAA989"></path>
                            <path d="M13.9464793,3.18409232 C17.0893087,1.74588251 20.7132651,3.18409232 23.4861767,3.18409232 C24.5024769,3.18409232 29.8617543,-1.2295843 34.5855241,0.6 C41.2573441,3.18409232 45.035975,0.518338017 49.7868029,1.53857548 C54.5376308,2.55881294 55.8656043,3.50385344 57.9146163,5.60990865 C59.9636282,7.71596387 64.4969307,13.0920653 67.6894492,24.0960328 C69.8177949,31.4320111 70.2546451,38.0063306 69,43.8189912 C59.5820316,53.9259698 49.9660547,57.0083037 40.1520694,53.0659931 C34.328166,50.7265117 26.9406635,48.5677524 20.7658326,48.2593815 C11.3326523,47.7882886 3.78337642,49.4077005 1.5387715,43.8189912 C-2.17512112,34.5719893 2.48522105,20.2573809 3.81455246,16.0475242 C5.14388387,11.8376674 10.8036498,4.62230213 13.9464793,3.18409232 Z" id="Rectangle" fill="#C9A077"></path>
                            <path d="M13.9464793,3.18409232 C17.0893087,1.74588251 20.7132651,3.18409232 23.4861767,3.18409232 C24.5024769,3.18409232 26.3099374,14.3900083 28.3632413,21.6137537 C30.4165452,28.8374992 26.9406635,48.5677524 20.7658326,48.2593815 C11.3326523,47.7882886 3.78337642,49.4077005 1.5387715,43.8189912 C-2.17512112,34.5719893 2.48522105,20.2573809 3.81455246,16.0475242 C5.14388387,11.8376674 10.8036498,4.62230213 13.9464793,3.18409232 Z" id="Rectangle" fill="#E1B77B"></path>
                            <path d="M125.11713,3 C134.532724,3 140.391057,3 142.69213,3 C148.648434,3 158.401252,7.65264825 155.742751,13.7135655 C160.806246,10.793624 165.152887,18.6625835 168.782674,37.3204438 C168.782674,50.1833211 163.906029,58.4431732 154.15274,62.1 C139.522805,67.5852402 117.371666,64.7912133 106.492126,57.2088108 C95.6125847,49.6264083 98.2141825,33.6144073 99,23.6617723 C99.7858175,13.7091374 118.284611,3 125.11713,3 Z" id="Rectangle-8" fill="#CAA989"></path>
                            <path d="M154.15274,62.1 C139.522805,67.5852402 117.371666,64.7912133 106.492126,57.2088108 C107.989063,53.1463989 102.832869,51.6579169 121.215473,47.0412886 C126.377441,45.7449061 137.992828,48.3755366 150.584294,48.3755366 C153.728077,48.3755366 168.782674,56.6147598 154.15274,62.1 Z" id="Rectangle-8" fill="#754D1D"></path>
                            <path d="M38.4936612,52.5032517 C46.2646373,48.916064 59.9826599,44.7 66.2950471,44.7 C72.2212367,44.7 79.5107708,47.6063058 85.0373585,50.0321622 C89.3184668,51.9113243 92.1663144,52.9572817 94.877477,55.5873736 C98.5412027,59.1415446 98.5558176,62.0712613 100.46176,66.2604578 C103.316008,72.5339987 107.090094,80.1315084 107.090094,84.8536682 C107.090094,92.7180354 101.749508,98.1175221 97.0199305,102.539338 C93.7984391,105.551201 91.4068788,108.693651 89.042925,109.568355 C85.6003567,110.842165 79.9669339,108.760177 72.2496284,109.568355 C66.887449,110.129898 59.6574839,114.13584 55.0455368,113.1 C48.0109551,111.520038 48.1268067,104.32597 42.4764761,102.539338 C28.3615624,98.0762089 25.5,93.9139083 25.5,84.8536682 C25.5,75.7441327 29.5196916,66.2089361 31.0791288,63.2584949 C34.1714607,57.4078305 36.2410786,53.5430743 38.4936612,52.5032517 Z" id="Rectangle-2" fill="#C99663"></path>
                            <path d="M28.7445496,70.5668526 C25.5625747,73.0280183 24.7818537,80.9835361 26.4023865,94.4334059 C33.5017655,99.9898813 38.879916,102.768119 42.536838,102.768119 C45.9890887,104.391075 48.8570693,111.119264 55.0455368,113.1 C57.2964928,113.820461 58.4011774,91.7553317 59.4012271,80.4082351 C60.2753041,70.4904911 54.6249677,69.538718 57.3598923,68.921145 C60.3510759,68.245706 45.5627083,57.9085743 36.6608839,58.309996 C30.8722408,58.5710309 28.7445496,68.921145 28.7445496,70.5668526 Z" id="Rectangle-2-Copy-2" fill="#E1BE92"></path>
                            <path d="M94.3756752,73.2161639 C97.2299236,79.4897048 107.090094,80.1315084 107.090094,84.8536682 C107.090094,92.7180354 101.749508,98.1175221 97.0199305,102.539338 C93.7984391,105.551201 91.4068788,108.693651 89.042925,109.568355 C85.6003567,110.842165 79.9669339,108.760177 72.2496284,109.568355 C66.887449,110.129898 59.3376368,114.913729 55.0455368,113.1 C46.688072,109.568355 58.4011774,91.7553317 59.4012271,80.4082351 C60.2753041,70.4904911 54.6249677,69.538718 57.3598923,68.921145 C62.2961708,67.8064843 70.089884,64.6388257 77.8958467,63.7160572 C88.7226623,62.4361837 93.2682028,70.7819774 94.3756752,73.2161639 Z" id="Rectangle-2-Copy" fill="#A67338"></path>
                        </g>
                        <g id="Noodle-on-top" transform="translate(46.200000, 30.900000)" fill-rule="nonzero">
                            <path d="M37.1652297,2.77583064 C36.3944709,3.14421906 35.5983002,3.59707238 34.4642469,4.2937307 C34.3361812,4.3724025 33.1966348,5.07852384 32.8668658,5.27910961 C32.247713,5.65571631 31.7517723,5.94246182 31.2831949,6.18909521 C30.756394,6.4663742 30.2872396,6.61439776 29.3916027,6.84063025 C29.3620035,6.84810683 29.1797545,6.89398425 29.12776,6.90714864 C29.0305865,6.93175183 28.9521309,6.9519106 28.8781047,6.97137957 C28.2356349,7.14034992 27.8790454,7.27998456 27.6817689,7.42789863 C26.8284688,8.06768636 26.0152111,8.89000985 25.2370713,9.88067457 C23.8246268,11.6788849 23.4327817,14.2878732 23.68835,18.6401421 C23.7246943,19.2590773 23.7645939,19.8105849 23.8452494,20.8509627 C24.1590334,24.8984738 24.199397,26.4533911 23.8681028,28.3284002 C23.7663689,28.9041778 23.7492241,29.3971938 23.7663731,30.5182761 C23.7872323,31.8819037 23.7645048,32.483377 23.5943076,33.2964465 C23.34843,34.4710583 22.815818,35.4949071 21.9231016,36.388408 C18.0856501,40.2292317 11.6209191,42.401862 6.40070653,41.6269959 C0.067637887,40.6869423 -3.1903989,35.7546773 -1.36556019,28.2306714 C-0.917509833,26.3833118 0.305874943,24.1219472 2.3369069,21.0539146 C2.6634952,20.5605775 3.01133368,20.0459387 3.3978422,19.4827826 C3.8803424,18.7797633 5.4481026,16.531963 5.64104506,16.2525971 C6.41970992,15.12515 6.92552151,14.3585422 7.27590369,13.7629931 L10.637301,15.74062 C10.2261267,16.4394982 9.67920957,17.2684056 8.85009076,18.4689061 C8.64892088,18.7601847 7.08565334,21.0015435 6.61336754,21.6896801 C6.23841282,22.236002 5.90247988,22.7330261 5.58889304,23.2067235 C3.80330476,25.9039942 2.73114252,27.8858316 2.42455863,29.1499099 C1.13644292,34.4609492 2.92481161,37.1683183 6.97333189,37.7692634 C10.9640871,38.3616341 16.1950421,36.6036442 19.1641743,33.631903 C19.7839809,33.0115517 19.895879,32.4769895 19.8668293,30.5779269 C19.8459907,29.2156461 19.8692859,28.5457726 20.0275908,27.6498224 C20.2783687,26.2305077 20.2420087,24.8298182 19.9569166,21.1524064 C19.8744577,20.0887662 19.8332474,19.5191413 19.7950565,18.8687591 C19.4875629,13.6322148 19.9973841,10.2377169 22.1700694,7.47162936 C23.1469907,6.22789192 24.1968231,5.16635659 25.3422072,4.30756992 C26.047294,3.77890956 26.7911673,3.48762092 27.8861336,3.19964347 C27.9733304,3.17671059 28.0627037,3.15374659 28.1705306,3.12644607 C28.2257018,3.11247738 28.4094083,3.06623309 28.4364851,3.05939366 C29.0308501,2.90926061 29.3064468,2.82230672 29.4667049,2.73795566 C29.851717,2.53530646 30.283913,2.28541719 30.8401287,1.94709271 C31.1533171,1.75659231 32.2823984,1.05695568 32.4228619,0.970667776 C33.6640221,0.208212826 34.5615825,-0.302309928 35.4834278,-0.742910941 C37.5555151,-1.73327648 39.3756663,-2.15569763 41.1314137,-1.83570891 C43.2973563,-1.44096123 45.0057708,0.0564966472 46.1873954,2.58534761 C46.5863213,3.43910784 46.4743016,4.29861737 46.0737498,5.13703788 C45.8283856,5.65062528 45.4638916,6.17153931 44.9770363,6.74505538 C44.2738794,7.57337481 43.4126718,8.41768463 41.9207162,9.7922719 C41.8402619,9.86639712 41.7560584,9.94385891 41.6599275,10.0321992 C39.1893179,12.3025865 38.3352568,13.1597431 38.087433,13.6553906 C38.0446586,13.7409394 36.6597354,15.7462652 36.1161697,16.7244277 C34.3657755,19.8743134 33.839103,22.8908969 35.0873459,25.6813457 C35.9781793,27.672805 36.8627384,28.0261299 37.9444874,27.4538164 C39.2071524,26.7857869 40.2561957,25.0519419 40.2561957,23.5470751 L44.1561957,23.5470751 C44.1561957,26.4999806 42.3055296,29.5587372 39.7683107,30.9010861 C36.6131438,32.5703686 33.3055852,31.24921 31.5272997,27.2738502 C29.6846822,23.1546761 30.4192834,18.9471549 32.7071666,14.8300418 C33.1266959,14.0750864 33.5590891,13.3939326 34.053808,12.677595 C34.1352666,12.5596455 34.2138859,12.4471925 34.3099651,12.3107874 C34.3663617,12.2307837 34.3663617,12.2307837 34.4176645,12.1580724 C34.4572385,12.1019615 34.4841782,12.0636747 34.5087848,12.0285318 C34.5646206,11.9487876 34.6021478,11.8941001 34.6265169,11.8570694 C35.1875467,10.7458151 35.9479016,9.9846529 39.0210275,7.16057828 C39.1160129,7.07329069 39.1990255,6.99692441 39.2781264,6.92404616 C40.6537649,5.65662557 41.4376506,4.88812058 42.0038534,4.22113312 C42.166803,4.02917829 42.2973413,3.86040288 42.3937425,3.72124589 C41.2409063,1.62466972 39.8438951,1.49554774 37.1652297,2.77583064 Z" id="Path-6" fill="#FFF4A1"></path>
                            <path d="M238.725601,37.0735353 C237.259786,36.2739362 236.605477,35.9890047 235.881589,35.8891808 C235.294802,35.808263 234.915389,35.72126 233.728073,35.421954 C233.501105,35.3647383 233.350156,35.3272171 233.199102,35.2907873 C232.308926,35.0761044 231.734967,34.9881478 231.331065,35.0088224 C231.288303,35.0110112 231.250782,35.0142492 231.218299,35.0181456 C231.214291,35.0553961 231.210354,35.0950525 231.206533,35.1369821 C231.167917,35.5606933 231.146172,36.153749 231.142663,36.8873413 C231.135992,38.2816677 231.195073,40.1321877 231.307536,42.2142767 C231.314824,42.3491974 231.322312,42.4845121 231.329986,42.6200743 C233.172344,42.0247531 235.209513,41.6461304 237.416316,41.4919976 C238.879749,41.389785 240.306325,41.327118 241.673826,41.3132109 C240.952709,39.239484 239.922138,37.7262439 238.725601,37.0735353 Z M227.413213,42.4246273 C227.113496,36.8758065 227.127262,33.998173 227.839684,32.8977315 C228.587067,31.7432875 229.753649,31.1844597 231.131696,31.1139216 C232.010382,31.0689443 232.882204,31.2025471 234.113447,31.4994852 C234.280439,31.5397585 234.442475,31.5800358 234.681386,31.6402619 C235.706942,31.8987905 236.028563,31.9725411 236.414356,32.025742 C237.768244,32.2124427 238.710422,32.6227322 240.593239,33.6498052 C243.088318,35.0108661 244.831391,37.8321778 245.795256,41.4441865 C248.096475,41.6327727 250.102493,42.0304775 251.663246,42.6995398 C261.388138,46.868396 271.454871,61.8699613 271.454871,72.3521203 L267.554871,72.3521203 C267.554871,63.4425564 258.429037,49.8431307 250.126635,46.2840659 C249.208062,45.8902926 247.969902,45.6152728 246.513671,45.443277 C246.959899,49.8090305 246.369871,54.1852582 244.843067,56.7304423 C243.362267,59.1989381 241.766285,60.89018 238.168594,64.187734 C237.796086,64.529166 237.373862,64.7462076 236.905362,64.8837485 C236.633397,64.9635915 236.444688,64.9976986 236.054951,65.0544779 C235.932973,65.0722613 235.864366,65.0830159 235.816593,65.091575 C235.569949,65.3045214 235.325206,65.596897 234.851761,66.2215395 C234.315757,66.928711 234.053466,67.2509263 233.665719,67.6386733 C232.984096,68.3202963 232.584833,68.6838153 232.239049,68.9126347 C231.807333,69.1983188 231.370297,69.3661394 230.769725,69.306342 C230.528205,69.7417282 230.22031,70.1465353 229.722502,70.4231277 C228.958626,70.847553 228.231374,71.2168491 227.463329,71.5645882 C228.338748,72.1164323 229.383666,72.5744565 230.586025,72.9369507 C232.26633,73.4435388 234.174931,73.7203556 236.021112,73.7787265 C236.050952,73.7085247 236.081003,73.6381162 236.111311,73.5673829 C237.235056,70.9448182 238.252715,69.0547354 240.35264,65.4801236 C240.60929,65.0434034 240.736835,64.8262852 240.864831,64.6079047 C242.061291,62.566561 242.792355,61.255126 243.533743,59.7713725 C244.215495,58.4069703 244.364821,58.1341127 244.721595,57.804455 C245.048211,57.5026639 245.423008,57.2888333 246.018734,57.2734317 C246.09895,57.2713579 246.177108,57.2735814 246.253147,57.279815 C246.377655,57.0888571 246.493964,56.8982739 246.604486,56.7056708 C246.80046,56.3641536 247.334242,55.3151908 247.4181,55.1649721 C248.31929,53.5506279 249.51243,52.8811375 251.819592,52.7271105 C253.105752,52.641246 254.367755,52.6397602 255.59817,52.7277462 C255.976572,52.7548054 256.650007,52.885558 257.205968,53.070707 C257.660397,53.2220434 258.063246,53.4103487 258.420393,53.6726907 C259.069897,54.1497842 259.51632,54.8345419 259.51632,55.7273237 C259.51632,62.1898966 247.601593,76.0422955 241.082768,77.3043968 C240.32473,77.4511597 239.515103,77.5566192 238.673781,77.6198395 C238.304619,78.5750885 237.886625,79.6993615 237.334643,81.2059985 C237.16568,81.6673174 237.07929,81.9031385 236.996003,82.1301513 C234.426666,89.1332922 232.852143,92.5974683 230.297825,95.9807955 C226.860542,100.533655 222.37939,103.259848 216.375733,104.010404 C213.799864,104.33243 211.155398,104.203216 208.669492,103.622895 C206.769431,103.179336 205.077624,101.791294 203.522312,99.7406073 C202.395389,98.2547539 201.382762,96.4554075 200.65315,94.7774533 C199.294263,91.6522995 198.581736,83.51053 199.572546,80.9951505 C200.482407,78.6852757 202.331753,77.3208767 205.514321,75.9044739 C205.925369,75.7215367 207.3391,75.1187499 207.613796,74.997156 C208.142446,74.763149 208.536925,74.5721039 208.858093,74.39148 C211.494536,72.9087518 213.811027,72.0445853 218.53709,70.5793836 C218.689766,70.5320605 218.689766,70.5320605 218.842177,70.4848382 C219.647969,70.2351698 220.37482,70.0064224 221.037926,69.7921575 C220.822152,69.2335715 220.654419,68.6456012 220.537663,68.0282346 C220.146308,65.958885 220.0317,63.8578702 220.074926,61.0277073 C220.084096,60.4272691 220.095972,59.944292 220.125364,58.884716 C220.14084,58.3267954 220.147228,58.0895297 220.154615,57.7869663 C220.306001,51.5865374 222.980632,47.030477 227.526213,44.3206466 C227.48525,43.6903868 227.447222,43.0542416 227.413213,42.4246273 Z M219.996426,74.2101179 C219.844069,74.2573235 219.844069,74.2573235 219.691963,74.30447 C215.220948,75.6905999 213.091986,76.4848091 210.769846,77.790774 C210.321645,78.042841 209.82494,78.2833941 209.19239,78.5633923 C208.883877,78.6999555 207.474954,79.3006923 207.100064,79.4675373 C204.791477,80.4949747 203.621093,81.3584527 203.201187,82.4244745 C202.630633,83.8729462 203.252087,90.9740634 204.229671,93.2223017 C205.655909,96.5023484 207.878997,99.4334997 209.556088,99.8250076 C211.588241,100.299403 213.768833,100.405951 215.891935,100.140528 C220.817268,99.5247803 224.365062,97.366413 227.185269,93.6309024 C229.431656,90.6554469 230.896171,87.4333038 233.334642,80.7868584 C233.417551,80.5608768 233.503557,80.326103 233.672671,79.8643716 C233.989385,78.9999019 234.263357,78.2575088 234.510234,77.5981041 C232.778925,77.4561155 231.047092,77.149344 229.46028,76.6709428 C226.922813,75.9059325 224.80184,74.7399985 223.24584,73.17254 C222.302008,73.4875866 221.235771,73.8261167 219.996426,74.2101179 Z M224.053453,57.8821577 C224.045925,58.190512 224.039461,58.4305704 224.023864,58.9928551 C223.99492,60.0363225 223.983313,60.5083562 223.974471,61.0872656 C223.934917,63.6770439 224.036668,65.5423685 224.369735,67.3035134 C224.448124,67.7180058 224.56657,68.1137056 224.723931,68.4904511 C225.492587,68.1821354 226.176303,67.8737389 226.849335,67.5337994 C226.971869,67.0991985 227.241043,66.6949768 227.69342,66.3932599 C228.626456,65.7709621 229.302129,65.4139344 229.889855,65.2608415 C230.137018,65.1964595 230.380336,65.1668723 230.615246,65.1705238 C230.70352,65.084365 230.80093,64.9880295 230.908003,64.8809568 C231.12855,64.6604099 231.314382,64.4321214 231.725022,63.8903482 C232.499519,62.8685111 232.895592,62.4127001 233.555101,61.905571 C233.904487,61.6369103 234.282998,61.4638425 234.69782,61.3494071 C234.945459,61.2810919 235.130217,61.2480701 235.47325,61.198054 C235.583176,61.1820386 235.647994,61.1720994 235.695229,61.1642172 C238.902092,58.2181979 240.295889,56.7292377 241.498667,54.724205 C242.58517,52.913003 243.052124,49.0277719 242.562305,45.2194328 C241.019774,45.2069452 239.371641,45.2649301 237.688047,45.3825197 C235.391551,45.5429171 233.356708,45.9670204 231.605484,46.651012 C231.776945,48.7930928 231.962688,50.576118 232.095204,51.2720441 C231.95419,50.5314895 231.448921,50.0610049 230.880802,49.8769783 L230.880802,53.5868023 C230.996717,53.5868023 231.074887,53.5767906 231.14071,53.5633557 C230.984239,53.6037581 230.93176,53.6166046 230.848926,53.6335116 C230.679986,53.6679933 230.517161,53.6888472 230.328902,53.6888472 C229.396058,53.6888472 228.477006,53.1199765 228.264042,52.0015604 C228.150433,51.4049279 228.0157,50.2716028 227.882038,48.8554795 C225.474857,50.9525694 224.148968,53.9700996 224.053453,57.8821577 Z M255.500581,56.6506704 C255.43574,56.6381229 255.375039,56.6277963 255.324471,56.6203465 C254.273484,56.5429776 253.190757,56.5442524 252.079379,56.6184484 C251.021171,56.6890948 251.039571,56.6787702 250.823427,57.0659585 C250.792595,57.1211886 250.244755,58.1977772 249.987126,58.6467389 C249.496711,59.5013701 248.919695,60.3262468 248.162707,61.2091769 C247.87051,61.5499886 247.610721,61.8025031 247.322516,61.9961784 C247.09908,62.1463284 246.856545,62.2655679 246.603087,62.338696 C245.947434,63.6033018 245.247494,64.8431066 244.22949,66.5799772 C244.100352,66.8003064 243.971664,67.0193693 243.715329,67.4555534 C242.172222,70.082318 241.250298,71.7379405 240.437058,73.4556168 C244.904855,72.4635179 254.349406,61.7162098 255.500581,56.6506704 Z M247.603654,60.4001364 C247.604925,60.3982032 247.606024,60.3964956 247.606972,60.3949938 C247.606576,60.3956208 247.606167,60.3962718 247.605746,60.3969467 L247.603654,60.4001364 Z" id="Path-9" fill="#F7D974"></path>
                            <path d="M227.703234,26.8873831 C227.708786,27.0992234 227.761001,27.3092917 227.848035,27.4833601 C230.00241,31.7921103 232.278754,34.9972329 237.407435,41.4225251 C237.451958,41.478304 237.804974,41.9204959 237.908734,42.0505075 C242.043328,47.2311755 244.021197,49.9126485 246.043009,53.3490896 C246.234107,53.6738961 246.437602,53.9873336 246.661944,54.3057403 C246.741995,54.4193545 246.823216,54.5316834 246.909054,54.6475244 C246.933742,54.6284506 246.958163,54.609426 246.982319,54.5904498 C246.993664,54.5612238 247.007143,54.5135497 247.01992,54.4452845 C247.067314,54.1920493 247.073273,53.8343795 247.040693,53.2374282 C247.035794,53.1476569 247.031078,53.0679577 247.021553,52.9115045 C246.977227,52.1834114 246.965191,51.8758167 246.97947,51.462217 C247.139736,46.8199817 247.126718,42.0341995 246.978853,35.7758957 C246.863696,30.901975 245.836536,28.3312252 244.161243,27.2781712 C242.86019,26.4603568 241.105498,26.3715672 237.745187,26.8083576 C237.514561,26.8383355 237.306455,26.8661873 236.92365,26.9179926 C233.846851,27.3343786 232.575302,27.4340725 230.981121,27.2356253 C229.727839,27.0796139 228.621898,26.7037548 227.682272,26.0812077 C227.688743,26.3325378 227.695711,26.6003327 227.703234,26.8873831 Z M243.473812,56.552029 C243.190169,56.1494567 242.928923,55.7470682 242.681626,55.3267413 C240.781875,52.0977661 238.88381,49.5244854 234.860494,44.4832501 C234.75696,44.3535207 234.40407,43.9114871 234.359376,43.8554926 C229.065573,37.2233338 226.674021,33.8559965 224.359769,29.2274931 C224.016617,28.5411886 223.825037,27.7704394 223.804907,27.0023026 C223.742131,24.6068432 223.717489,23.5381425 223.699268,22.2038078 C223.691116,21.6067917 223.686066,21.0304953 223.684344,20.471364 C222.915821,19.1311331 222.135823,17.7900555 221.819009,17.3050572 C219.693973,14.0519204 217.858263,13.0584818 213.214796,13.0584818 L213.214796,9.15848175 C218.443181,9.15848175 221.442691,10.4342708 224.021045,13.6876324 C224.539676,12.0916475 225.909809,11.45884 227.555454,11.7422512 C227.660241,11.7602974 227.750753,11.7780221 227.89193,11.8070863 C228.095918,11.8490813 228.150312,11.8593876 228.193039,11.8646383 C228.056337,11.8641106 227.964271,11.8747809 227.856849,11.9021796 C227.492828,11.9950256 227.147597,12.2381695 226.933606,12.5926535 C226.849178,12.7325107 226.797465,12.8686029 226.770308,12.9935789 C226.760645,13.0380501 228.054346,13.0851368 230.651411,13.1348388 C230.651411,14.3432452 230.029911,15.3727827 228.820712,15.6811966 C228.442629,15.777629 228.093754,15.7817747 227.717356,15.73552 C227.619361,16.9051574 227.591612,18.1221469 227.585168,19.4359014 C228.387167,20.8413204 229.037158,21.9974985 228.955394,21.856685 C229.925914,23.5281045 231.470666,23.7203987 236.400628,23.0532226 C236.789882,23.0005444 237.003129,22.9720047 237.242474,22.9408933 C241.469259,22.3914743 243.912097,22.5150849 246.236729,23.9762998 C249.224969,25.854644 250.734812,29.6334427 250.877764,35.6837756 C251.027263,42.0111653 251.040468,46.8660734 250.877147,51.5967785 C250.868722,51.8408396 250.877951,52.0766974 250.914345,52.6745127 C250.924349,52.8388333 250.929419,52.9245076 250.934898,53.0248928 C250.983348,53.9126361 250.973188,54.522479 250.853359,55.162739 C250.667783,56.1542932 250.221832,57.0001412 249.435641,57.6225352 C249.365042,57.6784257 249.293155,57.7342946 249.21996,57.7901675 C249.946927,59.0219598 250.351212,60.2517924 250.516622,61.8649295 C250.71575,63.8068822 250.73342,65.676171 250.639346,68.517102 C250.628832,68.8346174 250.619801,69.0893502 250.599276,69.6556925 C250.557628,70.804917 250.540923,71.3109455 250.526266,71.9405377 C250.399545,77.3835146 249.789764,81.524989 248.285575,84.9622507 C246.25911,89.5929781 242.703587,92.382649 237.496532,92.798555 C235.116519,92.9886551 233.930601,93.0111732 232.471347,92.7809138 C229.580705,92.324792 226.610049,91.6016814 223.420482,90.611716 C222.514771,90.3306049 221.885744,89.8225719 221.144805,88.9992101 C221.094723,88.9435567 221.038123,88.882836 220.97055,88.8121227 C220.930045,88.769735 220.886414,88.7245886 220.830986,88.6676267 C220.803639,88.6395237 220.700405,88.5336917 220.677497,88.510163 C219.61096,87.4147263 219.115562,86.7212277 218.916936,85.5692405 C218.464661,82.9461398 218.481706,80.136037 218.909332,77.2282647 C219.448067,73.5649857 221.454831,70.3817354 224.71826,67.5120165 C227.257763,65.2788871 230.396112,63.3322625 234.700344,61.1356262 C235.590989,60.6810917 236.503073,60.2291254 237.682705,59.6543798 C237.735806,59.6285076 239.920059,58.5681322 240.522845,58.2723652 C241.751747,57.6693848 242.742958,57.1668287 243.587868,56.7123241 C243.549672,56.6591677 243.511729,56.6058444 243.473812,56.552029 Z M242.240785,61.7736054 C241.629277,62.0736519 239.43748,63.1376895 239.390913,63.1603781 C238.231068,63.7254831 237.338755,64.1676522 236.473162,64.6094016 C227.864472,69.0027898 223.496012,72.8442252 222.76783,77.7957085 C222.397174,80.316095 222.382614,82.7165084 222.760227,84.9065801 C222.779171,85.0164554 222.94461,85.2480499 223.471827,85.7895525 C223.492881,85.8111774 223.596629,85.9175355 223.626078,85.9477996 C223.68904,86.0125042 223.740328,86.0655731 223.790174,86.1177359 C223.882801,86.2146676 223.96513,86.3029896 224.043804,86.3904164 C224.348067,86.7285256 224.524146,86.8707352 224.576546,86.8869989 C227.597185,87.8245333 230.388656,88.5040272 233.079217,88.9285776 C234.136323,89.0953811 235.107734,89.076936 237.186014,88.9109364 C240.886204,88.6153891 243.236967,86.7709749 244.712709,83.3987197 C245.965085,80.5368825 246.511468,76.82599 246.627322,71.8497646 C246.642503,71.1977114 246.659576,70.6805267 246.701835,69.5144492 C246.722212,68.9521532 246.731147,68.7001428 246.741483,68.3880286 C246.83018,65.7094791 246.81391,63.9883692 246.636965,62.2627489 C246.539169,61.3090099 246.333295,60.6113458 245.923343,59.881278 C244.919138,60.4358651 243.745615,61.0352364 242.240785,61.7736054 Z" id="Path-10" fill="#E5C585"></path>
                            <path d="M128.644559,122.115143 C127.286748,122.464279 126.205219,122.676829 123.788233,123.103814 C121.785617,123.457602 120.894649,123.628328 119.828497,123.880101 C119.131047,124.044804 118.533824,124.188958 117.796596,124.371765 C118.179143,127.954155 120.145682,129.988532 123.457381,130.840028 C127.635455,131.914285 133.801297,130.955663 139.335684,128.613587 C139.766307,128.431354 140.240702,128.171076 140.755184,127.836639 C140.386249,127.384261 140.116528,126.845227 139.952212,126.241613 C139.682022,125.249069 139.699879,124.1347 139.925762,122.90426 C140.203826,121.389576 140.82997,119.663762 141.39066,118.53864 C135.515772,120.271001 132.421668,121.143927 128.644559,122.115143 Z M140.855612,132.205219 C134.603356,134.851087 127.619149,135.936942 122.486211,134.617174 C117.699552,133.38644 114.726325,130.221373 114.013173,125.3269 C106.639769,127.197733 103.042582,127.966916 98.6562406,128.429519 C92.7216073,129.055413 87.3959153,128.658586 82.2630968,126.9975 C79.437991,126.083237 76.8258223,124.565184 74.1727144,122.42097 C72.190769,120.819182 70.6045267,119.280619 67.5930037,116.164554 C67.5072044,116.075777 67.4137868,115.979084 67.234997,115.794021 C67.0892574,115.643179 66.9829608,115.533206 66.8781808,115.424888 C63.684746,112.12361 61.9240479,110.465464 59.8553323,108.962019 C57.2808582,107.091012 54.7826589,105.99773 52.0746879,105.658788 C51.5491362,105.593007 51.127168,105.35583 50.7998391,105.028501 C50.7074958,104.936158 50.6314372,104.845632 50.5600496,104.749878 C50.5133978,104.681379 51.4222645,103.781778 53.2866497,102.051075 C53.0847508,101.919742 52.8420688,101.824406 52.5590509,101.788982 C55.9744182,102.216466 59.0736339,103.57277 62.1481291,105.807168 C64.4553041,107.483914 66.3360672,109.255132 69.681302,112.713336 C69.7867276,112.822322 69.893508,112.932795 70.0397426,113.08415 C70.2186733,113.269359 70.3118222,113.365773 70.397361,113.454281 C73.3006689,116.458375 74.8052276,117.917709 76.6241418,119.387737 C78.9303671,121.251604 81.1368072,122.533869 83.4639021,123.286965 C88.0357749,124.766517 92.822264,125.123168 98.2471974,124.55103 C102.441402,124.10869 105.947797,123.353138 113.329474,121.476729 C113.531374,121.425406 113.724467,121.376341 113.909488,121.329353 C113.980679,120.412656 114.112208,119.453271 114.305887,118.452027 C114.578381,117.043344 115.581927,115.87083 117.095617,114.746878 C118.071237,114.022456 119.226142,113.358116 120.29943,112.848332 C133.940995,106.368948 136.5668,105.124992 137.410776,104.747149 C137.747595,104.60862 137.747595,104.60862 137.827911,104.583363 C138.473778,104.498948 138.473778,104.498948 138.750313,104.535243 C139.112,104.614503 139.120442,104.616353 139.652606,104.973827 C140.326276,104.679418 141.031916,104.370165 141.769949,104.045868 C151.643055,99.707566 155.741541,97.330993 165.301074,90.5466249 C165.645904,90.3019004 165.995944,90.053123 166.467908,89.7174332 C166.601975,89.6220771 166.758713,89.5105804 167.049053,89.3040438 C167.283154,89.13752 167.457851,89.0132769 167.628876,88.8916901 C168.565525,88.2257995 169.258805,87.7344949 169.937876,87.2561227 C171.681736,86.0276583 173.13805,85.0226373 174.537088,84.0881589 C180.637337,80.0135375 185.657781,77.3111614 190.921579,75.50009 C197.175532,73.3483443 203.559695,72.5923252 210.530443,73.3457855 C216.173404,73.9557267 221.089662,77.7305925 224.534558,83.4540319 C227.618189,88.5772572 229.218092,94.8414771 228.766235,100.031893 C228.664574,101.199651 228.158476,102.430294 227.333884,103.783109 C226.869932,104.544262 226.310472,105.331681 225.667337,106.148963 C225.154446,106.800734 224.619381,107.433422 224.02424,108.104923 C223.790881,108.368224 223.111769,109.120115 223.037067,109.207282 C220.49926,112.168553 216.248254,113.542993 210.65437,113.863098 C208.013829,114.014201 205.379847,113.92818 202.160751,113.668335 C201.164257,114.60547 200.236622,115.37119 199.455949,115.886067 C191.456611,121.161864 189.080405,122.651694 185.727077,124.354139 C182.817437,125.831329 179.918719,126.973488 176.213165,128.102377 C173.166441,129.030555 169.501702,129.976242 164.067887,131.254866 C162.408242,131.645395 160.677864,131.72725 158.576396,131.594478 C157.795347,131.545131 157.144522,131.484223 155.836485,131.347575 C150.479137,130.792841 147.553013,130.389202 144.800732,129.703778 C143.370068,130.85491 142.05798,131.696394 140.855612,132.205219 Z M210.43156,109.969468 C215.06385,109.704389 218.398904,108.626096 220.075756,106.669441 C220.189727,106.536453 220.901946,105.747906 221.105572,105.518154 C221.654148,104.899192 222.142302,104.321973 222.602491,103.737176 C223.156408,103.03327 223.628891,102.368267 224.003756,101.753269 C224.543153,100.868342 224.841909,100.141878 224.88093,99.6936534 C225.258473,95.3568732 223.86652,89.9068554 221.193129,85.4652134 C218.326282,80.7021605 214.398979,77.6866472 210.111338,77.223201 C203.718513,76.5322078 197.909856,77.2200749 192.190418,79.1879142 C187.293967,80.8725955 182.548582,83.4269147 176.703285,87.3312427 C175.33461,88.24544 173.90347,89.2330881 172.183894,90.4444457 C171.510267,90.918983 170.821102,91.4073717 169.888634,92.0702897 C169.717946,92.191637 169.543506,92.315697 169.309666,92.4820355 C169.019415,92.6885081 168.862552,92.8000942 168.728366,92.8955353 C168.255394,93.2319409 167.904363,93.4814234 167.558228,93.727074 C157.792489,100.657786 153.466863,103.166069 143.338853,107.616378 C134.313639,111.582111 130.405754,113.199634 129.483828,113.315555 C129.37102,113.329739 129.256582,113.336668 129.129294,113.332216 C128.947912,113.325872 128.766326,113.299682 128.573865,113.236228 C126.723238,114.11488 124.543182,115.150228 121.972676,116.37115 C121.11182,116.780034 120.169017,117.322366 119.42061,117.878077 C118.624724,118.469042 118.17274,118.997127 118.134907,119.192708 C118.060136,119.579246 117.995804,119.955248 117.941795,120.320893 C118.265946,120.242572 118.586788,120.16606 118.932163,120.0845 C120.094158,119.810094 121.034621,119.629884 123.077407,119.268999 C125.428394,118.853674 126.444544,118.653972 127.673337,118.33801 C131.906358,117.249565 135.287322,116.281149 142.860186,114.03724 C143.382653,113.882431 143.683048,113.793517 143.97951,113.705867 C144.437787,112.862197 144.777106,112.258561 145.095294,111.724247 C146.094754,110.045912 146.907288,109.049356 147.996612,108.259437 C148.961899,107.559462 149.91149,107.139296 152.065717,106.363771 C152.299127,106.279743 153.219881,105.950683 153.429354,105.875465 C154.014127,105.665485 154.514798,105.483206 155.031426,105.291271 C156.370437,104.79381 157.693834,104.275995 159.135367,103.678304 L160.369917,106.655838 C169.46425,97.8035237 181.986506,91.1362697 193.24531,89.8497914 C196.18172,89.5142648 198.954343,89.4911431 203.429011,89.6578383 C203.799524,89.671641 204.097395,89.6832125 204.759321,89.709281 C206.692761,89.7854253 207.545434,89.8151406 208.606475,89.8376224 C210.251933,89.8724869 212.620258,90.9131241 213.206259,92.5252061 C214.447811,95.9407023 212.614372,100.620053 208.809515,105.976125 C207.839446,107.341686 206.75995,108.707867 205.66009,109.984093 C207.358005,110.057263 208.904157,110.056872 210.43156,109.969468 Z M156.389629,108.947128 C155.858111,109.144594 155.344573,109.331557 154.747373,109.546 C154.53358,109.622769 153.614869,109.951099 153.386728,110.03323 C151.575421,110.685304 150.855301,111.003935 150.286089,111.416697 C150.0461,111.590725 149.820475,111.796337 149.586159,112.064981 C152.585985,111.198894 155.134083,110.487906 157.44679,109.87957 C158.146401,109.014338 158.618733,108.432533 158.694905,108.352217 C158.842583,108.196504 158.991347,108.04137 159.141174,107.886832 C158.204722,108.261067 157.300338,108.608786 156.389629,108.947128 Z M146.64414,116.985984 C146.161141,117.88859 145.343187,119.415993 144.97288,120.1011 C144.560808,120.863477 143.985353,122.389941 143.76166,123.608451 C143.632025,124.314604 143.622993,124.878235 143.715275,125.217233 C143.756237,125.367705 143.750095,125.360834 143.831004,125.385734 C144.656283,124.648309 145.526464,123.800251 146.442984,122.852193 C147.588979,121.666764 148.792106,120.342377 150.055169,118.884874 C150.870806,117.943675 152.026541,116.548814 153.228564,115.079666 C151.263291,115.635766 149.095546,116.264623 146.64414,116.985984 Z M139.08256,108.27221 C139.084163,108.271556 139.085659,108.270939 139.087074,108.27035 C139.086488,108.270594 139.085854,108.270859 139.085173,108.271146 L139.08256,108.27221 Z M205.630095,103.717523 C208.575056,99.5719196 210.041858,95.9895855 209.619024,94.1254496 C209.546449,94.0836628 209.455937,94.0379535 209.353016,93.99273 C209.168501,93.9116544 208.963743,93.8406005 208.775679,93.7911592 C208.693948,93.7696725 208.620464,93.753645 208.561382,93.7437609 C207.431282,93.7135973 206.562944,93.6833361 204.605847,93.6062601 C203.946676,93.5803001 203.65066,93.5688007 203.283824,93.5551349 C198.991953,93.3952495 196.37957,93.4170349 193.688059,93.7245782 C183.878921,94.8454116 172.800698,100.539283 164.42258,108.194342 C165.655643,107.926167 166.888501,107.674428 168.167785,107.427822 C177.693513,105.591555 181.76347,105.538816 186.064127,106.82858 C186.449649,106.944197 188.788625,107.705916 189.561739,107.930447 C192.224201,108.703691 195.094715,109.20972 199.224336,109.504767 C199.456907,109.521383 200.087367,109.575183 200.706364,109.628806 C202.345503,107.9387 204.134389,105.823018 205.630095,103.717523 Z M153.002462,121.43898 C151.695767,122.946832 150.445994,124.322567 149.246945,125.562877 C148.946297,125.873871 148.649786,126.175498 148.357362,126.467624 C150.294783,126.809462 152.58612,127.090046 155.746359,127.417066 C155.877533,127.43064 155.880097,127.430908 156.241704,127.468684 C157.497968,127.599923 158.111122,127.657306 158.82231,127.702239 C160.573697,127.812892 161.944252,127.748059 163.174581,127.458552 C168.533416,126.197571 172.127169,125.270202 175.07661,124.371661 C178.573953,123.306203 181.263135,122.246606 183.961588,120.876633 C187.015131,119.326385 189.279722,117.919744 196.47524,113.179785 C193.311339,112.849762 190.824401,112.358301 188.474028,111.675696 C187.625255,111.429192 185.264457,110.660366 184.943816,110.564206 C181.344114,109.484658 177.868102,109.529701 168.905994,111.257319 C165.792291,111.857545 162.950409,112.491525 159.669594,113.332129 C157.721074,115.749117 154.70963,119.469006 153.002462,121.43898 Z M128.892858,109.463356 C128.891317,109.463768 128.889848,109.464155 128.888454,109.464517 C128.891571,109.463707 128.895159,109.462828 128.899325,109.461885 L128.892858,109.463356 Z" id="Path-11" fill="#F2E1A9"></path>
                            <path d="M13.2663216,52.8023798 C14.7773017,50.0554064 16.7970807,48.0504365 21.0772987,44.5324182 C21.2329498,44.4044847 21.7647789,43.9680389 21.846592,43.9008377 C22.1467428,43.6542945 22.3794803,43.4624751 22.603121,43.2770633 C26.140253,40.3445636 27.8337431,38.5215392 28.6075928,36.532472 C29.1687082,35.0902069 29.0919357,34.2780697 28.6272649,33.748974 C28.1296762,33.1823965 27.0567261,32.7304438 25.5039138,32.4879208 C22.8830319,32.0785833 19.2393831,32.3360019 16.7616852,32.8317373 C16.5016775,32.8837594 16.1766149,33.1356534 15.4349154,33.9140819 C15.342819,34.0108182 15.2935469,34.0625483 15.2471431,34.1110816 C14.9599636,34.4114404 14.7568776,34.6149138 14.5341079,34.818341 C9.33966177,39.5617688 7.85732518,43.7321717 9.31491341,47.7159448 C9.97164839,49.5108847 11.2304957,51.322665 13.0757799,53.1598279 C13.1391142,53.0373667 13.2026464,52.9181417 13.2663216,52.8023798 Z M5.65236699,49.0560022 C3.58988639,43.4189816 5.63600852,37.6624256 11.904254,31.9384333 C12.0468282,31.8082384 12.1972842,31.6574954 12.4282768,31.4159021 C12.471684,31.3705029 12.5178946,31.321987 12.6113916,31.223782 C13.9030526,29.8681579 14.6715646,29.272631 15.9965416,29.0075308 C18.8852169,28.4295675 22.9527942,28.1421989 26.1057321,28.6346345 C28.4757585,29.0047926 30.3414547,29.7906693 31.55761,31.1754399 C33.0724475,32.900304 33.2939286,35.2432403 32.2422113,37.9465259 C31.1477892,40.7595775 29.1292486,42.9325154 25.0922629,46.2794245 C24.863312,46.4692388 24.6263614,46.6645305 24.3220206,46.9145154 C24.2390967,46.9826289 23.7079231,47.4185368 23.5536755,47.5453168 C19.6565297,50.7484785 17.8736388,52.5182971 16.6834876,54.6820012 C16.4968741,55.0212658 16.3099376,55.4020343 16.1251197,55.8149312 C17.5263553,56.9016047 19.1244773,57.9983002 20.9163769,59.1067118 C22.5565237,60.121254 24.0109079,60.765413 27.4152094,62.0920215 C29.2002123,62.787612 29.9950348,63.1077372 30.9851749,63.5462786 L29.4058099,67.1121735 C28.4876293,66.7055035 27.7291283,66.4000073 25.9991534,65.7258604 C22.3734992,64.3129939 20.7745702,63.6048148 18.8647443,62.4234578 C17.3708565,61.4993868 15.992143,60.57641 14.7306463,59.6503946 C14.0736865,61.8327074 13.5707071,64.1389839 13.4045039,65.8673912 C12.0776692,79.6656332 17.3514912,85.500603 31.1260814,85.500603 L31.1260814,89.400603 C15.0454767,89.400603 7.97572793,81.5786152 9.52241089,65.4940903 C9.75273439,63.0988715 10.5073735,59.8685363 11.478791,57.021377 C8.62036417,54.4474443 6.66403582,51.8210212 5.65236699,49.0560022 Z" id="Path-14" fill="#FFF4A1"></path>
                        </g>
                    </g>
                </g>
                <g id="Bangers-and-Mash" transform="translate(213.000000, 207.000000)">
                    <g>
                        <ellipse id="Oval-3" fill="#F2E1E1" cx="169.07081" cy="115.188525" rx="169.07081" ry="115.188525"></ellipse>
                        <ellipse id="Oval-3" fill="#E8DCDC" cx="169.684497" cy="116.720287" rx="150.046508" ry="100.789959"></ellipse>
                        <g id="Mash" transform="translate(45.412849, 22.670082)">
                            <path d="M85.2030295,8.65445697 C73.1241094,9.89615275 62.2055921,12.6545216 52.4474779,16.9295634 C45.9229058,19.7879864 40.9926328,24.4560719 37.6566586,30.9338199 C33.1113584,30.138818 29.1475627,31.2690911 25.7652715,34.324639 C24.6480314,35.3339491 26.1948329,35.6610747 24.3197506,37.5102259 C23.031175,38.7809813 21.1870262,38.5192133 19.411452,40.1160168 C18.3588809,41.0626116 19.1967075,43.4366306 18.2374157,44.5982166 C15.9562282,47.360458 13.4976114,45.1836567 12.8868309,46.6744725 C12.4719246,47.6871911 12.3071498,49.600511 11.8086832,50.5499508 C10.7415854,52.5824744 8.62640176,53.4448432 7.73461559,55.3367079 C6.61689081,57.7078864 7.57959911,60.6286353 6.77932524,62.8501217 C6.15179819,64.5920788 3.7586593,65.9398301 3.18709792,67.5423404 C2.13410071,70.4946721 3.59153395,71.5689079 3.18709792,74.1349017 C2.94977087,75.6406521 0.641913764,76.6369892 0.421310612,78.3424613 C0.119414496,80.6764052 1.94619774,81.3383961 1.80929835,82.8779137 C2.21029918,86.015317 0.908214515,87.6900877 1.80929835,91.0794237 C2.09050351,92.1371486 4.50785668,94.6218811 5.40272428,96.5788094 C5.94570208,97.7662126 5.94570208,99.742146 5.40272428,102.50661 C7.20929007,104.531332 8.39990706,106.030385 8.97457528,107.003768 C14.1192047,115.717833 17.2730363,121.926531 20.2229094,125.424406 C31.5800187,138.891343 43.9314848,146.388442 52.4474779,152.20721 C53.5260277,152.944157 55.1234109,153.831809 56.0274194,154.429462 C58.518927,156.076635 59.8387493,157.993062 61.8463603,159.192585 C66.7633886,162.130449 71.9588295,165.586353 77.3818145,168.067233 C80.5856693,169.532916 83.9525229,170.231371 87.1621538,171.436811 C87.5580802,171.585508 87.802155,172.459995 88.1977509,172.60089 C92.2701442,174.051315 95.0888124,176.352511 99.5467681,176.352511 C103.546241,176.352511 108.210332,176.862198 111.922093,176.352511 C116.813133,175.680889 120.676819,173.832013 125.40613,172.60089 C136.649408,169.674068 148.189546,172.101873 157.564176,170.546474 C159.837683,170.169263 161.852163,168.952121 163.856267,168.067233 C168.798754,165.884937 166.40977,169.407656 172.595915,167.033892 C174.04452,166.478029 175.272517,164.515298 177.064025,163.125205 C179.349976,161.351457 181.886564,159.960222 183.173329,158.710618 C183.787648,158.11404 183.635258,157.15518 184.122926,156.622395 C185.647251,154.957047 187.327882,153.554236 188.562868,152.20721 C189.706405,150.959932 190.397279,149.775778 191.933054,148.105857 C193.39771,146.513267 195.465165,145.028792 197.076879,143.323288 C198.776107,141.525176 200.00609,139.504319 200.980145,137.768257 C202.050079,135.861308 203.196442,133.79161 203.475047,131.917643 C203.845644,129.424907 203.204838,127.305108 203.898455,126.63396 C204.153144,126.387521 205.543872,126.63396 205.938186,126.63396 C211.97797,126.63396 215.445992,126.886554 218.011761,122.801862 C220.57753,118.71717 214.197299,115.651842 215.900414,111.685815 C216.699167,109.825765 217.903044,107.563388 218.011761,105.125265 C218.105869,103.014786 217.068834,100.739453 218.011761,98.8824363 C218.588039,97.7475047 219.748211,96.8887817 220.044,96.0480777 C220.791309,93.9240454 220.044,92.1820076 220.044,88.3569556 C220.044,78.5237682 220.355019,79.8236731 220.044,74.1349017 C219.920524,71.8764274 218.976041,68.3679047 218.976041,62.8501217 C218.976041,61.0387553 217.257385,59.8690957 216.950394,58.1118304 C216.410634,55.0221601 212.272228,53.2652388 210.625341,48.1625556 C209.527416,44.7607669 204.321863,38.4356656 195.008681,29.1872519 C187.919898,24.8833384 182.440662,21.7653645 178.570975,19.83333 C174.701287,17.9012955 169.441797,15.6577025 162.792503,13.1025511 C160.548573,11.201161 159.365347,9.718463 159.242826,8.65445697 C158.827583,5.0483701 159.653949,5.80095135 156.547757,3.79829182 C153.441565,1.79563228 148.136027,5.04112345 147.254951,5.09969142 C145.578734,5.21111495 141.450729,4.77731508 134.870936,3.79829182 C126.498663,1.91554884 120.213164,0.769918288 116.014439,0.361400166 C109.716352,-0.251377015 97.6313929,0.361400166 97.6313929,0.361400166 C92.6236099,1.69371425 88.4808221,4.45806651 85.2030295,8.65445697 Z" id="mash" fill="#DCD576"></path>
                            <path d="M139.293861,143.810104 C152.383506,137.140228 155.688342,133.133484 160.87201,130.967668 C165.18223,129.166793 166.803582,132.577499 170.244067,130.967668 C181.485217,125.707844 187.26675,121.850156 187.588666,119.394604 C191.189534,132.772389 192.428912,141.772537 191.306802,146.395048 C190.184691,151.017559 185.19217,157.478405 176.329238,165.777584 C155.10542,169.827375 137.812711,171.852271 124.451109,171.852271 C111.089508,171.852271 107.067982,172.366678 112.386532,173.395492 C115.716674,162.26621 118.857327,155.069572 121.808492,151.805579 C126.65627,146.443929 138.122301,144.407076 139.293861,143.810104 Z" id="Rectangle-5" fill="#CFC076"></path>
                        </g>
                        <g id="sausage-1" transform="translate(60.141341, 36.762295)">
                            <path d="M132.503023,25.4357876 C132.212384,21.4409371 128.740112,17.9136431 122.086207,14.8539058 C116.168642,12.6233598 110.761053,11.5739134 105.86344,11.7055665 C90.7148754,12.1127763 75.9223491,16.9482187 61.4646223,21.3404484 C39.9955037,27.8627254 22.8351184,37.4597469 9.98346628,50.131513 C8.17524639,55.1631334 7.03213634,58.6646409 6.55413613,60.6360353 C5.34132868,65.6379616 5.34817246,69.0594058 6.55413613,71.8862915 C7.31712381,73.6748022 10.9819601,80.0339823 13.4487329,81.0102562 C15.3854312,81.7767426 22.5454531,82.5431559 29.0567175,79.1906655 C36.41417,75.4024937 43.2260353,67.2725321 46.0108575,65.0473381 C51.2602166,60.8528718 66.6105515,50.5918594 72.2670704,48.4985531 C79.564219,45.7980994 89.9906868,42.3829201 96.8192454,41.9158201 C110.739717,40.9636055 116.82275,44.0829268 124.31422,40.9668548 C133.507367,37.1429716 132.938982,31.4280635 132.503023,25.4357876 Z" fill="#67401E" transform="translate(69.175907, 46.683039) rotate(-11.000000) translate(-69.175907, -46.683039) "></path>
                            <path d="M29.1175527,46.1803599 C42.2022436,34.8548164 53.8734188,26.4385014 64.1310782,20.9314148 C73.0321817,16.1526299 85.9927521,11.343419 103.012789,6.50378193 C104.742061,6.01206473 106.336237,8.9068495 107.795318,15.1881362 C86.5870854,21.7952208 72.0323387,27.3259323 64.1310782,31.7802704 C52.2791875,38.4617777 37.8235474,52.1920949 34.3784937,54.0591409 C30.9334401,55.926187 38.1329052,47.6311481 37.5601852,46.1803599 C37.1783719,45.2131678 34.3641611,45.2131678 29.1175527,46.1803599 Z" id="Rectangle" fill-opacity="0.328662817" fill="#470F06"></path>
                            <path d="M11.5780255,70.8641263 C10.365218,75.8660527 10.3720618,79.2874968 11.5780255,82.1143826 C12.3410132,83.9028933 14.9383564,90.5524551 18.4726223,91.2383472 C22.0068882,91.9242394 23.2016437,85.7875926 22.6863731,81.0081559 C22.4383566,78.7076574 28.0141345,70.5311226 25.7839386,65.0980687 C24.6982484,62.4531828 12.2950258,67.9070347 11.5780255,70.8641263 Z" id="sausage-1-end" fill-opacity="0.462834013" fill="#A7734C" transform="translate(18.491315, 77.842873) rotate(-11.000000) translate(-18.491315, -77.842873) "></path>
                            <path d="M103.888207,6.7397541 C107.783053,5.64873486 111.128406,5.10322524 113.924269,5.10322524 C116.720131,5.10322524 120.537645,6.86725964 125.376811,10.3953284 L127.856923,16.7572103 C124.494269,17.779631 122.045603,18.7001239 120.510925,19.518689 C118.208908,20.7465367 110.161166,25.8996385 108.745768,25.6077011 C105.814886,25.0031827 112.783408,19.5125771 112.783408,15.3614263 C112.783408,12.5939924 109.818341,9.72010171 103.888207,6.7397541 Z" id="Rectangle-2" fill="#917456"></path>
                        </g>
                        <g id="Group" transform="translate(111.077374, 79.038934)">
                            <path d="M135.431254,14.4719561 C135.135342,10.3050721 131.569085,6.61448228 124.732482,3.40018679 C114.586923,1.0035148 107.020912,-0.126159897 102.034447,0.0111627104 C86.6110606,0.435908501 71.5501716,5.47958356 56.830156,10.0609594 C34.9715496,16.8641105 17.4998445,26.8744165 4.41504059,40.0918772 C2.57401639,45.3401784 1.4101683,48.9924742 0.923496315,51.0487644 C-0.311313609,56.2660928 -0.304345671,59.8348774 0.923496315,62.7834996 C1.70032594,64.6490304 5.43164888,71.2820611 7.94317334,72.300377 C9.91500673,73.0998713 17.2049241,73.8992892 23.8343144,70.4024278 C31.3252441,66.4511228 38.2606888,57.9710541 41.0960325,55.6500347 C46.4406243,51.2749386 62.0694415,40.5720479 67.8285797,38.3885958 C75.2581115,35.5718503 85.8737339,32.0096003 92.8261746,31.5223852 C106.999188,30.5291646 116.598199,34.3556366 124.732482,31.5223852 C136.856962,27.2993084 135.875122,20.7222822 135.431254,14.4719561 Z" id="sausage-2" fill="#67401E"></path>
                            <path d="M22.4989616,31.8606557 C24.8004858,26.2028585 41.0899415,19.0285529 56.3044314,14.3275763 C62.8863368,12.2938976 69.3372613,13.9876968 80.346425,11.6356681 C86.3028461,10.3631216 90.6007152,2.44138999 102.504262,3.79159157 C107.387777,4.34552133 112.39899,4.28341901 116.558761,7.37015196 C118.291992,8.65628525 120.587293,11.707647 123.444665,16.5242372 C111.478846,14.8456519 103.106152,14.1134316 98.3265826,14.3275763 C82.2479347,15.0479669 71.718453,19.248484 65.2505066,21.5539252 C60.5254877,23.2381155 53.4806194,28.0491891 45.0101616,31.8606557 C41.7501962,33.3275481 36.9367986,30.9587346 33.9519113,33.6701744 C30.8786866,36.4618591 27.6730875,43.3389611 24.3351139,54.3014804 C21.7625366,51.9499758 20.3579757,50.1890969 20.1214312,49.0188436 C18.4813072,40.9046816 21.237509,34.9616631 22.4989616,31.8606557 Z" id="Rectangle-3" fill="#5B220D"></path>
                        </g>
                        <g id="Group-2" transform="translate(45.412849, 26.959016)">
                            <path d="M107.778806,6.09832864 C101.542208,7.48226389 95.5527652,10.3902189 89.8104776,14.8221936 C85.6228308,9.70993659 78.2382086,8.2559591 67.6566112,10.4602611 C51.784215,13.7667141 48.1292918,23.8930664 38.1720599,31.7948378 C28.2148281,39.6966092 13.1283503,43.1161169 9.69673643,47.1794754 C6.26512253,51.2428339 9.29879445,52.4083299 7.71903369,56.8128242 C6.66585986,59.7491537 5.14882202,62.605651 3.16792019,65.3823162 C1.04573055,70.3962492 0.243861984,73.4198842 0.762314508,74.4532211 C1.28076703,75.486558 3.59967343,75.486558 7.71903369,74.4532211 C6.31002333,77.80794 6.31002333,79.4852995 7.71903369,79.4852995 C9.12804406,79.4852995 11.5388437,77.80794 14.9514327,74.4532211 C17.7785487,72.6924922 20.0013667,73.0582802 21.6198867,75.5505851 C24.0476666,79.2890425 16.0080054,76.8136907 21.6198867,89.11805 C27.231768,101.422409 42.6357784,99.0065777 44.7068692,100.633193 C46.77796,102.259808 49.2270535,111.819844 53.4746847,111.819844 C56.3064388,111.819844 59.2058708,109.621127 62.1729809,105.223693 C72.4176211,109.407419 80.1254678,111.606136 85.2965209,111.819844 C90.467574,112.033552 97.961669,110.463097 107.778806,107.108478 L120.461274,103.182141 L123.444609,110.277312 L136.843844,118.709184 L156.569332,118.709184 L173.505659,114.694292 L177.544967,114.694292 L177.544967,118.709184 C177.302806,124.203441 177.861757,128.220727 179.221819,130.761042 C181.261912,134.571516 174.66552,136.354704 177.544967,140.262755 C179.464598,142.868123 182.936565,145.07761 187.960868,146.891217 C186.079363,150.800078 184.253484,153.589161 182.48323,155.258469 C180.712977,156.927776 177.720453,159.055889 173.505659,161.642806 C185.930818,166.523008 198.719563,163.471849 211.871893,152.48933 C231.600388,136.015551 236.203587,122.482333 237.940412,110.277312 C239.098296,102.140631 233.555934,95.5420862 221.313326,90.4816774 L215.901612,84.0632344 C217.452502,81.4560355 216.828827,78.6184857 214.030586,75.5505851 C209.833224,70.9487342 204.573789,70.6633341 201.261817,68.0126393 C197.949846,65.3619445 199.530458,63.2665538 197.854176,61.1065454 C196.736654,59.6665398 194.219978,57.2619921 190.304146,53.8929023 L182.48323,38.7571761 L184.60117,35.7510926 C179.650958,30.3014817 175.952454,26.910862 173.505659,25.5792336 C166.549872,21.7936601 160.91704,21.564457 159.57544,20.6297267 C157.525949,19.2017897 156.523913,17.2659453 156.569332,14.8221936 C159.426799,12.0857511 160.428835,10.6317736 159.57544,10.4602611 C158.722044,10.2887486 155.697557,10.2887486 150.501979,10.4602611 C150.583898,5.08025921 149.526726,2.05183751 147.330463,1.374996 C144.03607,0.359733732 141.41587,0.263555045 139.595848,1.374996 C138.3825,2.11595663 138.3825,3.69040085 139.595848,6.09832864 C128.66592,6.41689551 123.282173,7.30404117 123.444609,8.75976563 C123.688262,10.9433523 121.472646,12.462232 120.461274,13.168369 C119.787026,13.639127 118.676716,13.639127 117.130343,13.168369 L117.130343,8.75976563 C117.132583,5.60153904 114.015404,4.71439338 107.778806,6.09832864 Z" id="gravy" fill="#A0612A" opacity="0.776060268" style="mix-blend-mode: darken;"></path>
                            <path d="M186.500663,87.3396798 C189.850512,82.2179953 192.772608,87.0817436 198.726068,85.9409803 C201.618676,85.3867177 207.22557,82.9475795 215.54675,78.6235657 C218.742127,80.5747449 220.339815,84.7890554 220.339815,91.2664972 C220.339815,94.5370177 216.583461,102.451662 215.54675,109.19748 C214.890794,113.465745 220.339815,115.12322 215.54675,120.307462 C213.972411,122.010288 209.429356,120.307462 207.426257,121.937197 C205.423158,123.566932 193.313387,144.692937 188.96091,147.802209 C184.608434,150.911481 181.163157,141.050444 179.051124,141.270002 C174.701363,141.722184 177.53537,126.509567 175.818482,125.895235 C170.021133,123.820846 173.76866,119.352257 175.818482,110.627401 C176.567155,107.440754 179.539655,109.173345 180.314473,106.923813 C183.040382,99.0096796 183.692766,91.6327573 186.500663,87.3396798 Z" id="Rectangle-4" fill="#CB9E4F"></path>
                        </g>
                    </g>
                </g>
                <g id="Group-7" transform="translate(382.000000, 88.000000)" fill="#54C5BE">
                    <path d="M0.03497746,2.8374719 L-1.96471666,2.87244936 L-2.03467158,-1.12693889 L-0.03497746,-1.16191635 C141.243727,-3.6330794 231.750539,2.36585236 271.764087,16.9259532 C290.409626,23.7106784 306.548466,33.5879914 331.12555,51.7686927 C332.997334,53.1533299 334.914145,54.5801388 337.444862,56.4704031 C337.394794,56.4330056 342.361416,60.1452091 343.777504,61.2014464 C360.021062,73.3172554 369.954984,80.2680351 381.15054,86.9648855 C395.454336,95.5209927 409.237237,101.820597 423.67387,106.058788 C445.478729,112.460084 510.04894,114.451184 616.953354,111.957161 L618.95281,111.910515 L619.046102,115.909427 L617.046646,115.956073 C509.618556,118.462313 444.929102,116.467536 422.547132,109.896817 C407.76216,105.556363 393.675333,99.1178463 379.097177,90.3976249 C367.754794,83.612947 357.731216,76.5994348 341.385959,64.4077701 C339.967986,63.3501268 334.999679,59.6366643 335.051167,59.675122 C332.52497,57.7882342 330.61266,56.3647759 328.746714,54.984457 C304.456495,37.015962 288.58924,27.3048641 270.396309,20.6848336 C231.014873,6.35474535 140.801553,0.375266694 0.03497746,2.8374719 Z" id="Line-2" fill-rule="nonzero"></path>
                    <path d="M210.822302,115.99209 L208.830211,115.814392 L209.185608,111.830211 L211.177698,112.00791 C244.660025,114.994599 269.844545,119.561147 286.775334,125.736674 C306.846051,133.057494 320.627653,141.073863 345.871582,158.456769 C346.211021,158.690506 349.358743,160.859492 350.286384,161.497798 C364.446023,171.240983 372.796509,176.612328 382.843948,182.095933 C395.767806,189.149403 408.935895,194.703452 423.680855,199.042533 C445.484456,205.4588 510.052568,207.454606 616.953242,204.954694 L618.952695,204.907936 L619.046211,208.906843 L617.046758,208.953601 C509.621276,211.465786 444.93355,209.466282 422.551632,202.879831 C407.524981,198.457856 394.09463,192.793189 380.927683,185.607047 C370.728751,180.040763 362.284135,174.60887 348.018936,164.793049 C347.089988,164.153845 343.941467,161.984307 343.603012,161.751248 C318.618382,144.546894 305.075877,136.669602 285.404662,129.4945 C268.86335,123.461035 243.987872,118.950524 210.822302,115.99209 Z" id="Line-2" fill-rule="nonzero" transform="translate(413.938211, 160.915657) scale(1, -1) translate(-413.938211, -160.915657) "></path>
                    <polygon id="Rectangle-8" points="597 100 630 114.145008 597 127"></polygon>
                </g>
                <g id="Group-8" transform="translate(1043.000000, 61.000000)">
                    <rect id="Rectangle-9" fill="#C3EBE9" x="14.7" y="0" width="256.9" height="340.9"></rect>
                    <path d="M33.6,23.965625 L53.4515625,23.965625 L53.4515625,37.2 L33.6,37.2 L33.6,23.965625 Z M52.85,23.965625 L72.7015625,23.965625 L72.7015625,37.2 L52.85,37.2 L52.85,23.965625 Z M72.1,23.965625 L91.9515625,23.965625 L91.9515625,37.2 L72.1,37.2 L72.1,23.965625 Z M91.35,23.965625 L111.201562,23.965625 L111.201562,37.2 L91.35,37.2 L91.35,23.965625 Z M110.6,23.965625 L130.451562,23.965625 L130.451562,37.2 L110.6,37.2 L110.6,23.965625 Z M129.85,23.965625 L149.701562,23.965625 L149.701562,37.2 L129.85,37.2 L129.85,23.965625 Z M187.720313,23.965625 L207.571875,23.965625 L207.571875,37.2 L187.720313,37.2 L187.720313,23.965625 Z M206.970313,23.965625 L226.821875,23.965625 L226.821875,37.2 L206.970313,37.2 L206.970313,23.965625 Z M226.220313,23.965625 L246.071875,23.965625 L246.071875,37.2 L226.220313,37.2 L226.220313,23.965625 Z" id="Shoppi-ist" fill="#000000"></path>
                    <path d="M56.7,71.065625 L76.5515625,71.065625 L76.5515625,84.3 L56.7,84.3 L56.7,71.065625 Z M75.95,71.065625 L95.8015625,71.065625 L95.8015625,84.3 L75.95,84.3 L75.95,71.065625 Z M95.2,71.065625 L115.051562,71.065625 L115.051562,84.3 L95.2,84.3 L95.2,71.065625 Z M153.070312,71.065625 L172.921875,71.065625 L172.921875,84.3 L153.070312,84.3 L153.070312,71.065625 Z M172.320312,71.065625 L192.171875,71.065625 L192.171875,84.3 L172.320312,84.3 L172.320312,71.065625 Z M191.570312,71.065625 L211.421875,71.065625 L211.421875,84.3 L191.570312,84.3 L191.570312,71.065625 Z M210.820312,71.065625 L230.671875,71.065625 L230.671875,84.3 L210.820312,84.3 L210.820312,71.065625 Z M56.7,109.065625 L76.5515625,109.065625 L76.5515625,122.3 L56.7,122.3 L56.7,109.065625 Z M75.95,109.065625 L95.8015625,109.065625 L95.8015625,122.3 L75.95,122.3 L75.95,109.065625 Z M95.2,109.065625 L115.051562,109.065625 L115.051562,122.3 L95.2,122.3 L95.2,109.065625 Z M114.45,109.065625 L134.301562,109.065625 L134.301562,122.3 L114.45,122.3 L114.45,109.065625 Z M133.7,109.065625 L153.551562,109.065625 L153.551562,122.3 L133.7,122.3 L133.7,109.065625 Z M152.95,109.065625 L172.801562,109.065625 L172.801562,122.3 L152.95,122.3 L152.95,109.065625 Z M56.7,147.065625 L76.5515625,147.065625 L76.5515625,160.3 L56.7,160.3 L56.7,147.065625 Z M75.95,147.065625 L95.8015625,147.065625 L95.8015625,160.3 L75.95,160.3 L75.95,147.065625 Z M95.2,147.065625 L115.051562,147.065625 L115.051562,160.3 L95.2,160.3 L95.2,147.065625 Z M56.7,185.065625 L76.5515625,185.065625 L76.5515625,198.3 L56.7,198.3 L56.7,185.065625 Z M75.95,185.065625 L95.8015625,185.065625 L95.8015625,198.3 L75.95,198.3 L75.95,185.065625 Z M133.820312,185.065625 L153.671875,185.065625 L153.671875,198.3 L133.820312,198.3 L133.820312,185.065625 Z M153.070312,185.065625 L172.921875,185.065625 L172.921875,198.3 L153.070312,198.3 L153.070312,185.065625 Z M172.320312,185.065625 L192.171875,185.065625 L192.171875,198.3 L172.320312,198.3 L172.320312,185.065625 Z M191.570312,185.065625 L211.421875,185.065625 L211.421875,198.3 L191.570312,198.3 L191.570312,185.065625 Z M56.7,223.065625 L76.5515625,223.065625 L76.5515625,236.3 L56.7,236.3 L56.7,223.065625 Z M75.95,223.065625 L95.8015625,223.065625 L95.8015625,236.3 L75.95,236.3 L75.95,223.065625 Z M95.2,223.065625 L115.051562,223.065625 L115.051562,236.3 L95.2,236.3 L95.2,223.065625 Z M114.45,223.065625 L134.301562,223.065625 L134.301562,236.3 L114.45,236.3 L114.45,223.065625 Z M133.7,223.065625 L153.551562,223.065625 L153.551562,236.3 L133.7,236.3 L133.7,223.065625 Z M152.95,223.065625 L172.801562,223.065625 L172.801562,236.3 L152.95,236.3 L152.95,223.065625 Z M172.2,223.065625 L192.051562,223.065625 L192.051562,236.3 L172.2,236.3 L172.2,223.065625 Z M56.7,261.065625 L76.5515625,261.065625 L76.5515625,274.3 L56.7,274.3 L56.7,261.065625 Z M75.95,261.065625 L95.8015625,261.065625 L95.8015625,274.3 L75.95,274.3 L75.95,261.065625 Z M95.2,261.065625 L115.051562,261.065625 L115.051562,274.3 L95.2,274.3 L95.2,261.065625 Z M114.45,261.065625 L134.301562,261.065625 L134.301562,274.3 L114.45,274.3 L114.45,261.065625 Z M133.7,261.065625 L153.551562,261.065625 L153.551562,274.3 L133.7,274.3 L133.7,261.065625 Z" id="-kl-fsda-sdasda-dsd" fill="#000000"></path>
                    <rect id="Rectangle-10" fill="#FFFFFF" x="0" y="72.8" width="36.4" height="13.3"></rect>
                    <rect id="Rectangle-10-Copy" fill="#FFFFFF" x="0" y="268.8" width="36.4" height="13.3"></rect>
                    <rect id="Rectangle-10-Copy-2" fill="#FFFFFF" x="0" y="229.6" width="36.4" height="13.3"></rect>
                    <rect id="Rectangle-10-Copy-3" fill="#FFFFFF" x="0" y="190.4" width="36.4" height="13.3"></rect>
                    <rect id="Rectangle-10-Copy-4" fill="#FFFFFF" x="0" y="151.2" width="36.4" height="13.3"></rect>
                    <rect id="Rectangle-10-Copy-5" fill="#FFFFFF" x="0" y="112" width="36.4" height="13.3"></rect>
                </g>
            </g>
        </g>
    </g>
</svg>