<svg aria-hidden="true" style="position: absolute; width: 0; height: 0; overflow: hidden;" version="1.1" xmlns="http://www.w3.org/2000/svg" xmlns:xlink="http://www.w3.org/1999/xlink">
<defs>
<symbol id="icon-calendar" viewBox="0 0 20 20">
<title>calendar</title>
<path d="M1 4c0-1.1 0.9-2 2-2h14c1.105 0 2 0.895 2 2v0 14c0 1.105-0.895 2-2 2v0h-14c-1.105 0-2-0.895-2-2v0-14zM3 6v12h14v-12h-14zM5 0h2v2h-2v-2zM13 0h2v2h-2v-2zM5 9h2v2h-2v-2zM5 13h2v2h-2v-2zM9 9h2v2h-2v-2zM9 13h2v2h-2v-2zM13 9h2v2h-2v-2zM13 13h2v2h-2v-2z"></path>
</symbol>
<symbol id="icon-close" viewBox="0 0 20 20">
<title>close</title>
<path d="M10 8.586l-7.071-7.071-1.414 1.414 7.071 7.071-7.071 7.071 1.414 1.414 7.071-7.071 7.071 7.071 1.414-1.414-7.071-7.071 7.071-7.071-1.414-1.414-7.071 7.071z"></path>
</symbol>
<symbol id="icon-list" viewBox="0 0 20 20">
<title>list</title>
<path d="M1 4h2v2h-2v-2zM5 4h14v2h-14v-2zM1 9h2v2h-2v-2zM5 9h14v2h-14v-2zM1 14h2v2h-2v-2zM5 14h14v2h-14v-2z"></path>
</symbol>
<symbol id="icon-location-food" viewBox="0 0 20 20">
<title>location-food</title>
<path d="M18 11v7c0 1.105-0.895 2-2 2s-2-0.895-2-2v0-5h-2v-10c0-1.657 1.343-3 3-3v0h3v11zM4 10c-1.105 0-2-0.895-2-2v0-7c0-0.552 0.448-1 1-1s1 0.448 1 1v0 4h1v-4c0-0.552 0.448-1 1-1s1 0.448 1 1v0 4h1v-4c0-0.552 0.448-1 1-1s1 0.448 1 1v0 7c0 1.105-0.895 2-2 2v0 8c0 1.105-0.895 2-2 2s-2-0.895-2-2v0-8z"></path>
</symbol>
<symbol id="icon-menu" viewBox="0 0 20 20">
<title>menu</title>
<path d="M0 3h20v2h-20v-2zM0 9h20v2h-20v-2zM0 15h20v2h-20v-2z"></path>
</symbol>
<symbol id="icon-notifications" viewBox="0 0 20 20">
<title>notifications</title>
<path d="M4 8c0-0.001 0-0.002 0-0.003 0-2.608 1.664-4.827 3.988-5.654l0.042-0.013c-0.016-0.095-0.025-0.204-0.025-0.315 0-1.105 0.895-2 2-2s2 0.895 2 2c0 0.111-0.009 0.22-0.027 0.327l0.002-0.012c2.361 0.843 4.020 3.060 4.020 5.664 0 0.002 0 0.004 0 0.006v-0 6l3 2v1h-18v-1l3-2v-6zM12 18c0 1.105-0.895 2-2 2s-2-0.895-2-2v0h4z"></path>
</symbol>
<symbol id="icon-view-column" viewBox="0 0 20 20">
<title>view-column</title>
<path d="M12 4h-4v12h4v-12zM14 4v12h4v-12h-4zM6 4h-4v12h4v-12zM0 2h20v16h-20v-16z"></path>
</symbol>
</defs>
</svg>
