<?xml version="1.0" encoding="UTF-8" standalone="no"?>
<svg viewBox="0 0 950 504" version="1.1" xmlns="http://www.w3.org/2000/svg" xmlns:xlink="http://www.w3.org/1999/xlink" id="stock_in_cube">
    <title>Check what's in your cupboards image</title>
    <defs>
        <polygon id="path-1" points="0.507854349 37.5257695 160.100734 0.96289113 160.100734 297.181414 0.507854349 340.275076"></polygon>
        <linearGradient x1="0%" y1="12.3109263%" x2="50%" y2="100%" id="linearGradient-3">
            <stop stop-color="#FEE97C" stop-opacity="0.5" offset="0%"></stop>
            <stop stop-color="#FAD318" offset="100%"></stop>
        </linearGradient>
        <path d="M161.702758,24.8437481 C158.511855,31.4557282 157.028124,36.3384701 157.251565,39.4919738 C157.413973,41.7840779 159.453367,44.5256012 161.702758,51.2734788 C162.266323,52.9640997 163.094279,56.7683458 164.186625,62.6862173 C168.240577,59.0862097 170.695834,56.3580369 171.552395,54.5016991 C172.408956,52.6453612 173.235118,49.2803115 174.030883,44.40655 C173.880034,42.0403176 173.053871,39.3433706 171.552395,36.3157093 C170.050919,33.2880479 166.767706,29.4640609 161.702758,24.8437481 Z" id="path-4"></path>
        <linearGradient x1="73.5673841%" y1="-19.5431663%" x2="50%" y2="100%" id="linearGradient-5">
            <stop stop-color="#FEE97C" offset="0%"></stop>
            <stop stop-color="#E8BE05" offset="100%"></stop>
        </linearGradient>
        <path d="M35.6218293,40.9290188 C41.9544149,41.6450938 45.5318328,44.0187812 47.227011,46.6177135 C48.5655182,48.6698221 59.144865,59.7888197 72.1696063,69.0377488 C85.2868199,78.352343 100.87055,85.7939153 108.085621,86.9135151 C113.740779,87.7910551 121.897924,87.5539113 128.608732,85.4634513 C133.775341,83.8540196 137.736357,80.0277733 142.50884,76.7240482 C146.905529,73.6804641 144.904178,65.9226144 148.492971,61.399265 C151.775463,57.2619793 160.711688,56.4425579 163.365783,51.8033096 C163.235096,48.1472119 163.152055,45.9563821 163.116661,45.2308201 C163.028047,43.4143112 163.216298,42.7539202 163.660967,42.2156206 C169.165066,35.5525683 176.959455,37.8671795 179.492393,41.0362053 C181.181018,43.1488891 182.282498,45.5821279 182.796833,48.3359217 C182.195729,50.5563002 181.565952,52.0420273 180.907503,52.7931029 C178.352355,55.7076922 175.338673,56.7437748 175.01335,56.7542948 C173.549655,56.8016267 172.050345,58.7566731 171.057548,61.9829874 C170.138119,64.9708742 169.887763,70.5740603 170.145138,72.2321956 C171.367868,80.1096475 167.202574,89.9361329 157.649255,101.711652 C156.390928,104.586458 137.087684,117.92929 117.021656,114.800686 C114.427732,114.396254 108.088076,113.610163 98.0026903,112.442414 C87.8206881,109.433209 77.0804932,105.390648 77.0531876,105.459783 C77.025882,105.528917 69.1607304,101.940886 60.9383087,95.533881 C54.1767278,90.2651802 46.8480457,84.4793893 41.4981744,77.2974362 C32.3890438,65.0688523 29.715412,52.3295253 29.1074803,46.93952 C28.9304322,45.3697867 30.3847771,45.7884079 31.1306374,44.0288238 C31.8764977,42.2692396 33.1995384,40.6551114 35.6218293,40.9290188 Z" id="path-6"></path>
        <linearGradient x1="50%" y1="0%" x2="48.3943391%" y2="53.5997993%" id="linearGradient-7">
            <stop stop-color="#FFEB8A" offset="0%"></stop>
            <stop stop-color="#E8BE05" offset="100%"></stop>
        </linearGradient>
        <path d="M16.816605,3.99576925 C18.5237826,3.89865309 22.299376,4.01328374 28.1433853,4.33966118 C32.2958309,4.57156783 41.5987976,7.23862815 44.6580638,8.68722321 C64.3214578,17.9980492 81.9829663,28.5446576 98.3519786,28.5446576 C109.586061,28.5446576 131.693973,27.4843451 141.950517,22.3710064 C147.059636,19.8238854 144.427488,12.065269 145.593159,11.2957347 C147.084682,10.3110836 150.091308,10.6288551 152.483395,10.9341297 C154.023394,11.1306621 155.2119,11.6253007 155.899476,10.7548512 C156.23793,12.8677287 156.893305,20.9842454 157.865603,35.1044011 C158.069623,38.0672759 155.788629,42.01032 151.022621,46.9335334 C149.058587,50.1833277 120.408005,69.4560345 85.8192309,59.7471037 C51.2304564,50.0381729 34.5478231,38.9445377 24.3140812,28.5446576 C16.6563252,20.7625828 10.6151076,15.2855306 13.188533,11.8980675 C13.8528145,11.0236575 12.6829736,8.66643993 12.9960234,8.2196487 C15.2711608,7.25660962 16.544688,5.8486498 16.816605,3.99576925 Z" id="path-8"></path>
        <linearGradient x1="50%" y1="0%" x2="47.7393859%" y2="68.8970902%" id="linearGradient-9">
            <stop stop-color="#FEE97C" offset="0%"></stop>
            <stop stop-color="#E8BE05" offset="100%"></stop>
        </linearGradient>
        <path d="M6.20316018,11.9335445 C13.4213597,12.7038407 19.0341943,13.9979418 23.041664,15.8158478 C46.5531531,26.4813501 67.0368639,38.379587 85.9525966,38.379587 C105.311063,38.379587 130.058152,37.6068629 143.500094,20.5897806 C143.362818,17.8083391 143.275591,16.1416262 143.238412,15.589642 C143.145331,14.2077004 143.343072,13.7052962 143.810159,13.2957752 C147.664544,9.91641788 152.101526,9.09918636 157.121102,10.8440806 L157.121102,25.5596655 C148.378884,24.3592865 144.493923,30.8191748 145.466221,44.9393305 C145.670241,47.9022053 143.389247,51.8452494 138.623239,56.7684629 C136.659205,60.0182571 108.008623,79.2909639 73.4198489,69.5820331 C38.8310744,59.8731023 22.1484411,48.7794671 11.9146992,38.379587 C1.68095732,27.9797069 1.11054028,16.6522862 2.35420801,14.8772974 C3.24477224,12.9147955 4.52775629,11.9335445 6.20316018,11.9335445 Z" id="path-10"></path>
        <linearGradient x1="51.9141464%" y1="-5.36206735%" x2="50%" y2="100%" id="linearGradient-11">
            <stop stop-color="#FEE97C" offset="0%"></stop>
            <stop stop-color="#FAD111" offset="100%"></stop>
        </linearGradient>
        <linearGradient x1="51.9141464%" y1="-5.36206735%" x2="46.9408762%" y2="79.2103822%" id="linearGradient-12">
            <stop stop-color="#FEE97C" offset="0%"></stop>
            <stop stop-color="#E8BE05" offset="100%"></stop>
        </linearGradient>
        <path d="M3.94041188,23.9856439 C12.064198,25.696156 18.1643889,27.4915216 22.2409845,29.3717406 C46.1580296,40.4028279 66.9950696,52.7089045 86.2370849,52.7089045 C108.781689,52.7089045 134.053493,49.7944961 146.777276,24.2295545 C147.539131,22.6988151 151.491105,22.6988151 158.633196,24.2295545 L158.633196,39.4495504 C149.74018,38.2080255 145.788207,44.8893416 146.777276,59.4934985 C146.984815,62.5579327 144.664476,66.6361339 139.816258,71.7281019 C137.818346,75.0892904 108.673562,95.0226141 73.4881565,84.9808871 C38.3027507,74.9391601 21.3323541,63.4652647 10.9220876,52.7089045 C0.511821144,41.9525443 -0.84856874,29.0243264 0.416551359,27.1884958 C1.32247717,25.1587245 2.49709734,24.0911072 3.94041188,23.9856439 Z" id="path-13"></path>
        <path d="M161.702758,24.8437481 C158.511855,31.4557282 157.028124,36.3384701 157.251565,39.4919738 C157.413973,41.7840779 159.453367,44.5256012 161.702758,51.2734788 C162.266323,52.9640997 163.094279,56.7683458 164.186625,62.6862173 C168.240577,59.0862097 170.695834,56.3580369 171.552395,54.5016991 C172.408956,52.6453612 173.235118,49.2803115 174.030883,44.40655 C173.880034,42.0403176 173.053871,39.3433706 171.552395,36.3157093 C170.050919,33.2880479 166.767706,29.4640609 161.702758,24.8437481 Z" id="path-14"></path>
        <linearGradient x1="73.5673841%" y1="-19.5431663%" x2="50%" y2="100%" id="linearGradient-15">
            <stop stop-color="#FEE97C" offset="0%"></stop>
            <stop stop-color="#FAD111" offset="100%"></stop>
        </linearGradient>
        <path d="M28.706086,72.2511103 C29.4989375,72.3247408 28.7591946,72.5144705 28.3649308,72.5802691 C27.8593095,72.6646523 27.0952558,72.7616515 26.4382518,73.3047218 C25.4371116,74.1322504 24.5452776,75.5557261 24.0997635,76.0891163 C23.157558,77.2171683 22.9550167,77.2258403 22.1917371,78.2616115 C22.0146889,76.6918782 23.4690338,77.1104994 24.2148941,75.3509153 C24.9607544,73.5913311 26.2837952,71.9772029 28.706086,72.2511103 Z" id="path-16"></path>
        <linearGradient x1="50%" y1="0%" x2="50%" y2="100%" id="linearGradient-17">
            <stop stop-color="#FEE97C" offset="0%"></stop>
            <stop stop-color="#FAD111" offset="100%"></stop>
        </linearGradient>
        <path d="M18.2331495,0.356464594 C18.5726268,0.320641492 18.7404293,0.402132402 18.7365569,0.600937322 C18.7283736,1.02106702 18.2351312,2.14430912 18.0870538,2.35732608 C17.3318142,3.44377713 15.6382652,4.11338166 15.3379667,4.74454871 C14.7986172,5.87815283 15.16858,7.39514229 14.6050775,8.25876288 C15.269359,7.38435286 14.0995181,5.02713527 14.4125679,4.58034405 C16.6877053,3.61730497 17.9612325,2.20934515 18.2331495,0.356464594 Z" id="path-18"></path>
        <path d="M7.6611382,8.01434642 C6.86639205,8.2403855 6.34940652,8.44399545 6.11018162,8.62517626 C4.05183323,10.1840994 3.39353754,12.2747112 3.37212435,14.5536961 C3.25118539,12.7423942 3.45820342,11.4633108 3.81218603,10.9580993 C4.70275026,8.9955974 5.98573431,8.01434642 7.6611382,8.01434642 Z" id="path-19"></path>
        <path d="M3.94041188,23.9856439 C3.07334761,24.5496472 2.46804643,25.0451613 2.12450836,25.4721864 C0.915665087,26.974804 0.21062441,28.8037538 0.0298950615,29.8282474 C-0.00988948018,28.5137608 0.141099046,27.5882079 0.416551359,27.1884958 C1.32247717,25.1587245 2.49709734,24.0911072 3.94041188,23.9856439 Z" id="path-20"></path>
        <ellipse id="path-21" cx="37.2936803" cy="37.345624" rx="37.2936803" ry="37.345624"></ellipse>
        <linearGradient x1="68.8337472%" y1="74.6287703%" x2="-26.890129%" y2="-21.0248975%" id="linearGradient-23">
            <stop stop-color="#E5CD01" offset="0%"></stop>
            <stop stop-color="#84B500" offset="100%"></stop>
        </linearGradient>
        <path d="M55.7101928,14.1225163 C52.5192895,20.7344964 51.0355587,25.6172383 51.2590003,28.770742 C51.4214075,31.0628461 53.4608018,33.8043694 55.7101928,40.552247 C56.2737577,42.2428679 57.1017135,46.0471141 58.1940602,51.9649855 C62.2480124,48.3649779 64.7032689,45.6368052 65.5598299,43.7804673 C66.4163908,41.9241294 67.2425534,38.5590798 68.0383177,33.6853183 C67.8874688,31.3190858 67.0613062,28.6221389 65.5598299,25.5944775 C64.0583535,22.5668162 60.7751412,18.7428291 55.7101928,14.1225163 Z" id="path-24"></path>
        <linearGradient x1="42.5554126%" y1="70.5088038%" x2="66.4591342%" y2="18.6179209%" id="linearGradient-25">
            <stop stop-color="#F1CF35" offset="0%"></stop>
            <stop stop-color="#84B500" offset="100%"></stop>
        </linearGradient>
        <path d="M20.4503956,52.8414926 C23.6167271,50.9668803 26.5121603,48.4509102 29.7904969,46.1814998 C34.1871864,43.1379157 32.1858352,35.380066 35.7746277,30.8567167 C39.0571201,26.719431 47.9933451,25.9000095 50.6474404,21.2607612 C50.5167532,17.6046635 50.4337123,15.4138337 50.3983178,14.6882717 C50.3097044,12.8717628 50.4979549,12.2113718 50.9426242,11.6730722 C56.4467234,5.0100199 64.2411121,7.32463116 66.7740502,10.4936569 C68.4626756,12.6063407 69.5641555,15.0395795 70.0784898,17.7933733 C69.477386,20.0137518 68.8476094,21.4994789 68.1891601,22.2505546 C65.6340123,25.1651438 62.6203299,26.2012264 62.2950076,26.2117464 C60.8313123,26.2590783 59.3320021,28.2141247 58.3392048,31.440439 C57.4197761,34.4283258 57.1694205,40.0315119 57.4267947,41.6896472 C58.6495255,49.5670991 54.4842314,59.3935845 44.9309126,71.1691034 C43.6725852,74.0439096 19.0072968,53.6958727 20.4503956,52.8414926 Z" id="path-26"></path>
        <linearGradient x1="50%" y1="0%" x2="2.64755002%" y2="72.6442463%" id="linearGradient-27">
            <stop stop-color="#FFFFFF" offset="0%"></stop>
            <stop stop-color="#E8BE05" offset="100%"></stop>
        </linearGradient>
        <linearGradient x1="-10.3554921%" y1="86.3196125%" x2="84.1996671%" y2="-16.4284662%" id="linearGradient-28">
            <stop stop-color="#FBD629" stop-opacity="0" offset="0%"></stop>
            <stop stop-color="#FBD629" offset="14.8345366%"></stop>
            <stop stop-color="#84B500" offset="100%"></stop>
        </linearGradient>
        <path d="M4.3491904,19.9464286 C15.4033897,19.322815 28.5397187,17.7327032 35.7763011,14.1249483 C40.8854207,11.5778273 38.2532726,3.81921096 39.418943,3.04967659 C40.9104665,2.06502558 43.9170924,2.38279702 46.3091792,2.68807166 C47.8491779,2.88460404 49.0376843,3.37924267 49.72526,2.50879309 C49.4452372,9.38684618 49.1193769,15.6520718 48.747679,21.3044698 C48.5599595,24.1591142 42.1688826,24.7161232 42.4137873,28.2727423 C42.6178073,31.2356171 43.4293468,34.7071948 44.8484056,38.6874754 C43.6967011,40.5931466 33.3685065,48.0084887 18.0475164,51.8587924 C7.24119445,54.574519 -0.263934651,20.2066743 4.3491904,19.9464286 Z" id="path-29"></path>
        <linearGradient x1="30.8928401%" y1="30.1638406%" x2="7.35798632%" y2="103.433514%" id="linearGradient-30">
            <stop stop-color="#FFFFFF" offset="0%"></stop>
            <stop stop-color="#E8BE05" offset="100%"></stop>
        </linearGradient>
        <linearGradient x1="23.7616683%" y1="60.677779%" x2="89.6386323%" y2="5.22021886%" id="linearGradient-31">
            <stop stop-color="#F2D037" offset="0%"></stop>
            <stop stop-color="#84B500" offset="100%"></stop>
        </linearGradient>
        <path d="M3.97207365,29.1958293 C16.8807334,27.4130717 29.3905946,23.0880533 37.6412479,12.6429818 C37.5039723,9.86154031 37.4167451,8.19482744 37.3795662,7.64284321 C37.2864855,6.26090163 37.4842264,5.75849744 37.9513128,5.3489764 C41.8056984,1.96961912 46.2426797,1.1523876 51.2622565,2.89728183 L51.2622565,17.6128668 C42.520038,16.4124877 38.6350774,22.872376 39.6073747,36.9925317 C39.8113948,39.9554065 37.530401,43.8984507 32.7643934,48.8216641 C32.1130179,49.8994645 28.5263098,52.7396726 22.761156,55.7005505 C11.1431615,61.6673408 -4.15002018,30.3175356 3.97207365,29.1958293 Z" id="path-32"></path>
        <linearGradient x1="51.9141464%" y1="-5.36206735%" x2="50%" y2="100%" id="linearGradient-33">
            <stop stop-color="#FEE97C" offset="0%"></stop>
            <stop stop-color="#E8BE05" offset="100%"></stop>
        </linearGradient>
        <linearGradient x1="14.7854975%" y1="62.7110374%" x2="100%" y2="-20.7355388%" id="linearGradient-34">
            <stop stop-color="#F1D035" offset="0%"></stop>
            <stop stop-color="#84B500" offset="100%"></stop>
        </linearGradient>
        <path d="M9.15021511,38.9325236 C21.9171271,35.4734624 33.4409409,28.2636079 40.7847106,13.5083227 C41.5465662,11.9775833 45.4985396,11.9775833 52.6406306,13.5083227 L52.6406306,28.7283186 C43.7476152,27.4867938 39.7956418,34.1681098 40.7847106,48.7722667 C40.9922499,51.8367009 38.6719106,55.9149021 33.8236929,61.0068701 C31.8257809,64.3680587 -0.202767885,41.4666165 9.15021511,38.9325236 Z" id="path-35"></path>
        <linearGradient x1="87.9203828%" y1="0%" x2="13.3958991%" y2="104.588463%" id="linearGradient-36">
            <stop stop-color="#4F5001" offset="0%"></stop>
            <stop stop-color="#684A02" offset="100%"></stop>
        </linearGradient>
        <path d="M150.163129,57.1261655 L145.837361,65.0941384 L146.814582,57.9538629 C146.350884,55.217673 146.119034,52.9878151 146.119034,51.2642892 C146.119034,49.5407634 147.467066,46.8380207 150.163129,43.1560612 L151.341972,44.0112359 L150.163129,57.1261655 Z" id="path-37"></path>
    </defs>
    <g id="Logo-applications" stroke="none" stroke-width="1" fill="none" fill-rule="evenodd">
        <g id="Stock-in-cube" transform="translate(-1672.000000, -1291.000000)">
            <g id="Group-12" transform="translate(1672.000000, 1291.000000)">
                <g id="Group-10">
                    <g id="Logo-Main---door-open---extra-colourful">
                        <g id="Logo-main---no-sides">
                            <g id="Group-6" transform="translate(286.189689, 0.000000)">
                                <polygon id="Rectangle-10" fill="#41A39B" points="0.511425829 57.5398017 268.447471 0.23576551 268.447471 277.488092 0.511425829 346.603132"></polygon>
                                <polygon id="Rectangle-9" fill="#60BDB7" points="0.556869479 346.469826 268.419895 277.45868 506.038911 355.123616 234.865813 428.596985"></polygon>
                                <polygon id="Rectangle-5" fill="#4CB0A8" points="268.405944 0.193348297 506.038911 62.8679218 506.038911 355.225088 268.405944 277.648443"></polygon>
                                <polygon id="Rectangle-7" fill="#C3EBE9" points="268.425132 0.20605458 506.128579 62.9904117 235.608696 125.535792 0.525948726 57.5818966"></polygon>
                            </g>
                        </g>
                        <g id="Group-6" transform="translate(680.884740, 26.972477)" fill="#AAE2DE">
                            <polygon id="Rectangle-4" points="0.210915768 61.6549408 268.843144 0.0171378611 268.843144 286.825577 0.210915768 358.104468"></polygon>
                        </g>
                    </g>
                    <g id="Group-11" transform="translate(521.000000, 88.000000)">
                        <g id="Group-5">
                            <g id="inside-the-cube">
                                <mask id="mask-2" fill="white">
                                    <use xlink:href="#path-1"></use>
                                </mask>
                                <g id="Mask"></g>
                                <g id="Potato" mask="url(#mask-2)">
                                    <g transform="translate(24.619481, 184.792554) rotate(49.000000) translate(-24.619481, -184.792554) translate(-15.165060, 159.638507)" id="Oval-2-+-Oval-2-Copy-+-Rectangle-Mask-Copy">
                                        <g transform="translate(-0.202020, 0.600000)">
                                            <path d="M38.7606395,45.8750549 C45.3893921,44.7619272 51.511957,44.5834764 56.7930727,41.5460436 C70.4285219,33.7036171 82.6612439,21.8309837 79.3038128,12.0535595 C74.6340692,-1.54554694 57.440624,0.469191061 40.5861077,4.03511231 C33.7124205,5.48938288 22.2036331,9.55476436 18.9229425,11.2284621 C15.5028415,11.2284621 0,18.1367782 0,29.360104 C4.19629656e-16,33.3674905 3.16198792,36.5498199 7.45694151,39.9953604 C13.615555,44.9359846 17.2990133,49.4789807 38.7606395,45.8750549 Z" id="Mask-Copy" fill="#7E7870"></path>
                                            <g id="Potato-Copy-2">
                                                <g id="Oval-2-+-Oval-2-Copy-+-Rectangle-Mask-Copy">
                                                    <path d="M38.7606395,44.4750549 C45.3893921,43.3619272 51.511957,43.1834764 56.7930727,40.1460436 C70.4285219,32.3036171 82.6612439,20.4309837 79.3038128,10.6535595 C74.6340692,-2.94554694 57.440624,-0.930808939 40.5861077,2.63511231 C33.7124205,4.08938288 22.2036331,8.15476436 18.9229425,9.82846208 C15.5028415,9.82846208 0,16.7367782 0,27.960104 C4.19629656e-16,31.9674905 3.16198792,35.1498199 7.45694151,38.5953604 C13.615555,43.5359846 17.2990133,48.0789807 38.7606395,44.4750549 Z" id="Mask" fill="#CA9B57"></path>
                                                    <path d="M62.7712778,0.0654976078 C70.5889378,0.510659549 76.7781419,3.29836625 79.3038128,10.6535595 C81.5755137,17.2691482 76.7098405,24.8439508 69.101559,31.4805288 C69.0500527,31.3269054 69.0166171,31.1475403 69.0012522,30.9424334 C68.5899146,25.451454 70.1524766,16.6048891 70.323211,14.7251853 C70.6660901,10.9502488 71.653726,8.53486734 71.1921668,7.16656444 C69.8104224,3.07035108 63.6576685,4.1112505 62.7864038,2.09685461 C62.5423455,1.53258288 62.5672894,0.812047755 62.7712778,0.0654976078 Z" id="Combined-Shape" fill="#BA8E56"></path>
                                                    <path d="M47.0164479,1.37706609 C49.8409139,0.880339795 52.628353,0.47885458 55.3168949,0.240252898 C57.2452013,1.00095585 58.3550211,1.59051731 58.6463544,2.00893729 C59.305231,2.95523164 58.8692663,3.88551438 58.6463544,4.07943748 C58.2367342,4.43578827 57.1575738,4.68208282 55.4088733,4.81832113 L49.5232732,4.07943748 L47.0164479,1.37706609 Z" id="Combined-Shape" fill="#BA8E56"></path>
                                                    <path d="M31.1958293,45.4894033 C30.457848,42.0088728 29.9468894,39.8597954 29.6629535,39.0421712 C28.5090626,35.7194167 27.9733902,34.6276144 27.8772971,32.710718 C27.804748,31.2634869 29.1815581,31.6334 29.6629535,30.0099426 C29.9482113,29.0479398 30.2041235,26.9002362 30.4306903,23.5668318 L33.5272287,20.2214359 C35.8551937,22.0058059 37.1844097,23.5356303 37.5148766,24.8109092 C37.7020792,25.5333282 35.6827218,29.0214363 36.1894802,33.2872735 C36.2843028,34.0854791 33.1602596,33.6016809 33.5272287,34.882642 C33.777829,35.7574002 33.0402674,36.7844636 34.5123,39.0421712 C35.5215146,40.5900388 38.036294,39.0124117 39.0686842,40.0461303 C39.8078059,40.786203 40.7312295,42.8435175 40.8913396,44.1421647 C40.1872986,44.2454055 39.4769243,44.3547734 38.7606395,44.4750549 C35.9491109,44.9471785 33.4426855,45.2794873 31.1958293,45.4894033 Z" id="Combined-Shape" fill="#BA8E56"></path>
                                                    <path d="M21.1002831,45.5077864 C14.2028482,44.6305727 11.3157592,41.6910196 7.45694151,38.5953604 C5.82375251,37.2851672 4.35438569,36.0130333 3.16040418,34.7191216 C3.17804729,34.6530972 3.19840827,34.5969353 3.22148714,34.5506359 C4.317284,32.3523161 6.55938569,30.8504389 6.75613207,29.7138597 C7.00565813,28.272379 6.59403407,27.0879215 5.5212599,26.1604874 L9.53976641,23.7905467 C10.1120814,25.6558192 10.7330454,26.4457994 11.4026585,26.1604874 C11.7737441,26.0023734 15.8243653,23.7978283 17.9509568,21.4957644 C18.7927204,20.5845441 16.6875056,19.8032452 17.9509568,18.9070247 C18.8205282,18.2902001 20.597527,17.966261 23.2819531,17.9352074 C25.3335811,19.1272564 26.3320209,20.3141087 26.2772725,21.4957644 C26.2428154,22.2394631 17.4585543,25.3447649 16.3245771,31.8076155 C16.0279451,33.4982036 19.63166,32.2579574 21.3950776,36.1028966 C21.8038605,36.9942031 19.3006389,37.0351267 19.3198965,40.0937758 C19.3242484,40.7849935 19.9177106,42.5896636 21.1002831,45.5077864 Z" id="Combined-Shape" fill="#BA8E56"></path>
                                                    <path d="M40.8967381,15.0224026 C41.8757925,13.4155038 43.3195015,13.4155038 45.7575758,14.1799088 C48.19565,14.9443138 53.1479128,17.7942138 54.018162,19.2031075 C54.8884112,20.6120013 52.0976306,22.1225353 51.0663859,22.7746306 C50.0351413,23.4267259 48.1375998,22.2623586 47.5932363,23.2658332 C47.0488729,24.2693077 49.8315138,26.0266261 48.4152113,26.0266261 C46.9989087,26.0266261 42.6940712,24.4847298 40.8967381,21.9139862 C40.3396306,21.1171497 41.0243498,20.505831 40.8967381,19.7187112 C40.6126505,17.9664351 40.2211547,16.1312215 40.8967381,15.0224026 Z" id="Rectangle-3" fill="#BA8E56"></path>
                                                    <ellipse id="Oval-2" fill="#A57135" transform="translate(45.392199, 19.320032) rotate(-32.000000) translate(-45.392199, -19.320032) " cx="45.392199" cy="19.3200316" rx="1" ry="2"></ellipse>
                                                    <ellipse id="Oval-2-Copy" fill="#A57135" transform="translate(72.669941, 14.690484) rotate(8.000000) translate(-72.669941, -14.690484) " cx="72.6699413" cy="14.6904835" rx="1" ry="1.3258561"></ellipse>
                                                </g>
                                            </g>
                                        </g>
                                    </g>
                                </g>
                                <g id="Can-Campbells" mask="url(#mask-2)">
                                    <g transform="translate(46.000000, 121.690583)" id="Group-Copy">
                                        <g>
                                            <path d="M34.6349838,103.919255 C53.4204439,103.919255 68.6490683,101.967105 68.6490683,99.5590062 C68.6490683,99.1735104 69.3414284,4.47722205 68.6490683,3.96931898 C64.8189252,1.15959385 49.1571297,0 34.6349838,0 C20.1128379,0 3.9846169,1.11180949 0.620899287,3.96931898 C-0.229469179,4.69171492 0.620899287,99.1208093 0.620899287,99.5590062 C0.620899287,101.967105 15.8495236,103.919255 34.6349838,103.919255 Z" id="Oval-Copy" stroke="#979797" stroke-width="1.5" fill="#FFFFFF"></path>
                                            <path d="M34.6349838,52.0807453 C53.4204439,52.0807453 68.8298005,50.1285956 68.8298005,47.7204969 C68.8298005,47.3350011 69.1393547,4.86667011 68.6286362,4.05033272 C64.7984931,1.24060759 49.1571297,0.242236025 34.6349838,0.242236025 C20.2899948,0.242236025 4.37787699,1.1697721 0.749674788,3.94660533 C-0.0670272644,5.42408132 0.315366924,47.2823 0.315366924,47.7204969 C0.315366924,50.1285956 15.8495236,52.0807453 34.6349838,52.0807453 Z" id="Oval-Copy-2" fill="#C91129"></path>
                                            <path d="M34.7429577,8.72049689 C53.5284179,8.72049689 68.7570423,6.76834717 68.7570423,4.36024845 C68.7570423,1.95214972 53.5284179,0 34.7429577,0 C15.9574976,0 0.580072345,1.95214972 0.580072345,4.36024845 C0.580072345,6.76834717 15.9574976,8.72049689 34.7429577,8.72049689 Z" id="Oval" fill="#C3CCD4"></path>
                                            <ellipse id="Oval-3" fill="#EFB324" cx="34.5" cy="50.6273292" rx="13.3626761" ry="13.3229814"></ellipse>
                                        </g>
                                    </g>
                                </g>
                                <g id="Can-Heinz" mask="url(#mask-2)">
                                    <g transform="translate(101.500000, 136.713004)">
                                        <g id="Group-Copy" stroke-width="1" fill="none" transform="translate(0.242958, 0.000000)">
                                            <path d="M34.392026,103.919255 C53.1774862,103.919255 68.4061106,101.967105 68.4061106,99.5590062 C68.4061106,99.1735104 69.0984706,4.47722205 68.4061106,3.96931898 C64.5759674,1.15959385 48.914172,0 34.392026,0 C19.8698801,0 3.74165916,1.11180949 0.37794154,3.96931898 C-0.472426925,4.69171492 0.37794154,99.1208093 0.37794154,99.5590062 C0.37794154,101.967105 15.6065659,103.919255 34.392026,103.919255 Z" id="Oval-Copy" stroke="#979797" stroke-width="1.5" fill="#53AA9F"></path>
                                            <path d="M34.5,8.72049689 C53.2854602,8.72049689 68.5140845,6.76834717 68.5140845,4.36024845 C68.5140845,1.95214972 53.2854602,0 34.5,0 C15.7145398,0 0.337114599,1.95214972 0.337114599,4.36024845 C0.337114599,6.76834717 15.7145398,8.72049689 34.5,8.72049689 Z" id="Oval" fill="#C3CCD4"></path>
                                        </g>
                                        <path d="M56.7843785,28.9532064 C49.4181122,24.6697023 42.0518459,22.5279503 34.6855796,22.5279503 C27.3193133,22.5279503 19.953047,24.6697023 12.5867807,28.9532064 L15.2764078,40.4427869 L8.74647887,40.4427869 L15.4171687,81.2683776 C22.1837971,82.6294134 28.7825946,83.3099314 35.2135614,83.3099314 C41.6445282,83.3099314 47.8783007,82.6294134 53.9148789,81.2683776 L60.4964789,40.4427869 L53.9148789,40.4427869 L56.7843785,28.9532064 Z" id="Combined-Shape" fill="#130F12"></path>
                                    </g>
                                </g>
                                <g id="Group" mask="url(#mask-2)">
                                    <g transform="translate(125.283351, 239.670526) scale(-1, 1) rotate(17.000000) translate(-125.283351, -239.670526) translate(60.033351, 181.834203)" id="carrot">
                                        <g transform="translate(74.298206, 79.078472) rotate(64.000000) translate(-74.298206, -79.078472) translate(61.548206, 24.246633)">
                                            <g>
                                                <path d="M18.634382,14.6148651 C17.2012075,9.9877604 20.1474534,6.86981247 20.1474534,13.4769991 C20.1474534,17.8817902 18.4671831,25.0437295 15.1066426,34.9628171 L14.1404875,34.8752564 C18.0918669,24.4530653 19.5898317,17.6996015 18.634382,14.6148651 Z" id="Rectangle-4-Copy-4" fill="#738904"></path>
                                                <path d="M10.8927681,5.82802548 C10.2054311,5.5376776 9.58263851,5.5376776 9.02439023,5.82802548 C10.6909145,19.9291835 11.5241767,29.9599989 11.5241767,35.9204716 C11.5241767,44.8611807 15.985679,46.201351 14.9997767,35.9204716 C14.0138743,25.6395922 10.8927681,10.9370868 10.8927681,5.82802548 Z" id="Rectangle" fill="#738A16"></path>
                                                <path d="M7.87780549,0.286624204 C8.45429736,0.060078019 9.18437478,0.060078019 10.0680377,0.286624204 C10.645531,10.4180185 9.4470791,24.427434 11.7930641,34.6815287 C11.7331396,40.9416662 10.8999499,41.143957 9.29349511,35.2884012 C7.18885635,27.616956 8.31661827,21.8357186 7.87780549,16.1402887 C7.72069229,14.1010883 7.87780549,6.14471775 7.87780549,0.286624204 Z" id="Rectangle-4" fill="#95AC20"></path>
                                                <path d="M20.2166885,2.19745223 L22.3833216,3.26019907 C19.1344614,8.68234591 15.2812007,19.1053283 12.6872458,24.0004292 C12.0652275,28.7006635 11.6835125,30.9937785 11.5421008,30.8797741 C11.2132936,30.6146936 10.9970224,25.2213697 10.9970224,24.3100878 C10.9970224,23.3988059 11.5080276,21.7411147 11.7248688,21.2674699 C15.4371312,13.1588017 18.189384,5.49423389 20.2166885,2.19745223 Z" id="Rectangle-4-Copy-3" fill="#B6CC3B"></path>
                                                <path d="M20.9990643,2.77070064 L23.0394688,3.82221864 C19.1824823,20.2204206 15.3329473,27.699917 13.9043949,34.1632757 C13.2146621,37.2839108 6.98531852,45.3539954 10.9900249,33.438181 C13.6598292,25.4943047 16.9961757,15.2718112 20.9990643,2.77070064 Z" id="Rectangle-4-Copy-2" fill="#C7D249"></path>
                                                <path d="M14.3274069,0.286624204 C14.9425708,-0.186473133 15.537036,0.0675591981 16.1108026,1.0487212 C15.4663846,7.73412428 14.6374349,19.0193207 13.6239535,34.9043104 L10.827608,35.2480744 C12.7802234,22.7646083 13.6095911,6.9934405 14.3274069,0.286624204 Z" id="Rectangle-4-Copy" fill="#82A002"></path>
                                                <path d="M5.37792332,36.3736981 C8.43056256,35.1592357 14.2340974,33.9447733 17.2531923,35.1592357 C20.2722873,36.3736981 23.7948902,38.36399 25.6662464,45.2949478 C26.4187367,48.0819523 25.6068275,49.0735091 24.1433262,60.7564437 C23.1804552,68.4429137 21.2769699,92.1141833 20.2722873,95.8353385 C19.2676046,99.5564938 16.6841857,107.838744 15.216566,109.494385 C14.6463438,110.13766 12.0274198,110.553298 9.89399373,107.353819 C8.36679032,105.063486 6.15228052,99.0106727 5.37792332,95.8353385 C4.60356612,92.6600044 0.0553510675,54.8324375 0.0553510675,46.9087205 C0.0553510675,38.9850036 2.32528409,37.5881605 5.37792332,36.3736981 Z" id="Rectangle-3" fill="#F8823C"></path>
                                                <g id="marks" transform="translate(0.291771, 45.477707)" fill="#FBB86B" fill-rule="nonzero">
                                                    <g id="Line-+-Line-Copy-+-Line-Copy-3-+-Line-Copy-5-+-Line-+-Line-Copy-2-+-Line-Copy-4-+-Line-Copy-6-Mask">
                                                        <path d="M25.62813,2.62812249 C25.597159,3.03515901 25.5442462,3.48782683 25.4715299,4.0153752 L25.2677947,3.77930061 C23.7432674,2.01278076 20.6106965,1.09872611 15.8528678,1.09872611 L15.3179551,1.09872611 L15.3179551,0.0477707006 L15.8528678,0.0477707006 C20.492093,0.0477707006 23.7549855,0.891888877 25.62813,2.62812249 Z" id="Combined-Shape"></path>
                                                        <path d="M23.4713277,18.637761 C23.4345446,18.9857547 23.3970363,19.3455144 23.3588613,19.715896 C21.679678,19.0921061 19.4382105,18.7738854 16.6309227,18.7738854 L16.09601,18.7738854 L16.09601,17.7229299 L16.6309227,17.7229299 C19.4036531,17.7229299 21.6847428,18.0244579 23.4713277,18.637761 Z" id="Combined-Shape"></path>
                                                        <path d="M22.9290847,24.0172832 C22.8950121,24.3658416 22.8606403,24.718678 22.8260002,25.075189 C21.3274431,24.6979458 19.4899005,24.5063694 17.3117207,24.5063694 L16.776808,24.5063694 L16.776808,23.455414 L17.3117207,23.455414 C19.4873216,23.455414 21.3602375,23.6410537 22.9290847,24.0172832 Z" id="Combined-Shape"></path>
                                                        <path d="M21.6692186,36.9477577 C21.6333514,37.3044576 21.5975404,37.6585732 21.5618142,38.0095484 C20.6101141,37.7434056 19.6065358,37.538903 18.6024237,37.3886997 C18.190702,37.3271109 17.8086503,37.279279 17.4663906,37.2435843 C17.3471773,37.2311514 17.2416584,37.2211356 17.1510942,37.2133315 C17.0977349,37.2087334 17.0618296,37.2059331 17.0446366,37.2047241 L16.511089,37.1672058 L16.5874729,36.1189326 L17.1210204,36.1564509 C17.1438304,36.1580548 17.1854309,36.1612993 17.24458,36.1663963 C17.34153,36.1747507 17.4535274,36.1853814 17.5793326,36.1985018 C17.9371256,36.2358165 18.3351326,36.285646 18.763474,36.3497209 C19.744906,36.4965315 20.726807,36.6933006 21.6692186,36.9477577 Z" id="Combined-Shape"></path>
                                                        <path d="M0.114228996,7.71284601 C0.0776316952,7.25732737 0.0435170905,6.81681483 0.012070256,6.39274403 C1.58451669,5.21014624 4.1060105,4.53965741 7.57591349,4.34796273 L8.10998235,4.31845811 L8.1700511,5.36775559 L7.63598224,5.3972602 C3.93559299,5.60168809 1.45334256,6.36498536 0.188295066,7.63829614 L0.114228996,7.71284601 Z" id="Combined-Shape"></path>
                                                        <path d="M0.963732156,16.8561398 C2.34537037,16.3377222 4.05725329,15.9530315 6.09998693,15.6961185 L6.63056893,15.6293876 L6.76642701,16.6718343 L6.23584501,16.7385652 C4.12176234,17.0044517 2.4012698,17.4085192 1.07516365,17.942951 C1.0375082,17.578342 1.00034972,17.2159581 0.963732156,16.8561398 Z" id="Combined-Shape"></path>
                                                        <path d="M2.33816078,29.452238 C3.9307966,28.4129487 6.06193797,27.8990563 8.71621312,27.8990563 L9.25112583,27.8990563 L9.25112583,28.9500118 L8.71621312,28.9500118 C5.97981806,28.9500118 3.9074382,29.5232283 2.4774724,30.6534945 C2.43101587,30.2548041 2.38456055,29.8542448 2.33816078,29.452238 Z" id="Combined-Shape"></path>
                                                        <path d="M3.78691532,41.3962331 C4.94594633,40.981327 6.30267272,40.6470553 7.85704107,40.3908421 L8.38457897,40.3038857 L8.56161431,41.3403517 L8.0340764,41.427308 C6.42961307,41.6917787 5.06001397,42.0396165 3.92520927,42.4674539 C3.87984264,42.1184647 3.83371833,41.7611868 3.78691532,41.3962331 Z" id="Combined-Shape"></path>
                                                    </g>
                                                </g>
                                            </g>
                                        </g>
                                        <g transform="translate(46.455418, 50.002669) rotate(41.000000) translate(-46.455418, -50.002669) translate(33.705418, -4.829169)">
                                            <g>
                                                <path d="M18.634382,14.6148651 C17.2012075,9.9877604 20.1474534,6.86981247 20.1474534,13.4769991 C20.1474534,17.8817902 18.4671831,25.0437295 15.1066426,34.9628171 L14.1404875,34.8752564 C18.0918669,24.4530653 19.5898317,17.6996015 18.634382,14.6148651 Z" id="Rectangle-4-Copy-4" fill="#738904"></path>
                                                <path d="M10.8927681,5.82802548 C10.2054311,5.5376776 9.58263851,5.5376776 9.02439023,5.82802548 C10.6909145,19.9291835 11.5241767,29.9599989 11.5241767,35.9204716 C11.5241767,44.8611807 15.985679,46.201351 14.9997767,35.9204716 C14.0138743,25.6395922 10.8927681,10.9370868 10.8927681,5.82802548 Z" id="Rectangle" fill="#738A16"></path>
                                                <path d="M7.87780549,0.286624204 C8.45429736,0.060078019 9.18437478,0.060078019 10.0680377,0.286624204 C10.645531,10.4180185 9.4470791,24.427434 11.7930641,34.6815287 C11.7331396,40.9416662 10.8999499,41.143957 9.29349511,35.2884012 C7.18885635,27.616956 8.31661827,21.8357186 7.87780549,16.1402887 C7.72069229,14.1010883 7.87780549,6.14471775 7.87780549,0.286624204 Z" id="Rectangle-4" fill="#95AC20"></path>
                                                <path d="M20.2166885,2.19745223 L22.3833216,3.26019907 C19.1344614,8.68234591 15.2812007,19.1053283 12.6872458,24.0004292 C12.0652275,28.7006635 11.6835125,30.9937785 11.5421008,30.8797741 C11.2132936,30.6146936 10.9970224,25.2213697 10.9970224,24.3100878 C10.9970224,23.3988059 11.5080276,21.7411147 11.7248688,21.2674699 C15.4371312,13.1588017 18.189384,5.49423389 20.2166885,2.19745223 Z" id="Rectangle-4-Copy-3" fill="#B6CC3B"></path>
                                                <path d="M20.9990643,2.77070064 L23.0394688,3.82221864 C19.1824823,20.2204206 15.3329473,27.699917 13.9043949,34.1632757 C13.2146621,37.2839108 6.98531852,45.3539954 10.9900249,33.438181 C13.6598292,25.4943047 16.9961757,15.2718112 20.9990643,2.77070064 Z" id="Rectangle-4-Copy-2" fill="#C7D249"></path>
                                                <path d="M14.3274069,0.286624204 C14.9425708,-0.186473133 15.537036,0.0675591981 16.1108026,1.0487212 C15.4663846,7.73412428 14.6374349,19.0193207 13.6239535,34.9043104 L10.827608,35.2480744 C12.7802234,22.7646083 13.6095911,6.9934405 14.3274069,0.286624204 Z" id="Rectangle-4-Copy" fill="#82A002"></path>
                                                <path d="M5.37792332,36.3736981 C8.43056256,35.1592357 14.2340974,33.9447733 17.2531923,35.1592357 C20.2722873,36.3736981 23.7948902,38.36399 25.6662464,45.2949478 C26.4187367,48.0819523 25.6068275,49.0735091 24.1433262,60.7564437 C23.1804552,68.4429137 21.2769699,92.1141833 20.2722873,95.8353385 C19.2676046,99.5564938 16.6841857,107.838744 15.216566,109.494385 C14.6463438,110.13766 12.0274198,110.553298 9.89399373,107.353819 C8.36679032,105.063486 6.15228052,99.0106727 5.37792332,95.8353385 C4.60356612,92.6600044 0.0553510675,54.8324375 0.0553510675,46.9087205 C0.0553510675,38.9850036 2.32528409,37.5881605 5.37792332,36.3736981 Z" id="Rectangle-3" fill="#F8823C"></path>
                                                <g id="marks" transform="translate(0.291771, 45.477707)" fill="#FBB86B" fill-rule="nonzero">
                                                    <g id="Line-+-Line-Copy-+-Line-Copy-3-+-Line-Copy-5-+-Line-+-Line-Copy-2-+-Line-Copy-4-+-Line-Copy-6-Mask">
                                                        <path d="M25.62813,2.62812249 C25.597159,3.03515901 25.5442462,3.48782683 25.4715299,4.0153752 L25.2677947,3.77930061 C23.7432674,2.01278076 20.6106965,1.09872611 15.8528678,1.09872611 L15.3179551,1.09872611 L15.3179551,0.0477707006 L15.8528678,0.0477707006 C20.492093,0.0477707006 23.7549855,0.891888877 25.62813,2.62812249 Z" id="Combined-Shape"></path>
                                                        <path d="M23.4713277,18.637761 C23.4345446,18.9857547 23.3970363,19.3455144 23.3588613,19.715896 C21.679678,19.0921061 19.4382105,18.7738854 16.6309227,18.7738854 L16.09601,18.7738854 L16.09601,17.7229299 L16.6309227,17.7229299 C19.4036531,17.7229299 21.6847428,18.0244579 23.4713277,18.637761 Z" id="Combined-Shape"></path>
                                                        <path d="M22.9290847,24.0172832 C22.8950121,24.3658416 22.8606403,24.718678 22.8260002,25.075189 C21.3274431,24.6979458 19.4899005,24.5063694 17.3117207,24.5063694 L16.776808,24.5063694 L16.776808,23.455414 L17.3117207,23.455414 C19.4873216,23.455414 21.3602375,23.6410537 22.9290847,24.0172832 Z" id="Combined-Shape"></path>
                                                        <path d="M21.6692186,36.9477577 C21.6333514,37.3044576 21.5975404,37.6585732 21.5618142,38.0095484 C20.6101141,37.7434056 19.6065358,37.538903 18.6024237,37.3886997 C18.190702,37.3271109 17.8086503,37.279279 17.4663906,37.2435843 C17.3471773,37.2311514 17.2416584,37.2211356 17.1510942,37.2133315 C17.0977349,37.2087334 17.0618296,37.2059331 17.0446366,37.2047241 L16.511089,37.1672058 L16.5874729,36.1189326 L17.1210204,36.1564509 C17.1438304,36.1580548 17.1854309,36.1612993 17.24458,36.1663963 C17.34153,36.1747507 17.4535274,36.1853814 17.5793326,36.1985018 C17.9371256,36.2358165 18.3351326,36.285646 18.763474,36.3497209 C19.744906,36.4965315 20.726807,36.6933006 21.6692186,36.9477577 Z" id="Combined-Shape"></path>
                                                        <path d="M0.114228996,7.71284601 C0.0776316952,7.25732737 0.0435170905,6.81681483 0.012070256,6.39274403 C1.58451669,5.21014624 4.1060105,4.53965741 7.57591349,4.34796273 L8.10998235,4.31845811 L8.1700511,5.36775559 L7.63598224,5.3972602 C3.93559299,5.60168809 1.45334256,6.36498536 0.188295066,7.63829614 L0.114228996,7.71284601 Z" id="Combined-Shape"></path>
                                                        <path d="M0.963732156,16.8561398 C2.34537037,16.3377222 4.05725329,15.9530315 6.09998693,15.6961185 L6.63056893,15.6293876 L6.76642701,16.6718343 L6.23584501,16.7385652 C4.12176234,17.0044517 2.4012698,17.4085192 1.07516365,17.942951 C1.0375082,17.578342 1.00034972,17.2159581 0.963732156,16.8561398 Z" id="Combined-Shape"></path>
                                                        <path d="M2.33816078,29.452238 C3.9307966,28.4129487 6.06193797,27.8990563 8.71621312,27.8990563 L9.25112583,27.8990563 L9.25112583,28.9500118 L8.71621312,28.9500118 C5.97981806,28.9500118 3.9074382,29.5232283 2.4774724,30.6534945 C2.43101587,30.2548041 2.38456055,29.8542448 2.33816078,29.452238 Z" id="Combined-Shape"></path>
                                                        <path d="M3.78691532,41.3962331 C4.94594633,40.981327 6.30267272,40.6470553 7.85704107,40.3908421 L8.38457897,40.3038857 L8.56161431,41.3403517 L8.0340764,41.427308 C6.42961307,41.6917787 5.06001397,42.0396165 3.92520927,42.4674539 C3.87984264,42.1184647 3.83371833,41.7611868 3.78691532,41.3962331 Z" id="Combined-Shape"></path>
                                                    </g>
                                                </g>
                                            </g>
                                        </g>
                                        <g transform="translate(62.735452, 63.234204) rotate(51.000000) translate(-62.735452, -63.234204) translate(49.985452, 2.393397)">
                                            <g>
                                                <path d="M18.634382,16.209214 C17.2012075,11.0773343 20.1474534,7.61924655 20.1474534,14.9472172 C20.1474534,19.832531 18.4671831,27.7757728 15.1066426,38.7769426 L14.1404875,38.6798298 C18.0918669,27.1206724 19.5898317,19.6304672 18.634382,16.209214 Z" id="Rectangle-4-Copy-4" fill="#738904"></path>
                                                <path d="M10.8927681,6.46381008 C10.2054311,6.14178788 9.58263851,6.14178788 9.02439023,6.46381008 C10.6909145,22.1032763 11.5241767,33.2283624 11.5241767,39.8390686 C11.5241767,49.7551277 15.985679,51.2414984 14.9997767,39.8390686 C14.0138743,28.4366387 10.8927681,12.1302235 10.8927681,6.46381008 Z" id="Rectangle" fill="#738A16"></path>
                                                <path d="M7.87780549,0.317892299 C8.45429736,0.0666319848 9.18437478,0.0666319848 10.0680377,0.317892299 C10.645531,11.5545296 9.4470791,27.092245 11.7930641,38.4649682 C11.7331396,45.4080297 10.8999499,45.6323887 9.29349511,39.1380449 C7.18885635,30.6297149 8.31661827,24.2177969 7.87780549,17.9010474 C7.72069229,15.6393888 7.87780549,6.8150506 7.87780549,0.317892299 Z" id="Rectangle-4" fill="#95AC20"></path>
                                                <path d="M20.2166885,2.43717429 L22.3833216,3.61585715 C19.1344614,9.62951092 15.2812007,21.1895459 12.6872458,26.6186579 C12.0652275,31.831645 11.6835125,34.3749179 11.5421008,34.2484767 C11.2132936,33.9544784 10.9970224,27.9727918 10.9970224,26.9620974 C10.9970224,25.9514029 11.5080276,24.1128727 11.7248688,23.5875576 C15.4371312,14.5943074 18.189384,6.09360486 20.2166885,2.43717429 Z" id="Rectangle-4-Copy-3" fill="#B6CC3B"></path>
                                                <path d="M20.9990643,3.07295889 L23.0394688,4.23918795 C19.1824823,22.4262847 15.3329473,30.7217261 13.9043949,37.8901785 C13.2146621,41.3512465 6.98531852,50.301704 10.9900249,37.0859825 C13.6598292,28.2755015 16.9961757,16.937827 20.9990643,3.07295889 Z" id="Rectangle-4-Copy-2" fill="#C7D249"></path>
                                                <path d="M14.3274069,0.317892299 C14.9425708,-0.206815657 15.537036,0.0749292924 16.1108026,1.16312715 C15.4663846,8.57784693 14.6374349,21.0941557 13.6239535,38.7120533 L10.827608,39.0933189 C12.7802234,25.2480201 13.6095911,7.75636129 14.3274069,0.317892299 Z" id="Rectangle-4-Copy" fill="#82A002"></path>
                                                <path d="M5.37792332,40.3417379 C8.43056256,38.9947887 14.2340974,37.6478394 17.2531923,38.9947887 C20.2722873,40.3417379 23.7948902,42.5491525 25.6662464,50.2362148 C26.4187367,53.3272562 25.6068275,54.4269828 24.1433262,67.3844193 C23.1804552,75.9094133 21.2769699,102.163003 20.2722873,106.290103 C19.2676046,110.417202 16.6841857,119.60297 15.216566,121.439227 C14.6463438,122.152677 12.0274198,122.613658 9.89399373,119.065145 C8.36679032,116.524957 6.15228052,109.811837 5.37792332,106.290103 C4.60356612,102.768369 0.0553510675,60.8141579 0.0553510675,52.0260355 C0.0553510675,43.2379131 2.32528409,41.6886871 5.37792332,40.3417379 Z" id="Rectangle-3" fill="#F8823C"></path>
                                                <g id="marks" transform="translate(0.291771, 50.438911)" fill="#FBB86B" fill-rule="nonzero">
                                                    <g id="Line-+-Line-Copy-+-Line-Copy-3-+-Line-Copy-5-+-Line-+-Line-Copy-2-+-Line-Copy-4-+-Line-Copy-6-Mask">
                                                        <path d="M25.62813,2.91482676 C25.597159,3.36626726 25.5442462,3.86831703 25.4715299,4.45341613 L25.2677947,4.19158795 C23.7432674,2.23235684 20.6106965,1.21858715 15.8528678,1.21858715 L15.3179551,1.21858715 L15.3179551,0.0529820498 L15.8528678,0.0529820498 C20.492093,0.0529820498 23.7549855,0.989185846 25.62813,2.91482676 Z" id="Combined-Shape"></path>
                                                        <path d="M23.4713277,20.6709713 C23.4345446,21.056928 23.3970363,21.4559342 23.3588613,21.866721 C21.679678,21.1748813 19.4382105,20.8219456 16.6309227,20.8219456 L16.09601,20.8219456 L16.09601,19.6563405 L16.6309227,19.6563405 C19.4036531,19.6563405 21.6847428,19.9907624 23.4713277,20.6709713 Z" id="Combined-Shape"></path>
                                                        <path d="M22.9290847,26.6373505 C22.8950121,27.0239334 22.8606403,27.415261 22.8260002,27.8106642 C21.3274431,27.3922672 19.4899005,27.1797915 17.3117207,27.1797915 L16.776808,27.1797915 L16.776808,26.0141865 L17.3117207,26.0141865 C19.4873216,26.0141865 21.3602375,26.2200777 22.9290847,26.6373505 Z" id="Combined-Shape"></path>
                                                        <path d="M21.6692186,40.9784221 C21.6333514,41.3740348 21.5975404,41.7667812 21.5618142,42.1560446 C20.6101141,41.860868 19.6065358,41.6340561 18.6024237,41.4674669 C18.190702,41.3991594 17.8086503,41.3461094 17.4663906,41.3065208 C17.3471773,41.2927316 17.2416584,41.2816231 17.1510942,41.2729676 C17.0977349,41.2678679 17.0618296,41.2647622 17.0446366,41.2634213 L16.511089,41.2218101 L16.5874729,40.0591798 L17.1210204,40.100791 C17.1438304,40.1025699 17.1854309,40.1061683 17.24458,40.1118213 C17.34153,40.1210871 17.4535274,40.1328776 17.5793326,40.1474293 C17.9371256,40.1888147 18.3351326,40.2440801 18.763474,40.3151449 C19.744906,40.4779713 20.726807,40.6962061 21.6692186,40.9784221 Z" id="Combined-Shape"></path>
                                                        <path d="M0.114228996,8.55424739 C0.0776316952,8.04903581 0.0435170905,7.56046735 0.012070256,7.09013429 C1.58451669,5.77852583 4.1060105,5.03489276 7.57591349,4.82228593 L8.10998235,4.78956263 L8.1700511,5.95332892 L7.63598224,5.98605222 C3.93559299,6.21278133 1.45334256,7.0593474 0.188295066,8.47156481 L0.114228996,8.55424739 Z" id="Combined-Shape"></path>
                                                        <path d="M0.963732156,18.6949914 C2.34537037,18.1200191 4.05725329,17.6933622 6.09998693,17.4084223 L6.63056893,17.3344117 L6.76642701,18.4905799 L6.23584501,18.5645905 C4.12176234,18.8594828 2.4012698,19.3076304 1.07516365,19.9003639 C1.0375082,19.4959794 1.00034972,19.0940626 0.963732156,18.6949914 Z" id="Combined-Shape"></path>
                                                        <path d="M2.33816078,32.6652094 C3.9307966,31.5125431 6.06193797,30.9425898 8.71621312,30.9425898 L9.25112583,30.9425898 L9.25112583,32.1081949 L8.71621312,32.1081949 C5.97981806,32.1081949 3.9074382,32.7439441 2.4774724,33.9975121 C2.43101587,33.5553282 2.38456055,33.1110716 2.33816078,32.6652094 Z" id="Combined-Shape"></path>
                                                        <path d="M3.78691532,45.9121858 C4.94594633,45.4520172 6.30267272,45.0812796 7.85704107,44.7971158 L8.38457897,44.7006733 L8.56161431,45.8502082 L8.0340764,45.9466507 C6.42961307,46.2399727 5.06001397,46.6257565 3.92520927,47.100267 C3.87984264,46.7132063 3.83371833,46.3169526 3.78691532,45.9121858 Z" id="Combined-Shape"></path>
                                                    </g>
                                                </g>
                                            </g>
                                        </g>
                                    </g>
                                </g>
                                <g id="banana-bunch" mask="url(#mask-2)">
                                    <g transform="translate(2.510467, 230.915376) scale(-1, 1) rotate(-178.000000) translate(-2.510467, -230.915376) translate(-93.489533, 157.305511)" id="banana-bunch-copy">
                                        <g>
                                            <g id="Group-2" transform="translate(0.000000, 4.288493)">
                                                <g id="Path-2-Copy">
                                                    <use fill="#FBCE02" xlink:href="#path-4"></use>
                                                    <use fill="url(#linearGradient-3)" xlink:href="#path-4"></use>
                                                </g>
                                                <g id="Rectangle-6-Copy-5" transform="translate(105.944752, 76.599718) rotate(-23.000000) translate(-105.944752, -76.599718) ">
                                                    <use fill="#FBCE02" xlink:href="#path-6"></use>
                                                    <use fill="url(#linearGradient-5)" xlink:href="#path-6"></use>
                                                </g>
                                                <g id="Rectangle-6-Copy-3" transform="translate(85.232196, 33.208663) rotate(3.000000) translate(-85.232196, -33.208663) ">
                                                    <use fill="#FBCE02" xlink:href="#path-8"></use>
                                                    <use fill="url(#linearGradient-7)" xlink:href="#path-8"></use>
                                                </g>
                                                <g id="Rectangle-6-Copy-4" transform="translate(79.500285, 41.121362) rotate(3.000000) translate(-79.500285, -41.121362) ">
                                                    <use fill="#FBCE02" xlink:href="#path-10"></use>
                                                    <use fill="url(#linearGradient-9)" xlink:href="#path-10"></use>
                                                </g>
                                                <g id="Rectangle-6-Copy-2">
                                                    <use fill="#FBCE02" xlink:href="#path-13"></use>
                                                    <use fill="url(#linearGradient-11)" xlink:href="#path-13"></use>
                                                    <use fill="url(#linearGradient-12)" xlink:href="#path-13"></use>
                                                </g>
                                            </g>
                                            <g id="Group-2-Copy-2" transform="translate(0.000000, 4.288493)">
                                                <g id="Path-2-Copy">
                                                    <use fill="#FBCE02" xlink:href="#path-14"></use>
                                                    <use fill="url(#linearGradient-3)" xlink:href="#path-14"></use>
                                                </g>
                                                <g id="Rectangle-6-Copy-5" transform="translate(25.617447, 75.241109) rotate(-23.000000) translate(-25.617447, -75.241109) ">
                                                    <use fill="#FBCE02" xlink:href="#path-16"></use>
                                                    <use fill="url(#linearGradient-15)" xlink:href="#path-16"></use>
                                                    <use fill="#535D1E" xlink:href="#path-16"></use>
                                                </g>
                                                <g id="Rectangle-6-Copy-3" transform="translate(16.547402, 4.303512) rotate(3.000000) translate(-16.547402, -4.303512) ">
                                                    <use fill="#FBCE02" xlink:href="#path-18"></use>
                                                    <use fill="url(#linearGradient-17)" xlink:href="#path-18"></use>
                                                    <use fill="#17302A" xlink:href="#path-18"></use>
                                                </g>
                                                <g id="Rectangle-6-Copy-4" transform="translate(5.499291, 11.284021) rotate(3.000000) translate(-5.499291, -11.284021) ">
                                                    <use fill="#FBCE02" xlink:href="#path-19"></use>
                                                    <use fill="url(#linearGradient-17)" xlink:href="#path-19"></use>
                                                    <use fill="#555F3A" xlink:href="#path-19"></use>
                                                </g>
                                                <g id="Rectangle-6-Copy-2">
                                                    <use fill="#FBCE02" xlink:href="#path-20"></use>
                                                    <use fill="url(#linearGradient-11)" xlink:href="#path-20"></use>
                                                    <use fill="url(#linearGradient-11)" xlink:href="#path-20"></use>
                                                    <use fill="#1C3120" xlink:href="#path-20"></use>
                                                </g>
                                            </g>
                                            <g id="Group-2-Copy" transform="translate(114.200743, 0.000000)">
                                                <mask id="mask-22" fill="white">
                                                    <use xlink:href="#path-21"></use>
                                                </mask>
                                                <g id="Mask"></g>
                                                <g mask="url(#mask-22)">
                                                    <g transform="translate(-8.208178, 15.009724)">
                                                        <g id="Path-2-Copy">
                                                            <use fill="#FBCE02" xlink:href="#path-24"></use>
                                                            <use fill="url(#linearGradient-11)" xlink:href="#path-24"></use>
                                                            <use fill="url(#linearGradient-23)" xlink:href="#path-24"></use>
                                                        </g>
                                                        <g id="Rectangle-6-Copy-5" transform="translate(45.233987, 39.415678) rotate(-23.000000) translate(-45.233987, -39.415678) ">
                                                            <use fill="#FBCE02" xlink:href="#path-26"></use>
                                                            <use fill="url(#linearGradient-11)" xlink:href="#path-26"></use>
                                                            <use fill="url(#linearGradient-25)" xlink:href="#path-26"></use>
                                                        </g>
                                                        <g id="Rectangle-6-Copy-3" transform="translate(26.344605, 27.198329) rotate(3.000000) translate(-26.344605, -27.198329) ">
                                                            <use fill="#FBCE02" xlink:href="#path-29"></use>
                                                            <use fill="url(#linearGradient-27)" xlink:href="#path-29"></use>
                                                            <use fill="url(#linearGradient-28)" xlink:href="#path-29"></use>
                                                        </g>
                                                        <g id="Rectangle-6-Copy-4" transform="translate(26.476557, 29.230526) rotate(3.000000) translate(-26.476557, -29.230526) ">
                                                            <use fill="#FBCE02" xlink:href="#path-32"></use>
                                                            <use fill="url(#linearGradient-30)" xlink:href="#path-32"></use>
                                                            <use fill="url(#linearGradient-31)" xlink:href="#path-32"></use>
                                                        </g>
                                                        <g id="Rectangle-6-Copy-2">
                                                            <use fill="#FBCE02" xlink:href="#path-35"></use>
                                                            <use fill="url(#linearGradient-33)" xlink:href="#path-35"></use>
                                                            <use fill="url(#linearGradient-34)" xlink:href="#path-35"></use>
                                                        </g>
                                                    </g>
                                                </g>
                                            </g>
                                            <g id="Path-4" opacity="0.601964614">
                                                <use fill="#4A4900" xlink:href="#path-37"></use>
                                                <use fill="url(#linearGradient-36)" xlink:href="#path-37"></use>
                                            </g>
                                            <path d="M151.31304,17.8568364 C150.829994,22.7834291 151.148623,26.3533185 152.268926,28.5665047 C151.631669,29.3795169 151.071517,30.0501719 150.588471,30.5784697 L150.088578,35.6660147 C150.42184,38.6695541 150.588471,41.2072308 150.588471,43.279045 C151.708774,43.7194163 153.778936,43.4074866 156.798958,42.3432559 C157.579358,38.5483781 158.788572,35.6367059 160.426599,33.6082392 C160.426599,32.3058435 160.889601,31.0317714 161.815603,29.7860229 C161.815603,25.3433953 162.374647,22.2643673 163.492737,20.5489386 C161.704925,18.2584166 157.645026,17.3610492 151.31304,17.8568364 Z" id="Path-3" fill="#542A2B"></path>
                                        </g>
                                    </g>
                                </g>
                                <g id="Potato" mask="url(#mask-2)">
                                    <g transform="translate(0.536545, 274.007082) rotate(7.000000) translate(-0.536545, -274.007082) translate(-44.841724, 245.316363)" id="Oval-2-+-Oval-2-Copy-+-Rectangle-Mask-Copy">
                                        <g transform="translate(-0.229798, 0.684000)">
                                            <path d="M44.0902274,52.2975626 C51.6304336,51.028597 58.5948511,50.8251631 64.6021202,47.3624896 C80.1124436,38.4221235 94.0271649,24.8873214 90.208087,13.7410579 C84.8962537,-1.76192352 65.3387098,0.534877809 46.1666975,4.60002803 C38.3478783,6.25789648 25.2566326,10.8924314 21.5248471,12.8004468 C17.6344822,12.8004468 0,20.6759271 0,33.4705186 C4.77328734e-16,38.0389392 3.59676126,41.6667947 8.48227097,45.5947108 C15.4876938,51.2270225 19.6776276,56.406038 44.0902274,52.2975626 Z" id="Mask-Copy" fill="#7E7870"></path>
                                            <g id="Potato-Copy-2">
                                                <g id="Oval-2-+-Oval-2-Copy-+-Rectangle-Mask-Copy">
                                                    <path d="M44.0902274,50.7015626 C51.6304336,49.432597 58.5948511,49.2291631 64.6021202,45.7664896 C80.1124436,36.8261235 94.0271649,23.2913214 90.208087,12.1450579 C84.8962537,-3.35792352 65.3387098,-1.06112219 46.1666975,3.00402803 C38.3478783,4.66189648 25.2566326,9.29643137 21.5248471,11.2044468 C17.6344822,11.2044468 0,19.0799271 0,31.8745186 C4.77328734e-16,36.4429392 3.59676126,40.0707947 8.48227097,43.9987108 C15.4876938,49.6310225 19.6776276,54.810038 44.0902274,50.7015626 Z" id="Mask" fill="#CA9B57"></path>
                                                    <path d="M71.4023285,0.0746672729 C80.2949167,0.582151886 87.3351365,3.76013752 90.208087,12.1450579 C92.7921468,19.6868289 87.2574436,28.3221039 78.6030234,35.8878028 C78.5444349,35.7126721 78.5064019,35.5081959 78.4889244,35.2743741 C78.0210279,29.0146576 79.7984422,18.9295736 79.9926525,16.7867112 C80.3826775,12.4832836 81.5061133,9.72974877 80.9810897,8.16988346 C79.4093555,3.50020023 72.4105979,4.68682557 71.4195343,2.39041425 C71.141918,1.74714448 71.1702917,0.925734441 71.4023285,0.0746672729 Z" id="Combined-Shape" fill="#BA8E56"></path>
                                                    <path d="M53.4812095,1.56985535 C56.6940396,1.00358737 59.8647515,0.545894221 62.922968,0.273888304 C65.1164164,1.14108967 66.3788365,1.81318973 66.7102282,2.29018851 C67.4597002,3.36896407 66.9637905,4.42948639 66.7102282,4.65055873 C66.2442852,5.05679863 65.0167402,5.33757441 63.0275934,5.49288609 L56.3327232,4.65055873 L53.4812095,1.56985535 Z" id="Combined-Shape" fill="#BA8E56"></path>
                                                    <path d="M35.4852559,51.8579198 C34.6458021,47.890115 34.0645867,45.4401667 33.7416096,44.5080751 C32.4290587,40.720135 31.8197314,39.4754804 31.7104254,37.2902185 C31.6279009,35.640375 33.1940223,36.062076 33.7416096,34.2113345 C34.0660903,33.1146513 34.3571905,30.6662693 34.6149103,26.8661883 L38.1372227,23.052437 C40.7852829,25.0866187 42.297266,26.8306186 42.6731721,28.2844365 C42.8861151,29.1079942 40.589096,33.0844373 41.1655338,37.9474917 C41.2733944,38.8574462 37.7197953,38.3059162 38.1372227,39.7662118 C38.4222805,40.7634362 37.5833042,41.9342885 39.2577412,44.5080751 C40.4057229,46.2726442 43.2662844,44.4741493 44.4406283,45.6525885 C45.2813792,46.4962714 46.3317736,48.8416099 46.5138988,50.3220678 C45.7130522,50.4397623 44.9050014,50.5644417 44.0902274,50.7015626 C40.8921137,51.2397835 38.0410548,51.6186155 35.4852559,51.8579198 Z" id="Combined-Shape" fill="#BA8E56"></path>
                                                    <path d="M24.001572,51.8788765 C16.1557398,50.8788529 12.8716761,47.5277623 8.48227097,43.9987108 C6.62451848,42.5050906 4.95311372,41.054858 3.59495975,39.5797986 C3.61502879,39.5045308 3.63818941,39.4405063 3.66444162,39.3877249 C4.91091055,36.8816404 7.46130122,35.1695004 7.68510023,33.8738001 C7.96893612,32.2305121 7.50071376,30.8802306 6.28043314,29.8229556 L10.8514843,27.1212232 C11.5024926,29.2476339 12.2088392,30.1482113 12.970524,29.8229556 C13.3926339,29.6427056 18.0002155,27.1295242 20.4192134,24.5051714 C21.3767195,23.4663802 18.9820376,22.5756996 20.4192134,21.5540082 C21.4083509,20.8508282 23.429687,20.4815376 26.4832216,20.4461365 C28.8169485,21.8050723 29.9526738,23.158084 29.8903974,24.5051714 C29.8512025,25.352988 19.8591055,28.893032 18.5692064,36.2606816 C18.2317875,38.1879521 22.3310133,36.7740715 24.3369007,41.1573021 C24.8018913,42.1733916 21.9544767,42.2200444 21.9763822,45.7069044 C21.9813326,46.4948925 22.6563959,48.5522166 24.001572,51.8788765 Z" id="Combined-Shape" fill="#BA8E56"></path>
                                                    <path d="M46.5200396,17.1255389 C47.633714,15.2936743 49.275933,15.2936743 52.0492424,16.1650961 C54.8225519,17.0365178 60.4557509,20.2854037 61.4456593,21.8915426 C62.4355678,23.4976815 59.2610548,25.2196902 58.088014,25.9630789 C56.9149732,26.7064675 54.7565198,25.3790889 54.1373063,26.5230498 C53.5180929,27.6670108 56.6833469,29.6703538 55.0723028,29.6703538 C53.4612587,29.6703538 48.564506,27.912592 46.5200396,24.9819442 C45.8863298,24.0735506 46.6651979,23.3766474 46.5200396,22.4793307 C46.19689,20.481736 45.7515634,18.3895925 46.5200396,17.1255389 Z" id="Rectangle-3" fill="#BA8E56"></path>
                                                    <ellipse id="Oval-2" fill="#A57135" transform="translate(51.633626, 22.024836) rotate(-32.000000) translate(-51.633626, -22.024836) " cx="51.6336264" cy="22.024836" rx="1" ry="2.28"></ellipse>
                                                    <ellipse id="Oval-2-Copy" fill="#A57135" transform="translate(82.662058, 16.747151) rotate(8.000000) translate(-82.662058, -16.747151) " cx="82.6620583" cy="16.7471512" rx="1" ry="1.51147595"></ellipse>
                                                </g>
                                            </g>
                                        </g>
                                    </g>
                                </g>
                            </g>
                        </g>
                    </g>
                </g>
                <g id="Logo-Main---door-open---extra-colourful">
                    <g id="Logo-main---just-sides">
                        <g id="Group-6" transform="translate(0.000000, 56.256881)">
                            <polygon id="Rectangle-6" fill="#98DCD8" points="286.460234 0.309726834 521.789365 68.5057659 521.789365 372.166098 286.460234 289.755876"></polygon>
                            <polygon id="Rectangle-8" fill="#8FD9D5" points="0.486289931 359.578127 286.4734 289.546026 521.774129 372.166098 222.573219 447.371112"></polygon>
                        </g>
                    </g>
                    <g id="Group-6" transform="translate(680.884740, 26.972477)" fill="#AAE2DE">
                        <polygon id="Rectangle-4" points="0.210915768 61.6549408 268.843144 0.0171378611 268.843144 286.825577 0.210915768 358.104468"></polygon>
                    </g>
                </g>
            </g>
        </g>
    </g>
</svg>