<?xml version="1.0" encoding="UTF-8" standalone="no"?>
<svg viewBox="0 0 502 112" version="1.1" xmlns="http://www.w3.org/2000/svg" xmlns:xlink="http://www.w3.org/1999/xlink" id="stock_addition">
    <title>Find recipes based on your ingredients image</title>
    <defs></defs>
    <g id="Logo-applications" stroke="none" stroke-width="1" fill="none" fill-rule="evenodd">
        <g id="Stock-in-cube" transform="translate(-2241.000000, -484.000000)">
            <g id="Group-6" transform="translate(2241.000000, 475.000000)">
                <g id="Group-2" transform="translate(211.000000, 33.000000)" fill="#4E8481" fill-rule="nonzero">
                    <polygon id="Line" points="-3.26315789 40.5 -3.26315789 33.5 75.2694316 33.5 75.2694316 40.5"></polygon>
                    <polygon id="Line-Copy" points="32.5 -3.5 39.5 -3.5 39.5 74.5 32.5 74.5"></polygon>
                </g>
                <g id="Group-3" transform="translate(0.000000, 37.000000)">
                    <path d="M150,77 L157,77 L150,84 L150,77 Z M150,77 L150,0 L157,0 L157,84 L0,84 L0,0 L7,0 L7,77 L150,77 Z M7,77 L7,84 L0,77 L7,77 Z M7,77 L7,84 L0,77 L7,77 Z M7,77 L150,77 L150,0 L157,0 L157,84 L0,84 L0,0 L7,0 L7,77 Z M150,77 L157,77 L150,84 L150,77 Z" id="Rectangle-7" fill="#54C5BE" fill-rule="nonzero"></path>
                    <g id="Potato-Copy-2" transform="translate(82.000000, 47.500000) rotate(6.000000) translate(-82.000000, -47.500000) translate(24.000000, 11.000000)">
                        <g id="Oval-2-+-Oval-2-Copy-+-Rectangle-Mask-Copy">
                            <path d="M56.2029272,64.9335802 C65.8146186,63.3084137 74.6923376,63.0478756 82.3499554,58.6132236 C102.121357,47.163281 119.858804,29.8292362 114.990529,15.5541969 C108.2194,-4.30049854 83.2889047,-1.35898105 58.8498561,3.84726397 C48.8830097,5.97049901 32.1952679,11.905956 27.4382666,14.3495546 C22.4791202,14.3495546 0,24.4356961 0,40.8217518 C6.08463001e-16,46.6725361 4.58488249,51.3187371 10.8125652,56.3492261 C19.7425548,63.5625376 25.0835692,70.1953118 56.2029272,64.9335802 Z" id="Mask" fill="#CA9B57"></path>
                            <path d="M91.0183528,0.0956265074 C102.35396,0.745562942 111.328306,4.81561472 114.990529,15.5541969 C118.284495,25.2129564 111.229269,36.2721681 100.197261,45.961572 C100.122576,45.7372818 100.074095,45.4754088 100.051816,45.1759528 C99.4553762,37.1591229 101.721091,24.2431381 101.968656,21.4987705 C102.465831,15.9873632 103.897903,12.4609063 103.228642,10.4631841 C101.225113,4.48271258 92.3036193,6.00242573 91.0402855,3.06140773 C90.6864009,2.23757101 90.7225696,1.18558972 91.0183528,0.0956265074 Z" id="Combined-Shape" fill="#BA8E56"></path>
                            <path d="M68.1738495,2.0105165 C72.2693252,1.2852961 76.3111118,0.699127687 80.2094976,0.350769231 C83.0055418,1.46139554 84.6147806,2.32215527 85.0372139,2.93304844 C85.9925849,4.31463819 85.3604362,5.67285099 85.0372139,5.95597873 C84.4432646,6.47625087 82.8784821,6.83584091 80.3428663,7.03474885 L71.8087461,5.95597873 L68.1738495,2.0105165 Z" id="Combined-Shape" fill="#BA8E56"></path>
                            <path d="M45.2339525,66.4145289 C44.1638796,61.3329543 43.4229896,58.1953013 43.0112826,57.0015699 C41.3381407,52.1503484 40.5614158,50.556317 40.4220807,47.7576482 C40.3168846,45.6446908 42.3132592,46.184764 43.0112826,43.8145162 C43.4249063,42.4099921 43.7959791,39.2743448 44.124501,34.4075745 L48.6144817,29.5232965 C51.9900309,32.1284766 53.917394,34.3620203 54.396571,36.2239274 C54.6680149,37.2786592 51.7399466,42.371297 52.4747463,48.5994192 C52.612239,49.7647995 48.0823765,49.058454 48.6144817,50.9286573 C48.9778521,52.2058042 47.9083877,53.7053169 50.042835,57.0015699 C51.5061962,59.2614566 55.1526263,56.9581211 56.6495921,58.4673502 C57.7213185,59.5478564 59.0602828,62.5515355 59.2924424,64.4475605 C58.271583,64.5982921 57.2415402,64.7579692 56.2029272,64.9335802 C52.1262108,65.6228807 48.491894,66.1080515 45.2339525,66.4145289 Z" id="Combined-Shape" fill="#BA8E56"></path>
                            <path d="M30.5954105,66.4413681 C20.5941298,65.1606361 16.4078509,60.8688886 10.8125652,56.3492261 C8.44444114,54.4363441 6.31385925,52.5790286 4.58258606,50.6899176 C4.60816856,50.5935219 4.637692,50.5115256 4.67115636,50.4439284 C6.2600618,47.2343816 9.51110925,45.0416408 9.79639151,43.3822352 C10.1582043,41.2776733 9.5613494,39.5483654 8.00582686,38.1943115 L13.8326613,34.7341981 C14.662518,37.457496 15.5629159,38.6108672 16.5338548,38.1943115 C17.071929,37.9634651 22.9453297,34.7448293 26.0288874,31.3838161 C27.2494446,30.0534343 24.1968831,28.9127381 26.0288874,27.6042561 C27.289766,26.7036922 29.8664141,26.2307411 33.758832,26.1854028 C36.7336926,27.9257944 38.1814303,29.6585988 38.1020451,31.3838161 C38.0520824,32.4696162 25.3149037,37.0033568 23.6706368,46.4391186 C23.2405204,48.9073772 28.465907,47.0966178 31.0228625,52.710229 C31.6155978,54.0115366 27.9859264,54.071285 28.0138499,58.5369127 C28.0201602,59.5460904 28.8806804,62.1809089 30.5954105,66.4413681 Z" id="Combined-Shape" fill="#BA8E56"></path>
                            <path d="M59.3002702,21.9327077 C60.7198992,19.5866356 62.8132772,19.5866356 66.3484848,20.7026669 C69.8836925,21.8186982 77.0644736,25.9795521 78.3263349,28.036537 C79.5881963,30.0935219 75.5415643,32.2989015 74.0462596,33.2509607 C72.5509549,34.2030198 69.7995197,32.5030436 69.0101927,33.9681164 C68.2208657,35.4331892 72.2556949,37.9988742 70.2020563,37.9988742 C68.1484177,37.9988742 61.9064032,35.7477056 59.3002702,31.9944198 C58.4924643,30.8310385 59.4853072,29.9385133 59.3002702,28.7893183 C58.8883432,26.2309952 58.3206743,23.5515834 59.3002702,21.9327077 Z" id="Rectangle-3" fill="#BA8E56"></path>
                            <ellipse id="Oval-2" fill="#A57135" transform="translate(65.818689, 28.207246) rotate(-32.000000) translate(-65.818689, -28.207246) " cx="65.8186885" cy="28.2072461" rx="1.17171717" ry="2.92"></ellipse>
                            <ellipse id="Oval-2-Copy" fill="#A57135" transform="translate(105.371415, 21.448106) rotate(8.000000) translate(-105.371415, -21.448106) " cx="105.371415" cy="21.4481059" rx="1" ry="1.9357499"></ellipse>
                        </g>
                    </g>
                </g>
                <g id="Group-4" transform="translate(337.000000, 0.000000)">
                    <path d="M157,114 L150,121 L150,114 L157,114 Z M150,37 L157,37 L157,121 L0,121 L0,37 L7,37 L7,114 L150,114 L150,37 Z M7,121 L0,114 L7,114 L7,121 Z M7,121 L0,114 L7,114 L7,121 Z M150,114 L150,37 L157,37 L157,121 L0,121 L0,37 L7,37 L7,114 L150,114 Z M157,114 L150,121 L150,114 L157,114 Z" id="Rectangle-7-Copy" fill="#54C5BE" fill-rule="nonzero"></path>
                    <g id="carrot" transform="translate(95.000000, 63.000000) rotate(54.000000) translate(-95.000000, -63.000000) translate(76.000000, -18.000000)">
                        <g>
                            <path d="M27.2688671,21.5299437 C25.1716124,14.713507 29.4830399,10.1202902 29.4830399,19.8536922 C29.4830399,26.3426269 27.0241944,36.8932648 22.1065034,51.5056061 L20.6926677,51.3766158 C26.4749705,36.0231256 28.667037,26.0742349 27.2688671,21.5299437 Z" id="Rectangle-4-Copy-4" fill="#738904"></path>
                            <path d="M15.9400749,8.58557776 C14.9342514,8.15785069 14.0228796,8.15785069 13.2059597,8.58557776 C15.6446899,29.3587521 16.864055,44.1356857 16.864055,52.9163786 C16.864055,66.0874179 23.3928528,68.0616949 21.9501197,52.9163786 C20.5073867,37.7710622 15.9400749,16.1120107 15.9400749,8.58557776 Z" id="Rectangle" fill="#738A16"></path>
                            <path d="M11.5280899,0.422241529 C12.3717068,0.0885041608 13.4400752,0.0885041608 14.733195,0.422241529 C15.5782772,15.3473433 13.824507,35.9853667 17.2575349,51.091225 C17.1698435,60.3133702 15.9505845,60.6113758 13.5997579,51.9852416 C10.5199071,40.6840232 12.1702323,32.1673713 11.5280899,23.7771273 C11.2981762,20.7730715 11.5280899,9.05211418 11.5280899,0.422241529 Z" id="Rectangle-4" fill="#95AC20"></path>
                            <path d="M29.5843561,3.23718506 L32.7549269,4.80277459 C28.0006649,12.7904307 22.3619453,28.1450865 18.5660474,35.356323 C17.6558087,42.2804909 17.0972211,45.6586019 16.8902845,45.4906559 C16.4091201,45.1001516 16.0926369,37.1549561 16.0926369,35.8124977 C16.0926369,34.4700393 16.8404229,32.0280053 17.1577404,31.3302537 C22.5901282,19.3849385 26.6176734,8.09385141 29.5843561,3.23718506 Z" id="Rectangle-4-Copy-3" fill="#B6CC3B"></path>
                            <path d="M30.7292559,4.08166811 L33.7151086,5.63071584 C28.0709368,29.7877891 22.4376694,40.8062374 20.3471785,50.3277587 C19.3378489,54.9249341 10.2220574,66.8134098 16.082397,49.2595827 C19.9892901,37.5570313 24.8715764,22.4977264 30.7292559,4.08166811 Z" id="Rectangle-4-Copy-2" fill="#C7D249"></path>
                            <path d="M20.9661986,0.422241529 C21.8664067,-0.274703601 22.7363252,0.099525088 23.5759541,1.5449276 C22.6329366,11.3935544 21.4198822,28.0183841 19.9367908,51.4194168 L15.844722,51.925834 C18.7021074,33.5357688 19.9157735,10.3024133 20.9661986,0.422241529 Z" id="Rectangle-4-Copy" fill="#82A002"></path>
                            <path d="M7.86985456,53.5840508 C12.3369742,51.7949609 20.8296529,50.005871 25.247685,51.7949609 C29.6657172,53.5840508 34.8205643,56.5160568 37.559038,66.7264235 C38.6602045,70.8321097 37.4720865,72.2928254 35.3304527,89.5035846 C33.9214228,100.826937 31.1359328,135.698357 29.6657172,141.180191 C28.1955017,146.662025 24.4150218,158.863053 22.2673612,161.302067 C21.4329191,162.24971 17.6004824,162.862009 14.4785054,158.148684 C12.2436522,154.774672 9.00302032,145.857947 7.86985456,141.180191 C6.7366888,136.502436 0.08099871,80.7766125 0.08099871,69.103759 C0.08099871,57.4309054 3.40273494,55.3731406 7.86985456,53.5840508 Z" id="Rectangle-3" fill="#F8823C"></path>
                            <g id="marks" transform="translate(0.426966, 66.995656)" fill="#FBB86B" fill-rule="nonzero">
                                <g id="Line-+-Line-Copy-+-Line-Copy-3-+-Line-Copy-5-+-Line-+-Line-Copy-2-+-Line-Copy-4-+-Line-Copy-6-Mask">
                                    <path d="M37.5032599,3.87162857 C37.457938,4.47125596 37.3805074,5.13810528 37.274097,5.91526515 L36.9759585,5.56749098 C34.7450215,2.96513558 30.1609328,1.61859253 23.1985019,1.61859253 L22.4157303,1.61859253 L22.4157303,0.0703735882 L23.1985019,0.0703735882 C29.9873728,0.0703735882 34.7621693,1.31388947 37.5032599,3.87162857 Z" id="Combined-Shape"></path>
                                    <path d="M34.347075,27.4562881 C34.2932479,27.9689363 34.2383596,28.4989177 34.1824957,29.0445467 C31.7252409,28.1256082 28.4451601,27.6568202 24.3370787,27.6568202 L23.5543071,27.6568202 L23.5543071,26.1086012 L24.3370787,26.1086012 C28.39459,26.1086012 31.7326525,26.5527983 34.347075,27.4562881 Z" id="Combined-Shape"></path>
                                    <path d="M33.5535766,35.3811515 C33.503716,35.8946317 33.4534176,36.4144139 33.4027264,36.9396094 C31.2097933,36.3838722 28.5208013,36.1016507 25.3333333,36.1016507 L24.5505618,36.1016507 L24.5505618,34.5534318 L25.3333333,34.5534318 C28.5170275,34.5534318 31.2577834,34.8269076 33.5535766,35.3811515 Z" id="Combined-Shape"></path>
                                    <path d="M31.709935,54.4297289 C31.6574482,54.9552027 31.6050438,55.4768694 31.5527634,55.9939099 C30.1600805,55.6018406 28.6914811,55.3005769 27.2221005,55.0793042 C26.6196021,54.9885746 26.0605217,54.9181108 25.5596715,54.865527 C25.3852192,54.8472114 25.2308068,54.8324566 25.0982785,54.8209599 C25.0201944,54.8141862 24.9676519,54.810061 24.9424923,54.80828 L24.1617185,54.7530098 L24.2734958,53.2087421 L25.0542696,53.2640123 C25.0876489,53.2663751 25.1485256,53.2711547 25.2350822,53.2786634 C25.3769551,53.2909707 25.5408481,53.3066314 25.7249468,53.3259598 C26.2485278,53.38093 26.8309565,53.4543366 27.4577755,53.5487287 C28.8939669,53.7650034 30.3308447,54.0548744 31.709935,54.4297289 Z" id="Combined-Shape"></path>
                                    <path d="M0.167158499,11.3622082 C0.113603358,10.6911592 0.0636813046,10.0422165 0.0176631673,9.41749503 C2.31872327,7.67534662 6.00858426,6.68761347 11.0863123,6.40521772 L11.8678489,6.36175289 L11.9557513,7.90752943 L11.1742147,7.95099427 C5.75920158,8.25214798 2.12676788,9.37660224 0.275544052,11.2523848 L0.167158499,11.3622082 Z" id="Combined-Shape"></path>
                                    <path d="M1.41029008,24.8316861 C3.43212847,24.0679772 5.93723477,23.5012686 8.92649581,23.1227962 L9.70292994,23.0244914 L9.90173963,24.5601758 L9.12530551,24.6584806 C6.03163492,25.0501723 3.51392963,25.6454259 1.57335482,26.4327261 C1.51825122,25.895601 1.46387488,25.3617537 1.41029008,24.8316861 Z" id="Combined-Shape"></path>
                                    <path d="M3.42157822,43.3876757 C5.75218272,41.8566427 8.87081636,41.0996003 12.7549847,41.0996003 L13.5377562,41.0996003 L13.5377562,42.6478192 L12.7549847,42.6478192 C8.75064512,42.6478192 5.71800089,43.4922554 3.6254417,45.1573112 C3.55745893,44.5699791 3.48947793,43.9798936 3.42157822,43.3876757 Z" id="Combined-Shape"></path>
                                    <path d="M5.54163216,60.9830173 C7.23771538,60.3717967 9.22309872,59.8793632 11.497704,59.5019217 L12.2696835,59.3738216 L12.5287505,60.9006953 L11.756771,61.0287954 C9.40885854,61.4184013 7.40463774,61.9308199 5.74400641,62.5610902 C5.67761857,62.0469754 5.61012195,61.5206502 5.54163216,60.9830173 Z" id="Combined-Shape"></path>
                                </g>
                            </g>
                        </g>
                    </g>
                </g>
            </g>
        </g>
    </g>
</svg>